%
M48
M72
T01C0.0120
T02C0.0236
T03C0.0320
T04C0.0400
T05C0.1378
%
T01
X5285Y3785
X6410Y3785
X7410Y3785
X7660Y5410
X9160Y6035
X9535Y5785
X9910Y6035
X9985Y6985
X9535Y7035
X10285Y7535
X10585Y7285
X10910Y7035
X11348Y6223
X11660Y6535
X12035Y7035
X12285Y7535
X12910Y8285
X13785Y9285
X14160Y9535
X14535Y9785
X14910Y10660
X15535Y10160
X16035Y9785
X17785Y9660
X20035Y11910
X19660Y12910
X18035Y12285
X15910Y12285
X15160Y12285
X15535Y13410
X14785Y13660
X12910Y11660
X12410Y12348
X10910Y10160
X9410Y10160
X8660Y8535
X8410Y8160
X7473Y7785
X5660Y7785
X4410Y9660
X5410Y12160
X6410Y13035
X7660Y12785
X8285Y13035
X8535Y12035
X8035Y11910
X7710Y9585
X4660Y5785
X10285Y3410
X10660Y3160
X11160Y3410
X13035Y3910
X13410Y3535
X14285Y3535
X14785Y4160
X14410Y4535
X14035Y4785
X13660Y5035
X16285Y7285
X16785Y6535
X17285Y5910
X17160Y3535
X19535Y4410
X20035Y3785
X10410Y14660
X10160Y15160
X10535Y15535
X10160Y15910
X10535Y16285
X10160Y17035
X9160Y15160
X5785Y18660
X5785Y19160
X8410Y19910
X8910Y19910
X9410Y19910
X10660Y20660
X11160Y20660
X11660Y20660
X8910Y21910
X13785Y17035
X14410Y15535
X15535Y16660
X15910Y17160
X15160Y17910
X14785Y18410
X14410Y18910
X16785Y19910
X17285Y19410
X16285Y16285
X18410Y15910
X1410Y17160
X910Y17160
T02
X5910Y8660
T03
X6610Y10910
X4710Y10910
T04
X910Y10910
X910Y9910
X910Y8910
X910Y7910
X910Y6910
X910Y5910
X910Y4910
X910Y3910
X5910Y910
X6910Y910
X7910Y910
X8910Y910
X9910Y910
X10910Y910
X11910Y910
X12910Y910
X13910Y910
X14910Y910
X15910Y910
X16910Y910
X21910Y3910
X21910Y4910
X21910Y5910
X21910Y6910
X21910Y7910
X21910Y8910
X21910Y9910
X21910Y10910
X21910Y11910
X21910Y12910
X21910Y13910
X21910Y14910
X21910Y16910
X21910Y17910
X21910Y18910
X21910Y19910
X21910Y20910
X21910Y21910
X16660Y21910
X15660Y21910
X14660Y21910
X13660Y21910
X11660Y21910
X10660Y21910
X7160Y21910
X6160Y21910
X6660Y16910
X7660Y16910
X7660Y15910
X7660Y14910
X6660Y14910
X6660Y15910
X910Y14910
X910Y13910
X910Y12910
X910Y11910
X910Y17910
X910Y18910
T05
X3410Y1910
X19410Y1910
X19410Y20910
X3410Y20910
M30
