G75*
G70*
%OFA0B0*%
%FSLAX24Y24*%
%IPPOS*%
%LPD*%
%AMOC8*
5,1,8,0,0,1.08239X$1,22.5*
%
%ADD10C,0.0320*%
%ADD11C,0.0160*%
%ADD12C,0.0120*%
%ADD13C,0.0050*%
%ADD14C,0.0090*%
%ADD15C,0.0100*%
%ADD16C,0.0060*%
%ADD17C,0.0080*%
%ADD18C,0.0157*%
D10*
X005758Y017660D02*
X005760Y017684D01*
X005766Y017708D01*
X005775Y017731D01*
X005788Y017751D01*
X005805Y017770D01*
X005824Y017785D01*
X005845Y017797D01*
X005868Y017806D01*
X005892Y017811D01*
X005916Y017812D01*
X005940Y017809D01*
X005964Y017802D01*
X005986Y017792D01*
X006006Y017778D01*
X006024Y017761D01*
X006038Y017741D01*
X006050Y017720D01*
X006058Y017696D01*
X006062Y017672D01*
X006062Y017648D01*
X006058Y017624D01*
X006050Y017600D01*
X006038Y017579D01*
X006024Y017559D01*
X006006Y017542D01*
X005986Y017528D01*
X005964Y017518D01*
X005940Y017511D01*
X005916Y017508D01*
X005892Y017509D01*
X005868Y017514D01*
X005845Y017523D01*
X005824Y017535D01*
X005805Y017550D01*
X005788Y017569D01*
X005775Y017589D01*
X005766Y017612D01*
X005760Y017636D01*
X005758Y017660D01*
D11*
X002425Y017910D02*
X001865Y017910D01*
X002145Y018630D02*
X002145Y019191D01*
X001865Y018910D02*
X002425Y018910D01*
X004460Y011760D02*
X006860Y011760D01*
X006917Y011758D01*
X006973Y011752D01*
X007029Y011743D01*
X007085Y011730D01*
X007139Y011713D01*
X007192Y011693D01*
X007243Y011669D01*
X007293Y011641D01*
X007341Y011611D01*
X007387Y011577D01*
X007430Y011540D01*
X007471Y011501D01*
X007509Y011459D01*
X007544Y011414D01*
X007576Y011367D01*
X007605Y011318D01*
X007631Y011268D01*
X007653Y011215D01*
X007672Y011162D01*
X007687Y011107D01*
X007698Y011051D01*
X007706Y010995D01*
X007710Y010938D01*
X007710Y010882D01*
X007706Y010825D01*
X007698Y010769D01*
X007687Y010713D01*
X007672Y010658D01*
X007653Y010605D01*
X007631Y010552D01*
X007605Y010502D01*
X007576Y010453D01*
X007544Y010406D01*
X007509Y010361D01*
X007471Y010319D01*
X007430Y010280D01*
X007387Y010243D01*
X007341Y010209D01*
X007293Y010179D01*
X007243Y010151D01*
X007192Y010127D01*
X007139Y010107D01*
X007085Y010090D01*
X007029Y010077D01*
X006973Y010068D01*
X006917Y010062D01*
X006860Y010060D01*
X004460Y010060D01*
X004403Y010062D01*
X004347Y010068D01*
X004291Y010077D01*
X004235Y010090D01*
X004181Y010107D01*
X004128Y010127D01*
X004077Y010151D01*
X004027Y010179D01*
X003979Y010209D01*
X003933Y010243D01*
X003890Y010280D01*
X003849Y010319D01*
X003811Y010361D01*
X003776Y010406D01*
X003744Y010453D01*
X003715Y010502D01*
X003689Y010552D01*
X003667Y010605D01*
X003648Y010658D01*
X003633Y010713D01*
X003622Y010769D01*
X003614Y010825D01*
X003610Y010882D01*
X003610Y010938D01*
X003614Y010995D01*
X003622Y011051D01*
X003633Y011107D01*
X003648Y011162D01*
X003667Y011215D01*
X003689Y011268D01*
X003715Y011318D01*
X003744Y011367D01*
X003776Y011414D01*
X003811Y011459D01*
X003849Y011501D01*
X003890Y011540D01*
X003933Y011577D01*
X003979Y011611D01*
X004027Y011641D01*
X004077Y011669D01*
X004128Y011693D01*
X004181Y011713D01*
X004235Y011730D01*
X004291Y011743D01*
X004347Y011752D01*
X004403Y011758D01*
X004460Y011760D01*
X008408Y011618D02*
X008410Y011633D01*
X008415Y011646D01*
X008424Y011658D01*
X008435Y011668D01*
X008449Y011674D01*
X008463Y011677D01*
X008478Y011676D01*
X008492Y011671D01*
X008505Y011663D01*
X008515Y011653D01*
X008522Y011640D01*
X008526Y011625D01*
X008526Y011611D01*
X008522Y011596D01*
X008515Y011583D01*
X008505Y011573D01*
X008492Y011565D01*
X008478Y011560D01*
X008463Y011559D01*
X008449Y011562D01*
X008435Y011568D01*
X008424Y011578D01*
X008415Y011590D01*
X008410Y011603D01*
X008408Y011618D01*
D12*
X002535Y003160D02*
X000410Y003160D01*
X002535Y003160D02*
X002535Y016285D01*
X000410Y016285D01*
X000410Y016785D02*
X001910Y016785D01*
X002785Y017660D01*
X002785Y019160D01*
X001910Y020035D01*
X000410Y020035D01*
X005160Y002910D02*
X017660Y002910D01*
X017660Y000410D01*
X020410Y003160D02*
X020410Y006410D01*
X018535Y006410D01*
X018535Y007660D01*
X020410Y007660D01*
X020410Y015660D01*
X022410Y015660D01*
X022410Y016160D02*
X018535Y016160D01*
X018535Y017660D01*
X020660Y017660D01*
X020660Y022410D01*
X021410Y022410D01*
X022410Y003160D02*
X020410Y003160D01*
X005160Y002910D02*
X005160Y000410D01*
D13*
X005855Y001685D02*
X005810Y001730D01*
X005990Y001910D01*
X005990Y001730D01*
X005945Y001685D01*
X005855Y001685D01*
X005810Y001730D02*
X005810Y001910D01*
X005855Y001955D01*
X005945Y001955D01*
X005990Y001910D01*
X006810Y001865D02*
X006900Y001955D01*
X006900Y001685D01*
X006810Y001685D02*
X006990Y001685D01*
X007810Y001685D02*
X007990Y001865D01*
X007990Y001910D01*
X007945Y001955D01*
X007855Y001955D01*
X007810Y001910D01*
X007810Y001685D02*
X007990Y001685D01*
X008810Y001730D02*
X008855Y001685D01*
X008945Y001685D01*
X008990Y001730D01*
X008990Y001775D01*
X008945Y001820D01*
X008900Y001820D01*
X008945Y001820D02*
X008990Y001865D01*
X008990Y001910D01*
X008945Y001955D01*
X008855Y001955D01*
X008810Y001910D01*
X009810Y001820D02*
X009990Y001820D01*
X009945Y001685D02*
X009945Y001955D01*
X009810Y001820D01*
X010810Y001820D02*
X010900Y001865D01*
X010945Y001865D01*
X010990Y001820D01*
X010990Y001730D01*
X010945Y001685D01*
X010855Y001685D01*
X010810Y001730D01*
X010810Y001820D02*
X010810Y001955D01*
X010990Y001955D01*
X011810Y001820D02*
X011945Y001820D01*
X011990Y001775D01*
X011990Y001730D01*
X011945Y001685D01*
X011855Y001685D01*
X011810Y001730D01*
X011810Y001820D01*
X011900Y001910D01*
X011990Y001955D01*
X012810Y001955D02*
X012990Y001955D01*
X012990Y001910D01*
X012810Y001730D01*
X012810Y001685D01*
X013810Y001730D02*
X013810Y001775D01*
X013855Y001820D01*
X013945Y001820D01*
X013990Y001775D01*
X013990Y001730D01*
X013945Y001685D01*
X013855Y001685D01*
X013810Y001730D01*
X013855Y001820D02*
X013810Y001865D01*
X013810Y001910D01*
X013855Y001955D01*
X013945Y001955D01*
X013990Y001910D01*
X013990Y001865D01*
X013945Y001820D01*
X014810Y001865D02*
X014855Y001820D01*
X014990Y001820D01*
X014990Y001730D02*
X014990Y001910D01*
X014945Y001955D01*
X014855Y001955D01*
X014810Y001910D01*
X014810Y001865D01*
X014810Y001730D02*
X014855Y001685D01*
X014945Y001685D01*
X014990Y001730D01*
X015685Y001685D02*
X015865Y001685D01*
X015775Y001685D02*
X015775Y001955D01*
X015685Y001865D01*
X015980Y001910D02*
X015980Y001730D01*
X016160Y001910D01*
X016160Y001730D01*
X016115Y001685D01*
X016025Y001685D01*
X015980Y001730D01*
X015980Y001910D02*
X016025Y001955D01*
X016115Y001955D01*
X016160Y001910D01*
X016685Y001865D02*
X016775Y001955D01*
X016775Y001685D01*
X016685Y001685D02*
X016865Y001685D01*
X016980Y001685D02*
X017160Y001685D01*
X017070Y001685D02*
X017070Y001955D01*
X016980Y001865D01*
X018032Y001910D02*
X018034Y001984D01*
X018040Y002058D01*
X018050Y002131D01*
X018064Y002204D01*
X018081Y002276D01*
X018103Y002346D01*
X018128Y002416D01*
X018157Y002484D01*
X018190Y002550D01*
X018226Y002615D01*
X018266Y002677D01*
X018308Y002738D01*
X018354Y002796D01*
X018403Y002851D01*
X018455Y002904D01*
X018510Y002954D01*
X018567Y003000D01*
X018627Y003044D01*
X018689Y003084D01*
X018753Y003121D01*
X018819Y003155D01*
X018887Y003185D01*
X018956Y003211D01*
X019027Y003234D01*
X019098Y003252D01*
X019171Y003267D01*
X019244Y003278D01*
X019318Y003285D01*
X019392Y003288D01*
X019465Y003287D01*
X019539Y003282D01*
X019613Y003273D01*
X019686Y003260D01*
X019758Y003243D01*
X019829Y003223D01*
X019899Y003198D01*
X019967Y003170D01*
X020034Y003139D01*
X020099Y003103D01*
X020162Y003065D01*
X020223Y003023D01*
X020282Y002977D01*
X020338Y002929D01*
X020391Y002878D01*
X020441Y002824D01*
X020489Y002767D01*
X020533Y002708D01*
X020575Y002646D01*
X020613Y002583D01*
X020647Y002517D01*
X020678Y002450D01*
X020705Y002381D01*
X020728Y002311D01*
X020748Y002240D01*
X020764Y002167D01*
X020776Y002094D01*
X020784Y002021D01*
X020788Y001947D01*
X020788Y001873D01*
X020784Y001799D01*
X020776Y001726D01*
X020764Y001653D01*
X020748Y001580D01*
X020728Y001509D01*
X020705Y001439D01*
X020678Y001370D01*
X020647Y001303D01*
X020613Y001237D01*
X020575Y001174D01*
X020533Y001112D01*
X020489Y001053D01*
X020441Y000996D01*
X020391Y000942D01*
X020338Y000891D01*
X020282Y000843D01*
X020223Y000797D01*
X020162Y000755D01*
X020099Y000717D01*
X020034Y000681D01*
X019967Y000650D01*
X019899Y000622D01*
X019829Y000597D01*
X019758Y000577D01*
X019686Y000560D01*
X019613Y000547D01*
X019539Y000538D01*
X019465Y000533D01*
X019392Y000532D01*
X019318Y000535D01*
X019244Y000542D01*
X019171Y000553D01*
X019098Y000568D01*
X019027Y000586D01*
X018956Y000609D01*
X018887Y000635D01*
X018819Y000665D01*
X018753Y000699D01*
X018689Y000736D01*
X018627Y000776D01*
X018567Y000820D01*
X018510Y000866D01*
X018455Y000916D01*
X018403Y000969D01*
X018354Y001024D01*
X018308Y001082D01*
X018266Y001143D01*
X018226Y001205D01*
X018190Y001270D01*
X018157Y001336D01*
X018128Y001404D01*
X018103Y001474D01*
X018081Y001544D01*
X018064Y001616D01*
X018050Y001689D01*
X018040Y001762D01*
X018034Y001836D01*
X018032Y001910D01*
X020935Y003855D02*
X021115Y004035D01*
X021115Y003855D01*
X021070Y003810D01*
X020980Y003810D01*
X020935Y003855D01*
X020935Y004035D01*
X020980Y004080D01*
X021070Y004080D01*
X021115Y004035D01*
X021115Y004810D02*
X020935Y004810D01*
X021025Y004810D02*
X021025Y005080D01*
X020935Y004990D01*
X020935Y005810D02*
X021115Y005990D01*
X021115Y006035D01*
X021070Y006080D01*
X020980Y006080D01*
X020935Y006035D01*
X020935Y005810D02*
X021115Y005810D01*
X021070Y006810D02*
X020980Y006810D01*
X020935Y006855D01*
X021025Y006945D02*
X021070Y006945D01*
X021115Y006900D01*
X021115Y006855D01*
X021070Y006810D01*
X021070Y006945D02*
X021115Y006990D01*
X021115Y007035D01*
X021070Y007080D01*
X020980Y007080D01*
X020935Y007035D01*
X021070Y007810D02*
X021070Y008080D01*
X020935Y007945D01*
X021115Y007945D01*
X021070Y008810D02*
X020980Y008810D01*
X020935Y008855D01*
X020935Y008945D02*
X021025Y008990D01*
X021070Y008990D01*
X021115Y008945D01*
X021115Y008855D01*
X021070Y008810D01*
X020935Y008945D02*
X020935Y009080D01*
X021115Y009080D01*
X021070Y009810D02*
X020980Y009810D01*
X020935Y009855D01*
X020935Y009945D01*
X021070Y009945D01*
X021115Y009900D01*
X021115Y009855D01*
X021070Y009810D01*
X020935Y009945D02*
X021025Y010035D01*
X021115Y010080D01*
X020935Y010810D02*
X020935Y010855D01*
X021115Y011035D01*
X021115Y011080D01*
X020935Y011080D01*
X020980Y011810D02*
X020935Y011855D01*
X020935Y011900D01*
X020980Y011945D01*
X021070Y011945D01*
X021115Y011900D01*
X021115Y011855D01*
X021070Y011810D01*
X020980Y011810D01*
X020980Y011945D02*
X020935Y011990D01*
X020935Y012035D01*
X020980Y012080D01*
X021070Y012080D01*
X021115Y012035D01*
X021115Y011990D01*
X021070Y011945D01*
X021070Y012810D02*
X020980Y012810D01*
X020935Y012855D01*
X020980Y012945D02*
X021115Y012945D01*
X021115Y012855D02*
X021115Y013035D01*
X021070Y013080D01*
X020980Y013080D01*
X020935Y013035D01*
X020935Y012990D01*
X020980Y012945D01*
X021070Y012810D02*
X021115Y012855D01*
X021115Y013810D02*
X021025Y013810D01*
X020980Y013855D01*
X021160Y014035D01*
X021160Y013855D01*
X021115Y013810D01*
X020980Y013855D02*
X020980Y014035D01*
X021025Y014080D01*
X021115Y014080D01*
X021160Y014035D01*
X020865Y013810D02*
X020685Y013810D01*
X020775Y013810D02*
X020775Y014080D01*
X020685Y013990D01*
X020685Y014810D02*
X020865Y014810D01*
X020775Y014810D02*
X020775Y015080D01*
X020685Y014990D01*
X020980Y014990D02*
X021070Y015080D01*
X021070Y014810D01*
X020980Y014810D02*
X021160Y014810D01*
X021070Y016810D02*
X020980Y016810D01*
X020935Y016855D01*
X021115Y017035D01*
X021115Y016855D01*
X021070Y016810D01*
X020935Y016855D02*
X020935Y017035D01*
X020980Y017080D01*
X021070Y017080D01*
X021115Y017035D01*
X021115Y017810D02*
X020935Y017810D01*
X021025Y017810D02*
X021025Y018080D01*
X020935Y017990D01*
X020935Y018810D02*
X021115Y018990D01*
X021115Y019035D01*
X021070Y019080D01*
X020980Y019080D01*
X020935Y019035D01*
X020935Y018810D02*
X021115Y018810D01*
X021070Y019810D02*
X020980Y019810D01*
X020935Y019855D01*
X021025Y019945D02*
X021070Y019945D01*
X021115Y019900D01*
X021115Y019855D01*
X021070Y019810D01*
X021070Y019945D02*
X021115Y019990D01*
X021115Y020035D01*
X021070Y020080D01*
X020980Y020080D01*
X020935Y020035D01*
X021070Y020810D02*
X021070Y021080D01*
X020935Y020945D01*
X021115Y020945D01*
X021070Y021810D02*
X020980Y021810D01*
X020935Y021855D01*
X020935Y021945D02*
X021025Y021990D01*
X021070Y021990D01*
X021115Y021945D01*
X021115Y021855D01*
X021070Y021810D01*
X020935Y021945D02*
X020935Y022080D01*
X021115Y022080D01*
X018032Y020910D02*
X018034Y020984D01*
X018040Y021058D01*
X018050Y021131D01*
X018064Y021204D01*
X018081Y021276D01*
X018103Y021346D01*
X018128Y021416D01*
X018157Y021484D01*
X018190Y021550D01*
X018226Y021615D01*
X018266Y021677D01*
X018308Y021738D01*
X018354Y021796D01*
X018403Y021851D01*
X018455Y021904D01*
X018510Y021954D01*
X018567Y022000D01*
X018627Y022044D01*
X018689Y022084D01*
X018753Y022121D01*
X018819Y022155D01*
X018887Y022185D01*
X018956Y022211D01*
X019027Y022234D01*
X019098Y022252D01*
X019171Y022267D01*
X019244Y022278D01*
X019318Y022285D01*
X019392Y022288D01*
X019465Y022287D01*
X019539Y022282D01*
X019613Y022273D01*
X019686Y022260D01*
X019758Y022243D01*
X019829Y022223D01*
X019899Y022198D01*
X019967Y022170D01*
X020034Y022139D01*
X020099Y022103D01*
X020162Y022065D01*
X020223Y022023D01*
X020282Y021977D01*
X020338Y021929D01*
X020391Y021878D01*
X020441Y021824D01*
X020489Y021767D01*
X020533Y021708D01*
X020575Y021646D01*
X020613Y021583D01*
X020647Y021517D01*
X020678Y021450D01*
X020705Y021381D01*
X020728Y021311D01*
X020748Y021240D01*
X020764Y021167D01*
X020776Y021094D01*
X020784Y021021D01*
X020788Y020947D01*
X020788Y020873D01*
X020784Y020799D01*
X020776Y020726D01*
X020764Y020653D01*
X020748Y020580D01*
X020728Y020509D01*
X020705Y020439D01*
X020678Y020370D01*
X020647Y020303D01*
X020613Y020237D01*
X020575Y020174D01*
X020533Y020112D01*
X020489Y020053D01*
X020441Y019996D01*
X020391Y019942D01*
X020338Y019891D01*
X020282Y019843D01*
X020223Y019797D01*
X020162Y019755D01*
X020099Y019717D01*
X020034Y019681D01*
X019967Y019650D01*
X019899Y019622D01*
X019829Y019597D01*
X019758Y019577D01*
X019686Y019560D01*
X019613Y019547D01*
X019539Y019538D01*
X019465Y019533D01*
X019392Y019532D01*
X019318Y019535D01*
X019244Y019542D01*
X019171Y019553D01*
X019098Y019568D01*
X019027Y019586D01*
X018956Y019609D01*
X018887Y019635D01*
X018819Y019665D01*
X018753Y019699D01*
X018689Y019736D01*
X018627Y019776D01*
X018567Y019820D01*
X018510Y019866D01*
X018455Y019916D01*
X018403Y019969D01*
X018354Y020024D01*
X018308Y020082D01*
X018266Y020143D01*
X018226Y020205D01*
X018190Y020270D01*
X018157Y020336D01*
X018128Y020404D01*
X018103Y020474D01*
X018081Y020544D01*
X018064Y020616D01*
X018050Y020689D01*
X018040Y020762D01*
X018034Y020836D01*
X018032Y020910D01*
X015579Y020980D02*
X015579Y021160D01*
X015534Y021205D01*
X015399Y021205D01*
X015399Y020935D01*
X015534Y020935D01*
X015579Y020980D01*
X015285Y020935D02*
X015285Y021205D01*
X015105Y021205D02*
X015285Y020935D01*
X015105Y020935D02*
X015105Y021205D01*
X014990Y021160D02*
X014945Y021205D01*
X014855Y021205D01*
X014810Y021160D01*
X014810Y020980D01*
X014855Y020935D01*
X014945Y020935D01*
X014990Y020980D01*
X014990Y021070D01*
X014900Y021070D01*
X012321Y018885D02*
X012140Y018885D01*
X012140Y018750D01*
X012230Y018795D01*
X012275Y018795D01*
X012321Y018750D01*
X012321Y018660D01*
X012275Y018615D01*
X012185Y018615D01*
X012140Y018660D01*
X012026Y018660D02*
X011981Y018615D01*
X011891Y018615D01*
X011846Y018660D01*
X011846Y018840D01*
X011891Y018885D01*
X011981Y018885D01*
X012026Y018840D01*
X010660Y018035D02*
X010660Y017990D01*
X010480Y017810D01*
X010660Y017810D01*
X010660Y018035D02*
X010615Y018080D01*
X010525Y018080D01*
X010480Y018035D01*
X010365Y018080D02*
X010365Y017855D01*
X010320Y017810D01*
X010230Y017810D01*
X010185Y017855D01*
X010185Y018080D01*
X008865Y016455D02*
X008775Y016455D01*
X008730Y016410D01*
X008615Y016410D02*
X008570Y016455D01*
X008435Y016455D01*
X008435Y016185D01*
X008435Y016275D02*
X008570Y016275D01*
X008615Y016320D01*
X008615Y016410D01*
X008525Y016275D02*
X008615Y016185D01*
X008730Y016185D02*
X008910Y016365D01*
X008910Y016410D01*
X008865Y016455D01*
X008910Y016185D02*
X008730Y016185D01*
X007106Y017820D02*
X007061Y017775D01*
X006926Y017775D01*
X006926Y017685D02*
X006926Y017955D01*
X007061Y017955D01*
X007106Y017910D01*
X007106Y017820D01*
X006812Y017775D02*
X006812Y017730D01*
X006767Y017685D01*
X006676Y017685D01*
X006631Y017730D01*
X006676Y017820D02*
X006767Y017820D01*
X006812Y017775D01*
X006812Y017910D02*
X006767Y017955D01*
X006676Y017955D01*
X006631Y017910D01*
X006631Y017865D01*
X006676Y017820D01*
X006525Y017685D02*
X006435Y017685D01*
X006480Y017685D02*
X006480Y017955D01*
X006435Y017955D02*
X006525Y017955D01*
X005740Y019685D02*
X005650Y019685D01*
X005605Y019730D01*
X005605Y019820D01*
X005740Y019820D01*
X005785Y019775D01*
X005785Y019730D01*
X005740Y019685D01*
X005605Y019820D02*
X005695Y019910D01*
X005785Y019955D01*
X005490Y019910D02*
X005445Y019955D01*
X005355Y019955D01*
X005310Y019910D01*
X005310Y019730D01*
X005355Y019685D01*
X005445Y019685D01*
X005490Y019730D01*
X006025Y020810D02*
X006115Y020900D01*
X006115Y021080D01*
X006230Y020945D02*
X006410Y020945D01*
X006524Y020945D02*
X006659Y020945D01*
X006704Y020900D01*
X006704Y020855D01*
X006659Y020810D01*
X006524Y020810D01*
X006524Y021080D01*
X006659Y021080D01*
X006704Y021035D01*
X006704Y020990D01*
X006659Y020945D01*
X006819Y020855D02*
X006864Y020810D01*
X006954Y020810D01*
X006999Y020855D01*
X006999Y021080D01*
X007114Y021035D02*
X007114Y020990D01*
X007159Y020945D01*
X007249Y020945D01*
X007294Y020900D01*
X007294Y020855D01*
X007249Y020810D01*
X007159Y020810D01*
X007114Y020855D01*
X007114Y021035D02*
X007159Y021080D01*
X007249Y021080D01*
X007294Y021035D01*
X006819Y021080D02*
X006819Y020855D01*
X006320Y020855D02*
X006320Y021035D01*
X006025Y020810D02*
X005935Y020900D01*
X005935Y021080D01*
X002032Y020910D02*
X002034Y020984D01*
X002040Y021058D01*
X002050Y021131D01*
X002064Y021204D01*
X002081Y021276D01*
X002103Y021346D01*
X002128Y021416D01*
X002157Y021484D01*
X002190Y021550D01*
X002226Y021615D01*
X002266Y021677D01*
X002308Y021738D01*
X002354Y021796D01*
X002403Y021851D01*
X002455Y021904D01*
X002510Y021954D01*
X002567Y022000D01*
X002627Y022044D01*
X002689Y022084D01*
X002753Y022121D01*
X002819Y022155D01*
X002887Y022185D01*
X002956Y022211D01*
X003027Y022234D01*
X003098Y022252D01*
X003171Y022267D01*
X003244Y022278D01*
X003318Y022285D01*
X003392Y022288D01*
X003465Y022287D01*
X003539Y022282D01*
X003613Y022273D01*
X003686Y022260D01*
X003758Y022243D01*
X003829Y022223D01*
X003899Y022198D01*
X003967Y022170D01*
X004034Y022139D01*
X004099Y022103D01*
X004162Y022065D01*
X004223Y022023D01*
X004282Y021977D01*
X004338Y021929D01*
X004391Y021878D01*
X004441Y021824D01*
X004489Y021767D01*
X004533Y021708D01*
X004575Y021646D01*
X004613Y021583D01*
X004647Y021517D01*
X004678Y021450D01*
X004705Y021381D01*
X004728Y021311D01*
X004748Y021240D01*
X004764Y021167D01*
X004776Y021094D01*
X004784Y021021D01*
X004788Y020947D01*
X004788Y020873D01*
X004784Y020799D01*
X004776Y020726D01*
X004764Y020653D01*
X004748Y020580D01*
X004728Y020509D01*
X004705Y020439D01*
X004678Y020370D01*
X004647Y020303D01*
X004613Y020237D01*
X004575Y020174D01*
X004533Y020112D01*
X004489Y020053D01*
X004441Y019996D01*
X004391Y019942D01*
X004338Y019891D01*
X004282Y019843D01*
X004223Y019797D01*
X004162Y019755D01*
X004099Y019717D01*
X004034Y019681D01*
X003967Y019650D01*
X003899Y019622D01*
X003829Y019597D01*
X003758Y019577D01*
X003686Y019560D01*
X003613Y019547D01*
X003539Y019538D01*
X003465Y019533D01*
X003392Y019532D01*
X003318Y019535D01*
X003244Y019542D01*
X003171Y019553D01*
X003098Y019568D01*
X003027Y019586D01*
X002956Y019609D01*
X002887Y019635D01*
X002819Y019665D01*
X002753Y019699D01*
X002689Y019736D01*
X002627Y019776D01*
X002567Y019820D01*
X002510Y019866D01*
X002455Y019916D01*
X002403Y019969D01*
X002354Y020024D01*
X002308Y020082D01*
X002266Y020143D01*
X002226Y020205D01*
X002190Y020270D01*
X002157Y020336D01*
X002128Y020404D01*
X002103Y020474D01*
X002081Y020544D01*
X002064Y020616D01*
X002050Y020689D01*
X002040Y020762D01*
X002034Y020836D01*
X002032Y020910D01*
X001749Y019830D02*
X001794Y019785D01*
X001794Y019695D01*
X001749Y019650D01*
X001614Y019650D01*
X001704Y019650D02*
X001794Y019560D01*
X001614Y019560D02*
X001614Y019830D01*
X001749Y019830D01*
X001499Y019830D02*
X001319Y019830D01*
X001319Y019560D01*
X001499Y019560D01*
X001409Y019695D02*
X001319Y019695D01*
X001204Y019560D02*
X001204Y019830D01*
X001024Y019830D02*
X001024Y019560D01*
X001114Y019650D01*
X001204Y019560D01*
X000910Y019605D02*
X000910Y019785D01*
X000865Y019830D01*
X000775Y019830D01*
X000730Y019785D01*
X000730Y019605D01*
X000775Y019560D01*
X000865Y019560D01*
X000910Y019605D01*
X000615Y019695D02*
X000570Y019650D01*
X000435Y019650D01*
X000435Y019560D02*
X000435Y019830D01*
X000570Y019830D01*
X000615Y019785D01*
X000615Y019695D01*
X001855Y015080D02*
X001945Y015080D01*
X001990Y015035D01*
X001810Y014855D01*
X001855Y014810D01*
X001945Y014810D01*
X001990Y014855D01*
X001990Y015035D01*
X001855Y015080D02*
X001810Y015035D01*
X001810Y014855D01*
X001900Y014080D02*
X001810Y013990D01*
X001900Y014080D02*
X001900Y013810D01*
X001810Y013810D02*
X001990Y013810D01*
X001945Y013080D02*
X001855Y013080D01*
X001810Y013035D01*
X001945Y013080D02*
X001990Y013035D01*
X001990Y012990D01*
X001810Y012810D01*
X001990Y012810D01*
X001945Y012080D02*
X001990Y012035D01*
X001990Y011990D01*
X001945Y011945D01*
X001990Y011900D01*
X001990Y011855D01*
X001945Y011810D01*
X001855Y011810D01*
X001810Y011855D01*
X001900Y011945D02*
X001945Y011945D01*
X001945Y012080D02*
X001855Y012080D01*
X001810Y012035D01*
X001945Y011080D02*
X001810Y010945D01*
X001990Y010945D01*
X001945Y010810D02*
X001945Y011080D01*
X001990Y010080D02*
X001810Y010080D01*
X001810Y009945D01*
X001900Y009990D01*
X001945Y009990D01*
X001990Y009945D01*
X001990Y009855D01*
X001945Y009810D01*
X001855Y009810D01*
X001810Y009855D01*
X001990Y009080D02*
X001900Y009035D01*
X001810Y008945D01*
X001945Y008945D01*
X001990Y008900D01*
X001990Y008855D01*
X001945Y008810D01*
X001855Y008810D01*
X001810Y008855D01*
X001810Y008945D01*
X001810Y008080D02*
X001990Y008080D01*
X001990Y008035D01*
X001810Y007855D01*
X001810Y007810D01*
X001855Y007080D02*
X001945Y007080D01*
X001990Y007035D01*
X001990Y006990D01*
X001945Y006945D01*
X001855Y006945D01*
X001810Y006990D01*
X001810Y007035D01*
X001855Y007080D01*
X001855Y006945D02*
X001810Y006900D01*
X001810Y006855D01*
X001855Y006810D01*
X001945Y006810D01*
X001990Y006855D01*
X001990Y006900D01*
X001945Y006945D01*
X001945Y006080D02*
X001855Y006080D01*
X001810Y006035D01*
X001810Y005990D01*
X001855Y005945D01*
X001990Y005945D01*
X001990Y005855D02*
X001990Y006035D01*
X001945Y006080D01*
X001990Y005855D02*
X001945Y005810D01*
X001855Y005810D01*
X001810Y005855D01*
X001900Y005080D02*
X001900Y004810D01*
X001810Y004810D02*
X001990Y004810D01*
X002105Y004855D02*
X002105Y005035D01*
X002150Y005080D01*
X002240Y005080D01*
X002285Y005035D01*
X002105Y004855D01*
X002150Y004810D01*
X002240Y004810D01*
X002285Y004855D01*
X002285Y005035D01*
X001900Y005080D02*
X001810Y004990D01*
X001900Y004080D02*
X001810Y003990D01*
X001900Y004080D02*
X001900Y003810D01*
X001810Y003810D02*
X001990Y003810D01*
X002105Y003810D02*
X002285Y003810D01*
X002195Y003810D02*
X002195Y004080D01*
X002105Y003990D01*
X002032Y001910D02*
X002034Y001984D01*
X002040Y002058D01*
X002050Y002131D01*
X002064Y002204D01*
X002081Y002276D01*
X002103Y002346D01*
X002128Y002416D01*
X002157Y002484D01*
X002190Y002550D01*
X002226Y002615D01*
X002266Y002677D01*
X002308Y002738D01*
X002354Y002796D01*
X002403Y002851D01*
X002455Y002904D01*
X002510Y002954D01*
X002567Y003000D01*
X002627Y003044D01*
X002689Y003084D01*
X002753Y003121D01*
X002819Y003155D01*
X002887Y003185D01*
X002956Y003211D01*
X003027Y003234D01*
X003098Y003252D01*
X003171Y003267D01*
X003244Y003278D01*
X003318Y003285D01*
X003392Y003288D01*
X003465Y003287D01*
X003539Y003282D01*
X003613Y003273D01*
X003686Y003260D01*
X003758Y003243D01*
X003829Y003223D01*
X003899Y003198D01*
X003967Y003170D01*
X004034Y003139D01*
X004099Y003103D01*
X004162Y003065D01*
X004223Y003023D01*
X004282Y002977D01*
X004338Y002929D01*
X004391Y002878D01*
X004441Y002824D01*
X004489Y002767D01*
X004533Y002708D01*
X004575Y002646D01*
X004613Y002583D01*
X004647Y002517D01*
X004678Y002450D01*
X004705Y002381D01*
X004728Y002311D01*
X004748Y002240D01*
X004764Y002167D01*
X004776Y002094D01*
X004784Y002021D01*
X004788Y001947D01*
X004788Y001873D01*
X004784Y001799D01*
X004776Y001726D01*
X004764Y001653D01*
X004748Y001580D01*
X004728Y001509D01*
X004705Y001439D01*
X004678Y001370D01*
X004647Y001303D01*
X004613Y001237D01*
X004575Y001174D01*
X004533Y001112D01*
X004489Y001053D01*
X004441Y000996D01*
X004391Y000942D01*
X004338Y000891D01*
X004282Y000843D01*
X004223Y000797D01*
X004162Y000755D01*
X004099Y000717D01*
X004034Y000681D01*
X003967Y000650D01*
X003899Y000622D01*
X003829Y000597D01*
X003758Y000577D01*
X003686Y000560D01*
X003613Y000547D01*
X003539Y000538D01*
X003465Y000533D01*
X003392Y000532D01*
X003318Y000535D01*
X003244Y000542D01*
X003171Y000553D01*
X003098Y000568D01*
X003027Y000586D01*
X002956Y000609D01*
X002887Y000635D01*
X002819Y000665D01*
X002753Y000699D01*
X002689Y000736D01*
X002627Y000776D01*
X002567Y000820D01*
X002510Y000866D01*
X002455Y000916D01*
X002403Y000969D01*
X002354Y001024D01*
X002308Y001082D01*
X002266Y001143D01*
X002226Y001205D01*
X002190Y001270D01*
X002157Y001336D01*
X002128Y001404D01*
X002103Y001474D01*
X002081Y001544D01*
X002064Y001616D01*
X002050Y001689D01*
X002040Y001762D01*
X002034Y001836D01*
X002032Y001910D01*
X006310Y008060D02*
X006490Y008060D01*
X006605Y008060D02*
X006785Y008060D01*
X006695Y008060D02*
X006695Y008330D01*
X006605Y008240D01*
X006310Y008330D02*
X006310Y008060D01*
X006196Y008990D02*
X006015Y008990D01*
X006196Y009170D01*
X006196Y009215D01*
X006150Y009260D01*
X006060Y009260D01*
X006015Y009215D01*
X005901Y009215D02*
X005856Y009260D01*
X005766Y009260D01*
X005721Y009215D01*
X005721Y009035D01*
X005766Y008990D01*
X005856Y008990D01*
X005901Y009035D01*
X004946Y009035D02*
X004900Y008990D01*
X004810Y008990D01*
X004765Y009035D01*
X004651Y009035D02*
X004606Y008990D01*
X004516Y008990D01*
X004471Y009035D01*
X004471Y009215D01*
X004516Y009260D01*
X004606Y009260D01*
X004651Y009215D01*
X004765Y009215D02*
X004810Y009260D01*
X004900Y009260D01*
X004946Y009215D01*
X004946Y009170D01*
X004900Y009125D01*
X004946Y009080D01*
X004946Y009035D01*
X004900Y009125D02*
X004855Y009125D01*
X003910Y011810D02*
X003730Y011810D01*
X003820Y011810D02*
X003820Y012080D01*
X003730Y011990D01*
X003615Y012035D02*
X003615Y012080D01*
X003615Y012035D02*
X003525Y011945D01*
X003525Y011810D01*
X003525Y011945D02*
X003435Y012035D01*
X003435Y012080D01*
X006346Y012535D02*
X006391Y012490D01*
X006481Y012490D01*
X006526Y012535D01*
X006640Y012625D02*
X006821Y012625D01*
X006775Y012490D02*
X006775Y012760D01*
X006640Y012625D01*
X006526Y012715D02*
X006481Y012760D01*
X006391Y012760D01*
X006346Y012715D01*
X006346Y012535D01*
X008721Y013740D02*
X008901Y013740D01*
X009015Y013740D02*
X009196Y013920D01*
X009196Y013965D01*
X009150Y014010D01*
X009060Y014010D01*
X009015Y013965D01*
X009015Y013740D02*
X009196Y013740D01*
X008721Y013740D02*
X008721Y014010D01*
X009014Y012542D02*
X009014Y012317D01*
X009059Y012272D01*
X009149Y012272D01*
X009194Y012317D01*
X009194Y012542D01*
X009309Y012452D02*
X009399Y012542D01*
X009399Y012272D01*
X009309Y012272D02*
X009489Y012272D01*
X010980Y013935D02*
X010935Y013980D01*
X010935Y014160D01*
X010980Y014205D01*
X011070Y014205D01*
X011115Y014160D01*
X011230Y014115D02*
X011320Y014205D01*
X011320Y013935D01*
X011230Y013935D02*
X011410Y013935D01*
X011115Y013980D02*
X011070Y013935D01*
X010980Y013935D01*
X005571Y015490D02*
X005390Y015490D01*
X005480Y015490D02*
X005480Y015760D01*
X005390Y015670D01*
X005276Y015625D02*
X005231Y015580D01*
X005096Y015580D01*
X005186Y015580D02*
X005276Y015490D01*
X005276Y015625D02*
X005276Y015715D01*
X005231Y015760D01*
X005096Y015760D01*
X005096Y015490D01*
X010650Y020980D02*
X010650Y021160D01*
X010560Y021070D02*
X010740Y021070D01*
X010855Y020980D02*
X010900Y020935D01*
X010990Y020935D01*
X011035Y020980D01*
X011035Y021025D01*
X010990Y021070D01*
X010945Y021070D01*
X010990Y021070D02*
X011035Y021115D01*
X011035Y021160D01*
X010990Y021205D01*
X010900Y021205D01*
X010855Y021160D01*
X011149Y021205D02*
X011149Y021025D01*
X011239Y020935D01*
X011329Y021025D01*
X011329Y021205D01*
X011444Y021160D02*
X011489Y021205D01*
X011579Y021205D01*
X011624Y021160D01*
X011624Y021115D01*
X011579Y021070D01*
X011624Y021025D01*
X011624Y020980D01*
X011579Y020935D01*
X011489Y020935D01*
X011444Y020980D01*
X011534Y021070D02*
X011579Y021070D01*
X013980Y008625D02*
X013980Y008580D01*
X013980Y008490D02*
X013980Y008310D01*
X013935Y008310D02*
X014025Y008310D01*
X014176Y008355D02*
X014176Y008535D01*
X014131Y008490D02*
X014222Y008490D01*
X014328Y008490D02*
X014418Y008490D01*
X014373Y008535D02*
X014373Y008355D01*
X014418Y008310D01*
X014524Y008310D02*
X014614Y008310D01*
X014569Y008310D02*
X014569Y008580D01*
X014524Y008580D01*
X014721Y008445D02*
X014721Y008355D01*
X014766Y008310D01*
X014856Y008310D01*
X014901Y008400D02*
X014721Y008400D01*
X014721Y008445D02*
X014766Y008490D01*
X014856Y008490D01*
X014901Y008445D01*
X014901Y008400D01*
X014856Y007865D02*
X014766Y007865D01*
X014721Y007820D01*
X014721Y007730D01*
X014766Y007685D01*
X014856Y007685D01*
X014901Y007775D02*
X014721Y007775D01*
X014606Y007685D02*
X014471Y007685D01*
X014426Y007730D01*
X014426Y007820D01*
X014471Y007865D01*
X014606Y007865D01*
X014856Y007865D02*
X014901Y007820D01*
X014901Y007775D01*
X015310Y007730D02*
X015355Y007685D01*
X015445Y007685D01*
X015490Y007730D01*
X015490Y007820D01*
X015445Y007865D01*
X015355Y007865D01*
X015310Y007820D01*
X015310Y007730D01*
X015605Y007820D02*
X015695Y007820D01*
X015650Y007910D02*
X015695Y007955D01*
X015650Y007910D02*
X015650Y007685D01*
X015396Y007240D02*
X015261Y007240D01*
X015261Y007060D01*
X015146Y007150D02*
X014966Y007150D01*
X014966Y007105D02*
X014966Y007195D01*
X015011Y007240D01*
X015101Y007240D01*
X015146Y007195D01*
X015146Y007150D01*
X015101Y007060D02*
X015011Y007060D01*
X014966Y007105D01*
X014856Y007060D02*
X014721Y007150D01*
X014856Y007240D01*
X014721Y007330D02*
X014721Y007060D01*
X014606Y007060D02*
X014471Y007060D01*
X014426Y007105D01*
X014426Y007195D01*
X014471Y007240D01*
X014606Y007240D01*
X014275Y007240D02*
X014275Y007060D01*
X014230Y007060D02*
X014320Y007060D01*
X014275Y007240D02*
X014230Y007240D01*
X014275Y007330D02*
X014275Y007375D01*
X014115Y007195D02*
X014115Y007060D01*
X014115Y007195D02*
X014070Y007240D01*
X013980Y007240D01*
X013935Y007195D01*
X013935Y007330D02*
X013935Y007060D01*
X013820Y006830D02*
X013820Y006560D01*
X013730Y006560D02*
X013910Y006560D01*
X014024Y006560D02*
X014069Y006560D01*
X014069Y006605D01*
X014024Y006605D01*
X014024Y006560D01*
X014172Y006605D02*
X014352Y006785D01*
X014352Y006605D01*
X014307Y006560D01*
X014217Y006560D01*
X014172Y006605D01*
X014172Y006785D01*
X014217Y006830D01*
X014307Y006830D01*
X014352Y006785D01*
X014159Y006330D02*
X014024Y006330D01*
X014024Y006060D01*
X014159Y006060D01*
X014204Y006105D01*
X014204Y006150D01*
X014159Y006195D01*
X014024Y006195D01*
X014159Y006195D02*
X014204Y006240D01*
X014204Y006285D01*
X014159Y006330D01*
X013910Y006330D02*
X013910Y006060D01*
X013730Y006060D02*
X013730Y006330D01*
X013820Y006240D01*
X013910Y006330D01*
X013615Y006330D02*
X013435Y006330D01*
X013525Y006330D02*
X013525Y006060D01*
X013435Y005830D02*
X013435Y005695D01*
X013525Y005740D01*
X013570Y005740D01*
X013615Y005695D01*
X013615Y005605D01*
X013570Y005560D01*
X013480Y005560D01*
X013435Y005605D01*
X013435Y005830D02*
X013615Y005830D01*
X013730Y005560D02*
X013910Y005830D01*
X014024Y005740D02*
X014114Y005830D01*
X014114Y005560D01*
X014024Y005560D02*
X014204Y005560D01*
X014319Y005560D02*
X014319Y005605D01*
X014499Y005785D01*
X014499Y005830D01*
X014319Y005830D01*
X013525Y006560D02*
X013615Y006740D01*
X013730Y006740D02*
X013820Y006830D01*
X013435Y006740D02*
X013525Y006560D01*
X013935Y007685D02*
X014025Y007685D01*
X013980Y007685D02*
X013980Y007865D01*
X013935Y007865D01*
X013980Y007955D02*
X013980Y008000D01*
X014131Y007820D02*
X014176Y007865D01*
X014267Y007865D01*
X014312Y007820D01*
X014312Y007775D01*
X014131Y007775D01*
X014131Y007730D02*
X014131Y007820D01*
X014131Y007730D02*
X014176Y007685D01*
X014267Y007685D01*
X014222Y008310D02*
X014176Y008355D01*
X013980Y008490D02*
X013935Y008490D01*
X015396Y007240D02*
X015441Y007195D01*
X015441Y007060D01*
D14*
X013769Y007158D02*
X013690Y007080D01*
X013533Y007080D01*
X013455Y007158D01*
X013455Y007472D01*
X013533Y007550D01*
X013690Y007550D01*
X013769Y007472D01*
X013455Y007705D02*
X013455Y008175D01*
X013690Y008175D01*
X013769Y008097D01*
X013769Y007940D01*
X013690Y007862D01*
X013455Y007862D01*
X013455Y008330D02*
X013769Y008330D01*
X013455Y008330D02*
X013455Y008800D01*
D15*
X013160Y009035D02*
X015035Y009035D01*
X015910Y008160D01*
X015910Y005285D01*
X013160Y005285D01*
X013160Y009035D01*
D16*
X007910Y014410D02*
X006410Y014410D01*
X006160Y014660D01*
X006160Y015160D01*
X006410Y015410D01*
X007910Y015410D01*
X008160Y015160D01*
X008160Y014660D01*
X007910Y014410D01*
X007910Y015410D02*
X008160Y015660D01*
X008160Y016160D01*
X007910Y016410D01*
X006410Y016410D01*
X006160Y016160D01*
X006160Y015660D01*
X006410Y015410D01*
X006410Y016410D02*
X006160Y016660D01*
X006160Y017160D01*
X006410Y017410D01*
X007910Y017410D01*
X008160Y017160D01*
X008160Y016660D01*
X007910Y016410D01*
X006860Y011560D02*
X004460Y011560D01*
X004410Y011558D01*
X004361Y011552D01*
X004312Y011543D01*
X004264Y011530D01*
X004217Y011513D01*
X004172Y011493D01*
X004128Y011469D01*
X004086Y011442D01*
X004046Y011411D01*
X004009Y011378D01*
X003975Y011342D01*
X003943Y011304D01*
X003914Y011263D01*
X003889Y011221D01*
X003867Y011176D01*
X003848Y011130D01*
X003833Y011082D01*
X003822Y011034D01*
X003814Y010985D01*
X003810Y010935D01*
X003810Y010885D01*
X003814Y010835D01*
X003822Y010786D01*
X003833Y010738D01*
X003848Y010690D01*
X003867Y010644D01*
X003889Y010599D01*
X003914Y010557D01*
X003943Y010516D01*
X003975Y010478D01*
X004009Y010442D01*
X004046Y010409D01*
X004086Y010378D01*
X004128Y010351D01*
X004172Y010327D01*
X004217Y010307D01*
X004264Y010290D01*
X004312Y010277D01*
X004361Y010268D01*
X004410Y010262D01*
X004460Y010260D01*
X006860Y010260D01*
X006910Y010262D01*
X006959Y010268D01*
X007008Y010277D01*
X007056Y010290D01*
X007103Y010307D01*
X007148Y010327D01*
X007192Y010351D01*
X007234Y010378D01*
X007274Y010409D01*
X007311Y010442D01*
X007345Y010478D01*
X007377Y010516D01*
X007406Y010557D01*
X007431Y010599D01*
X007453Y010644D01*
X007472Y010690D01*
X007487Y010738D01*
X007498Y010786D01*
X007506Y010835D01*
X007510Y010885D01*
X007510Y010935D01*
X007506Y010985D01*
X007498Y011034D01*
X007487Y011082D01*
X007472Y011130D01*
X007453Y011176D01*
X007431Y011221D01*
X007406Y011263D01*
X007377Y011304D01*
X007345Y011342D01*
X007311Y011378D01*
X007274Y011411D01*
X007234Y011442D01*
X007192Y011469D01*
X007148Y011493D01*
X007103Y011513D01*
X007056Y011530D01*
X007008Y011543D01*
X006959Y011552D01*
X006910Y011558D01*
X006860Y011560D01*
X006160Y010910D02*
X005910Y010910D01*
X005910Y011210D01*
X005760Y011210D02*
X005760Y010610D01*
X005560Y010610D01*
X005560Y011210D01*
X005760Y011210D01*
X005910Y010910D02*
X005910Y010610D01*
X005410Y010610D02*
X005410Y010910D01*
X005160Y010910D01*
X005410Y010910D02*
X005410Y011210D01*
X001410Y011160D02*
X001410Y010660D01*
X001160Y010410D01*
X000660Y010410D01*
X000410Y010660D01*
X000410Y011160D01*
X000660Y011410D01*
X000410Y011660D01*
X000410Y012160D01*
X000660Y012410D01*
X000410Y012660D01*
X000410Y013160D01*
X000660Y013410D01*
X000410Y013660D01*
X000410Y014160D01*
X000660Y014410D01*
X000410Y014660D01*
X000410Y015160D01*
X000660Y015410D01*
X001160Y015410D01*
X001410Y015160D01*
X001410Y014660D01*
X001160Y014410D01*
X001410Y014160D01*
X001410Y013660D01*
X001160Y013410D01*
X000660Y013410D01*
X001160Y013410D02*
X001410Y013160D01*
X001410Y012660D01*
X001160Y012410D01*
X001410Y012160D01*
X001410Y011660D01*
X001160Y011410D01*
X001410Y011160D01*
X001160Y011410D02*
X000660Y011410D01*
X000660Y012410D02*
X001160Y012410D01*
X001160Y014410D02*
X000660Y014410D01*
X000660Y017410D02*
X000410Y017660D01*
X000410Y018160D01*
X000660Y018410D01*
X000410Y018660D01*
X000410Y019160D01*
X000660Y019410D01*
X001160Y019410D01*
X001410Y019160D01*
X001410Y018660D01*
X001160Y018410D01*
X001410Y018160D01*
X001410Y017660D01*
X001160Y017410D01*
X000660Y017410D01*
X000660Y018410D02*
X001160Y018410D01*
X005660Y021660D02*
X005910Y021410D01*
X006410Y021410D01*
X006660Y021660D01*
X006910Y021410D01*
X007410Y021410D01*
X007660Y021660D01*
X007660Y022160D01*
X007410Y022410D01*
X006910Y022410D01*
X006660Y022160D01*
X006660Y021660D01*
X006660Y022160D02*
X006410Y022410D01*
X005910Y022410D01*
X005660Y022160D01*
X005660Y021660D01*
X010160Y021660D02*
X010410Y021410D01*
X010910Y021410D01*
X011160Y021660D01*
X011410Y021410D01*
X011910Y021410D01*
X012160Y021660D01*
X012160Y022160D01*
X011910Y022410D01*
X011410Y022410D01*
X011160Y022160D01*
X011160Y021660D01*
X011160Y022160D02*
X010910Y022410D01*
X010410Y022410D01*
X010160Y022160D01*
X010160Y021660D01*
X013160Y021660D02*
X013160Y022160D01*
X013410Y022410D01*
X013910Y022410D01*
X014160Y022160D01*
X014410Y022410D01*
X014910Y022410D01*
X015160Y022160D01*
X015410Y022410D01*
X015910Y022410D01*
X016160Y022160D01*
X016410Y022410D01*
X016910Y022410D01*
X017160Y022160D01*
X017160Y021660D01*
X016910Y021410D01*
X016410Y021410D01*
X016160Y021660D01*
X015910Y021410D01*
X015410Y021410D01*
X015160Y021660D01*
X015160Y022160D01*
X015160Y021660D02*
X014910Y021410D01*
X014410Y021410D01*
X014160Y021660D01*
X013910Y021410D01*
X013410Y021410D01*
X013160Y021660D01*
X014160Y021660D02*
X014160Y022160D01*
X016160Y022160D02*
X016160Y021660D01*
X021410Y021660D02*
X021660Y021410D01*
X022160Y021410D01*
X022410Y021660D01*
X022410Y022160D01*
X022160Y022410D01*
X021660Y022410D01*
X021410Y022160D01*
X021410Y021660D01*
X021660Y021410D02*
X021410Y021160D01*
X021410Y020660D01*
X021660Y020410D01*
X022160Y020410D01*
X022410Y020660D01*
X022410Y021160D01*
X022160Y021410D01*
X022160Y020410D02*
X022410Y020160D01*
X022410Y019660D01*
X022160Y019410D01*
X022410Y019160D01*
X022410Y018660D01*
X022160Y018410D01*
X022410Y018160D01*
X022410Y017660D01*
X022160Y017410D01*
X022410Y017160D01*
X022410Y016660D01*
X022160Y016410D01*
X021660Y016410D01*
X021410Y016660D01*
X021410Y017160D01*
X021660Y017410D01*
X021410Y017660D01*
X021410Y018160D01*
X021660Y018410D01*
X022160Y018410D01*
X021660Y018410D02*
X021410Y018660D01*
X021410Y019160D01*
X021660Y019410D01*
X021410Y019660D01*
X021410Y020160D01*
X021660Y020410D01*
X021660Y019410D02*
X022160Y019410D01*
X022160Y017410D02*
X021660Y017410D01*
X021660Y015410D02*
X022160Y015410D01*
X022410Y015160D01*
X022410Y014660D01*
X022160Y014410D01*
X022410Y014160D01*
X022410Y013660D01*
X022160Y013410D01*
X022410Y013160D01*
X022410Y012660D01*
X022160Y012410D01*
X022410Y012160D01*
X022410Y011660D01*
X022160Y011410D01*
X022410Y011160D01*
X022410Y010660D01*
X022160Y010410D01*
X022410Y010160D01*
X022410Y009660D01*
X022160Y009410D01*
X022410Y009160D01*
X022410Y008660D01*
X022160Y008410D01*
X022410Y008160D01*
X022410Y007660D01*
X022160Y007410D01*
X022410Y007160D01*
X022410Y006660D01*
X022160Y006410D01*
X022410Y006160D01*
X022410Y005660D01*
X022160Y005410D01*
X022410Y005160D01*
X022410Y004660D01*
X022160Y004410D01*
X022410Y004160D01*
X022410Y003660D01*
X022160Y003410D01*
X021660Y003410D01*
X021410Y003660D01*
X021410Y004160D01*
X021660Y004410D01*
X021410Y004660D01*
X021410Y005160D01*
X021660Y005410D01*
X022160Y005410D01*
X021660Y005410D02*
X021410Y005660D01*
X021410Y006160D01*
X021660Y006410D01*
X021410Y006660D01*
X021410Y007160D01*
X021660Y007410D01*
X021410Y007660D01*
X021410Y008160D01*
X021660Y008410D01*
X022160Y008410D01*
X021660Y008410D02*
X021410Y008660D01*
X021410Y009160D01*
X021660Y009410D01*
X021410Y009660D01*
X021410Y010160D01*
X021660Y010410D01*
X021410Y010660D01*
X021410Y011160D01*
X021660Y011410D01*
X022160Y011410D01*
X021660Y011410D02*
X021410Y011660D01*
X021410Y012160D01*
X021660Y012410D01*
X021410Y012660D01*
X021410Y013160D01*
X021660Y013410D01*
X021410Y013660D01*
X021410Y014160D01*
X021660Y014410D01*
X021410Y014660D01*
X021410Y015160D01*
X021660Y015410D01*
X021660Y014410D02*
X022160Y014410D01*
X022160Y013410D02*
X021660Y013410D01*
X021660Y012410D02*
X022160Y012410D01*
X022160Y010410D02*
X021660Y010410D01*
X021660Y009410D02*
X022160Y009410D01*
X022160Y007410D02*
X021660Y007410D01*
X021660Y006410D02*
X022160Y006410D01*
X022160Y004410D02*
X021660Y004410D01*
X017410Y001160D02*
X017410Y000660D01*
X017160Y000410D01*
X016660Y000410D01*
X016410Y000660D01*
X016160Y000410D01*
X015660Y000410D01*
X015410Y000660D01*
X015160Y000410D01*
X014660Y000410D01*
X014410Y000660D01*
X014160Y000410D01*
X013660Y000410D01*
X013410Y000660D01*
X013160Y000410D01*
X012660Y000410D01*
X012410Y000660D01*
X012160Y000410D01*
X011660Y000410D01*
X011410Y000660D01*
X011160Y000410D01*
X010660Y000410D01*
X010410Y000660D01*
X010160Y000410D01*
X009660Y000410D01*
X009410Y000660D01*
X009160Y000410D01*
X008660Y000410D01*
X008410Y000660D01*
X008160Y000410D01*
X007660Y000410D01*
X007410Y000660D01*
X007160Y000410D01*
X006660Y000410D01*
X006410Y000660D01*
X006160Y000410D01*
X005660Y000410D01*
X005410Y000660D01*
X005410Y001160D01*
X005660Y001410D01*
X006160Y001410D01*
X006410Y001160D01*
X006660Y001410D01*
X007160Y001410D01*
X007410Y001160D01*
X007410Y000660D01*
X007410Y001160D02*
X007660Y001410D01*
X008160Y001410D01*
X008410Y001160D01*
X008660Y001410D01*
X009160Y001410D01*
X009410Y001160D01*
X009660Y001410D01*
X010160Y001410D01*
X010410Y001160D01*
X010410Y000660D01*
X010410Y001160D02*
X010660Y001410D01*
X011160Y001410D01*
X011410Y001160D01*
X011660Y001410D01*
X012160Y001410D01*
X012410Y001160D01*
X012660Y001410D01*
X013160Y001410D01*
X013410Y001160D01*
X013410Y000660D01*
X013410Y001160D02*
X013660Y001410D01*
X014160Y001410D01*
X014410Y001160D01*
X014660Y001410D01*
X015160Y001410D01*
X015410Y001160D01*
X015660Y001410D01*
X016160Y001410D01*
X016410Y001160D01*
X016660Y001410D01*
X017160Y001410D01*
X017410Y001160D01*
X016410Y001160D02*
X016410Y000660D01*
X015410Y000660D02*
X015410Y001160D01*
X014410Y001160D02*
X014410Y000660D01*
X012410Y000660D02*
X012410Y001160D01*
X011410Y001160D02*
X011410Y000660D01*
X009410Y000660D02*
X009410Y001160D01*
X008410Y001160D02*
X008410Y000660D01*
X006410Y000660D02*
X006410Y001160D01*
X001410Y003660D02*
X001160Y003410D01*
X000660Y003410D01*
X000410Y003660D01*
X000410Y004160D01*
X000660Y004410D01*
X000410Y004660D01*
X000410Y005160D01*
X000660Y005410D01*
X000410Y005660D01*
X000410Y006160D01*
X000660Y006410D01*
X000410Y006660D01*
X000410Y007160D01*
X000660Y007410D01*
X000410Y007660D01*
X000410Y008160D01*
X000660Y008410D01*
X000410Y008660D01*
X000410Y009160D01*
X000660Y009410D01*
X000410Y009660D01*
X000410Y010160D01*
X000660Y010410D01*
X001160Y010410D02*
X001410Y010160D01*
X001410Y009660D01*
X001160Y009410D01*
X001410Y009160D01*
X001410Y008660D01*
X001160Y008410D01*
X001410Y008160D01*
X001410Y007660D01*
X001160Y007410D01*
X000660Y007410D01*
X001160Y007410D02*
X001410Y007160D01*
X001410Y006660D01*
X001160Y006410D01*
X001410Y006160D01*
X001410Y005660D01*
X001160Y005410D01*
X001410Y005160D01*
X001410Y004660D01*
X001160Y004410D01*
X001410Y004160D01*
X001410Y003660D01*
X001160Y004410D02*
X000660Y004410D01*
X000660Y005410D02*
X001160Y005410D01*
X001160Y006410D02*
X000660Y006410D01*
X000660Y008410D02*
X001160Y008410D01*
X001160Y009410D02*
X000660Y009410D01*
D17*
X000670Y015670D02*
X000670Y016090D01*
X000880Y016090D01*
X000950Y016020D01*
X000950Y015880D01*
X000880Y015810D01*
X000670Y015810D01*
X001130Y015670D02*
X001271Y015670D01*
X001200Y015670D02*
X001200Y016090D01*
X001130Y016090D02*
X001271Y016090D01*
X001437Y016020D02*
X001437Y015740D01*
X001507Y015670D01*
X001648Y015670D01*
X001718Y015740D01*
X001718Y016020D01*
X001648Y016090D01*
X001507Y016090D01*
X001437Y016020D01*
X001898Y016020D02*
X001898Y015740D01*
X002178Y016020D01*
X002178Y015740D01*
X002108Y015670D01*
X001968Y015670D01*
X001898Y015740D01*
X001898Y016020D02*
X001968Y016090D01*
X002108Y016090D01*
X002178Y016020D01*
X007620Y019210D02*
X007620Y020610D01*
X010200Y020610D01*
X010200Y019210D01*
X007620Y019210D01*
X008979Y011459D02*
X008861Y011341D01*
X008861Y008979D01*
X008979Y008861D01*
X011341Y008861D01*
X011459Y008979D01*
X011459Y011341D01*
X011341Y011459D01*
X008979Y011459D01*
X007233Y002715D02*
X007093Y002715D01*
X007023Y002645D01*
X006843Y002645D02*
X006843Y002365D01*
X006773Y002295D01*
X006632Y002295D01*
X006562Y002365D01*
X006562Y002645D01*
X006632Y002715D01*
X006773Y002715D01*
X006843Y002645D01*
X007023Y002295D02*
X007303Y002575D01*
X007303Y002645D01*
X007233Y002715D01*
X007303Y002295D02*
X007023Y002295D01*
X006396Y002295D02*
X006255Y002295D01*
X006325Y002295D02*
X006325Y002715D01*
X006255Y002715D02*
X006396Y002715D01*
X006075Y002645D02*
X006075Y002505D01*
X006005Y002435D01*
X005795Y002435D01*
X005795Y002295D02*
X005795Y002715D01*
X006005Y002715D01*
X006075Y002645D01*
X018825Y006825D02*
X018825Y007245D01*
X019035Y007245D01*
X019105Y007175D01*
X019105Y007035D01*
X019035Y006965D01*
X018825Y006965D01*
X019285Y006825D02*
X019426Y006825D01*
X019355Y006825D02*
X019355Y007245D01*
X019285Y007245D02*
X019426Y007245D01*
X019592Y007175D02*
X019592Y006895D01*
X019662Y006825D01*
X019803Y006825D01*
X019873Y006895D01*
X019873Y007175D01*
X019803Y007245D01*
X019662Y007245D01*
X019592Y007175D01*
X020053Y007105D02*
X020193Y007245D01*
X020193Y006825D01*
X020053Y006825D02*
X020333Y006825D01*
X020263Y016825D02*
X020123Y016825D01*
X020053Y016895D01*
X019873Y016895D02*
X019873Y017175D01*
X019803Y017245D01*
X019662Y017245D01*
X019592Y017175D01*
X019592Y016895D01*
X019662Y016825D01*
X019803Y016825D01*
X019873Y016895D01*
X020053Y017175D02*
X020123Y017245D01*
X020263Y017245D01*
X020333Y017175D01*
X020333Y017105D01*
X020263Y017035D01*
X020333Y016965D01*
X020333Y016895D01*
X020263Y016825D01*
X020263Y017035D02*
X020193Y017035D01*
X019426Y016825D02*
X019285Y016825D01*
X019355Y016825D02*
X019355Y017245D01*
X019285Y017245D02*
X019426Y017245D01*
X019105Y017175D02*
X019105Y017035D01*
X019035Y016965D01*
X018825Y016965D01*
X018825Y016825D02*
X018825Y017245D01*
X019035Y017245D01*
X019105Y017175D01*
D18*
X009136Y011085D02*
X009138Y011103D01*
X009144Y011119D01*
X009153Y011134D01*
X009166Y011147D01*
X009181Y011156D01*
X009197Y011162D01*
X009215Y011164D01*
X009233Y011162D01*
X009249Y011156D01*
X009264Y011147D01*
X009277Y011134D01*
X009286Y011119D01*
X009292Y011103D01*
X009294Y011085D01*
X009292Y011067D01*
X009286Y011051D01*
X009277Y011036D01*
X009264Y011023D01*
X009249Y011014D01*
X009233Y011008D01*
X009215Y011006D01*
X009197Y011008D01*
X009181Y011014D01*
X009166Y011023D01*
X009153Y011036D01*
X009144Y011051D01*
X009138Y011067D01*
X009136Y011085D01*
M02*
