G75*
G70*
%OFA0B0*%
%FSLAX24Y24*%
%IPPOS*%
%LPD*%
%AMOC8*
5,1,8,0,0,1.08239X$1,22.5*
%
%ADD10OC8,0.0620*%
%ADD11C,0.0540*%
%ADD12C,0.0620*%
%ADD13C,0.1398*%
%ADD14C,0.0300*%
%ADD15R,0.0416X0.0416*%
D10*
X006660Y014910D03*
X006660Y015910D03*
X007660Y015910D03*
X007660Y014910D03*
X007660Y016910D03*
X006660Y016910D03*
D11*
X006610Y010910D03*
X004710Y010910D03*
D12*
X001210Y010910D02*
X000610Y010910D01*
X000610Y009910D02*
X001210Y009910D01*
X001210Y008910D02*
X000610Y008910D01*
X000610Y007910D02*
X001210Y007910D01*
X001210Y006910D02*
X000610Y006910D01*
X000610Y005910D02*
X001210Y005910D01*
X001210Y004910D02*
X000610Y004910D01*
X000610Y003910D02*
X001210Y003910D01*
X005910Y001210D02*
X005910Y000610D01*
X006910Y000610D02*
X006910Y001210D01*
X007910Y001210D02*
X007910Y000610D01*
X008910Y000610D02*
X008910Y001210D01*
X009910Y001210D02*
X009910Y000610D01*
X010910Y000610D02*
X010910Y001210D01*
X011910Y001210D02*
X011910Y000610D01*
X012910Y000610D02*
X012910Y001210D01*
X013910Y001210D02*
X013910Y000610D01*
X014910Y000610D02*
X014910Y001210D01*
X015910Y001210D02*
X015910Y000610D01*
X016910Y000610D02*
X016910Y001210D01*
X021610Y003910D02*
X022210Y003910D01*
X022210Y004910D02*
X021610Y004910D01*
X021610Y005910D02*
X022210Y005910D01*
X022210Y006910D02*
X021610Y006910D01*
X021610Y007910D02*
X022210Y007910D01*
X022210Y008910D02*
X021610Y008910D01*
X021610Y009910D02*
X022210Y009910D01*
X022210Y010910D02*
X021610Y010910D01*
X021610Y011910D02*
X022210Y011910D01*
X022210Y012910D02*
X021610Y012910D01*
X021610Y013910D02*
X022210Y013910D01*
X022210Y014910D02*
X021610Y014910D01*
X021610Y016910D02*
X022210Y016910D01*
X022210Y017910D02*
X021610Y017910D01*
X021610Y018910D02*
X022210Y018910D01*
X022210Y019910D02*
X021610Y019910D01*
X021610Y020910D02*
X022210Y020910D01*
X022210Y021910D02*
X021610Y021910D01*
X016660Y022210D02*
X016660Y021610D01*
X015660Y021610D02*
X015660Y022210D01*
X014660Y022210D02*
X014660Y021610D01*
X013660Y021610D02*
X013660Y022210D01*
X011660Y022210D02*
X011660Y021610D01*
X010660Y021610D02*
X010660Y022210D01*
X007160Y022210D02*
X007160Y021610D01*
X006160Y021610D02*
X006160Y022210D01*
X001210Y018910D02*
X000610Y018910D01*
X000610Y017910D02*
X001210Y017910D01*
X001210Y014910D02*
X000610Y014910D01*
X000610Y013910D02*
X001210Y013910D01*
X001210Y012910D02*
X000610Y012910D01*
X000610Y011910D02*
X001210Y011910D01*
D13*
X003410Y001910D03*
X019410Y001910D03*
X019410Y020910D03*
X003410Y020910D03*
D14*
X005785Y019160D03*
X005785Y018660D03*
X008410Y019910D03*
X008910Y019910D03*
X009410Y019910D03*
X010660Y020660D03*
X011160Y020660D03*
X011660Y020660D03*
X008910Y021910D03*
X010160Y017035D03*
X010535Y016285D03*
X010160Y015910D03*
X010535Y015535D03*
X010160Y015160D03*
X010410Y014660D03*
X009160Y015160D03*
X008285Y013035D03*
X007660Y012785D03*
X008035Y011910D03*
X008535Y012035D03*
X009410Y010160D03*
X010910Y010160D03*
X012910Y011660D03*
X012410Y012348D03*
X014785Y013660D03*
X015535Y013410D03*
X015160Y012285D03*
X015910Y012285D03*
X014910Y010660D03*
X015535Y010160D03*
X016035Y009785D03*
X014535Y009785D03*
X014160Y009535D03*
X013785Y009285D03*
X012910Y008285D03*
X012285Y007535D03*
X012035Y007035D03*
X011660Y006535D03*
X011348Y006223D03*
X010910Y007035D03*
X010585Y007285D03*
X010285Y007535D03*
X009985Y006985D03*
X009535Y007035D03*
X009160Y006035D03*
X009535Y005785D03*
X009910Y006035D03*
X008410Y008160D03*
X008660Y008535D03*
X007473Y007785D03*
X005660Y007785D03*
X004410Y009660D03*
X005410Y012160D03*
X006410Y013035D03*
X007710Y009585D03*
X004660Y005785D03*
X005285Y003785D03*
X006410Y003785D03*
X007410Y003785D03*
X007660Y005410D03*
X010285Y003410D03*
X010660Y003160D03*
X011160Y003410D03*
X013035Y003910D03*
X013410Y003535D03*
X014285Y003535D03*
X014785Y004160D03*
X014410Y004535D03*
X014035Y004785D03*
X013660Y005035D03*
X016285Y007285D03*
X016785Y006535D03*
X017285Y005910D03*
X017160Y003535D03*
X019535Y004410D03*
X020035Y003785D03*
X017785Y009660D03*
X020035Y011910D03*
X019660Y012910D03*
X018035Y012285D03*
X018410Y015910D03*
X016285Y016285D03*
X015535Y016660D03*
X015910Y017160D03*
X015160Y017910D03*
X014785Y018410D03*
X014410Y018910D03*
X013785Y017035D03*
X014410Y015535D03*
X017285Y019410D03*
X016785Y019910D03*
X001410Y017160D03*
X000910Y017160D03*
D15*
X005910Y008660D03*
M02*
