G75*
G70*
%OFA0B0*%
%FSLAX24Y24*%
%IPPOS*%
%LPD*%
%AMOC8*
5,1,8,0,0,1.08239X$1,22.5*
%
%ADD10C,0.0080*%
%ADD11OC8,0.0600*%
%ADD12C,0.0520*%
%ADD13C,0.0600*%
%ADD14C,0.0280*%
%ADD15R,0.0396X0.0396*%
%ADD16C,0.0160*%
D10*
X000350Y000350D02*
X000350Y003548D01*
X000361Y003537D01*
X000522Y003470D01*
X001298Y003470D01*
X001459Y003537D01*
X001583Y003661D01*
X001650Y003822D01*
X001650Y003998D01*
X001583Y004159D01*
X001459Y004283D01*
X001298Y004350D01*
X000522Y004350D01*
X000361Y004283D01*
X000350Y004272D01*
X000350Y004548D01*
X000361Y004537D01*
X000522Y004470D01*
X001298Y004470D01*
X001459Y004537D01*
X001583Y004661D01*
X001650Y004822D01*
X001650Y004998D01*
X001583Y005159D01*
X001459Y005283D01*
X001298Y005350D01*
X000522Y005350D01*
X000361Y005283D01*
X000350Y005272D01*
X000350Y005548D01*
X000361Y005537D01*
X000522Y005470D01*
X001298Y005470D01*
X001459Y005537D01*
X001583Y005661D01*
X001650Y005822D01*
X001650Y005998D01*
X001583Y006159D01*
X001459Y006283D01*
X006980Y006283D01*
X006980Y006235D02*
X005835Y005090D01*
X005730Y004985D01*
X005730Y001612D01*
X005661Y001583D01*
X005537Y001459D01*
X005470Y001298D01*
X005470Y000522D01*
X005537Y000361D01*
X005548Y000350D01*
X000350Y000350D01*
X000350Y000396D02*
X005523Y000396D01*
X005490Y000474D02*
X000350Y000474D01*
X000350Y000553D02*
X005470Y000553D01*
X005470Y000631D02*
X000350Y000631D01*
X000350Y000710D02*
X005470Y000710D01*
X005470Y000788D02*
X000350Y000788D01*
X000350Y000867D02*
X005470Y000867D01*
X005470Y000945D02*
X000350Y000945D01*
X000350Y001024D02*
X005470Y001024D01*
X005470Y001102D02*
X003756Y001102D01*
X003908Y001165D02*
X004155Y001412D01*
X004289Y001735D01*
X004289Y002085D01*
X004155Y002408D01*
X003908Y002655D01*
X003585Y002789D01*
X003235Y002789D01*
X002912Y002655D01*
X002665Y002408D01*
X002531Y002085D01*
X002531Y001735D01*
X002665Y001412D01*
X002912Y001165D01*
X003235Y001031D01*
X003585Y001031D01*
X003908Y001165D01*
X003924Y001181D02*
X005470Y001181D01*
X005470Y001259D02*
X004002Y001259D01*
X004081Y001338D02*
X005487Y001338D01*
X005519Y001416D02*
X004157Y001416D01*
X004189Y001495D02*
X005572Y001495D01*
X005651Y001573D02*
X004222Y001573D01*
X004254Y001652D02*
X005730Y001652D01*
X005730Y001730D02*
X004287Y001730D01*
X004289Y001809D02*
X005730Y001809D01*
X005730Y001887D02*
X004289Y001887D01*
X004289Y001966D02*
X005730Y001966D01*
X005730Y002044D02*
X004289Y002044D01*
X004273Y002123D02*
X005730Y002123D01*
X005730Y002201D02*
X004241Y002201D01*
X004208Y002280D02*
X005730Y002280D01*
X005730Y002358D02*
X004176Y002358D01*
X004127Y002437D02*
X005730Y002437D01*
X005730Y002515D02*
X004048Y002515D01*
X003970Y002594D02*
X005730Y002594D01*
X005730Y002672D02*
X003867Y002672D01*
X003678Y002751D02*
X005730Y002751D01*
X005730Y002829D02*
X000350Y002829D01*
X000350Y002751D02*
X003142Y002751D01*
X002953Y002672D02*
X000350Y002672D01*
X000350Y002594D02*
X002850Y002594D01*
X002772Y002515D02*
X000350Y002515D01*
X000350Y002437D02*
X002693Y002437D01*
X002644Y002358D02*
X000350Y002358D01*
X000350Y002280D02*
X002612Y002280D01*
X002579Y002201D02*
X000350Y002201D01*
X000350Y002123D02*
X002547Y002123D01*
X002531Y002044D02*
X000350Y002044D01*
X000350Y001966D02*
X002531Y001966D01*
X002531Y001887D02*
X000350Y001887D01*
X000350Y001809D02*
X002531Y001809D01*
X002533Y001730D02*
X000350Y001730D01*
X000350Y001652D02*
X002566Y001652D01*
X002598Y001573D02*
X000350Y001573D01*
X000350Y001495D02*
X002631Y001495D01*
X002663Y001416D02*
X000350Y001416D01*
X000350Y001338D02*
X002739Y001338D01*
X002818Y001259D02*
X000350Y001259D01*
X000350Y001181D02*
X002896Y001181D01*
X003064Y001102D02*
X000350Y001102D01*
X000350Y002908D02*
X005730Y002908D01*
X005730Y002986D02*
X000350Y002986D01*
X000350Y003065D02*
X005730Y003065D01*
X005730Y003143D02*
X000350Y003143D01*
X000350Y003222D02*
X005730Y003222D01*
X005730Y003300D02*
X000350Y003300D01*
X000350Y003379D02*
X005730Y003379D01*
X005730Y003457D02*
X000350Y003457D01*
X000350Y003536D02*
X000364Y003536D01*
X000350Y004321D02*
X000451Y004321D01*
X000350Y004399D02*
X005730Y004399D01*
X005730Y004321D02*
X001369Y004321D01*
X001500Y004242D02*
X005730Y004242D01*
X005730Y004164D02*
X001579Y004164D01*
X001614Y004085D02*
X005730Y004085D01*
X005730Y004007D02*
X001646Y004007D01*
X001650Y003928D02*
X005730Y003928D01*
X005730Y003850D02*
X001650Y003850D01*
X001629Y003771D02*
X005730Y003771D01*
X005730Y003693D02*
X001596Y003693D01*
X001536Y003614D02*
X005730Y003614D01*
X005730Y003536D02*
X001456Y003536D01*
X001316Y004478D02*
X005730Y004478D01*
X005730Y004556D02*
X001478Y004556D01*
X001557Y004635D02*
X005730Y004635D01*
X005730Y004713D02*
X001605Y004713D01*
X001637Y004792D02*
X005730Y004792D01*
X005730Y004870D02*
X001650Y004870D01*
X001650Y004949D02*
X005730Y004949D01*
X005772Y005027D02*
X001638Y005027D01*
X001605Y005106D02*
X005851Y005106D01*
X005929Y005184D02*
X001558Y005184D01*
X001480Y005263D02*
X006008Y005263D01*
X006086Y005341D02*
X001319Y005341D01*
X001365Y005498D02*
X006243Y005498D01*
X006165Y005420D02*
X000350Y005420D01*
X000350Y005498D02*
X000455Y005498D01*
X000501Y005341D02*
X000350Y005341D01*
X000350Y004478D02*
X000504Y004478D01*
X001499Y005577D02*
X006322Y005577D01*
X006400Y005655D02*
X002873Y005655D01*
X002863Y005645D02*
X002933Y005715D01*
X002970Y005752D01*
X003006Y005787D01*
X003075Y005857D01*
X003075Y006006D01*
X003022Y006060D01*
X002970Y006112D01*
X002969Y006113D01*
X002863Y006219D01*
X002500Y006219D01*
X002395Y006113D01*
X002395Y005964D01*
X002427Y005932D01*
X002395Y005900D01*
X002395Y005750D01*
X002500Y005645D01*
X002863Y005645D01*
X002952Y005734D02*
X006479Y005734D01*
X006557Y005812D02*
X003030Y005812D01*
X002970Y005752D02*
X002970Y005752D01*
X003075Y005891D02*
X006636Y005891D01*
X006714Y005969D02*
X003075Y005969D01*
X003034Y006048D02*
X006793Y006048D01*
X006871Y006126D02*
X002956Y006126D01*
X002970Y006112D02*
X002970Y006112D01*
X002877Y006205D02*
X006950Y006205D01*
X006980Y006235D02*
X006980Y008235D01*
X007085Y008340D01*
X007230Y008485D01*
X007230Y011360D01*
X007335Y011465D01*
X007755Y011885D01*
X007755Y011966D01*
X007798Y012069D01*
X007876Y012147D01*
X007979Y012190D01*
X008091Y012190D01*
X008194Y012147D01*
X008255Y012086D01*
X008255Y012091D01*
X008298Y012194D01*
X008376Y012272D01*
X008479Y012315D01*
X008591Y012315D01*
X008694Y012272D01*
X008772Y012194D01*
X008815Y012091D01*
X008815Y011979D01*
X008772Y011876D01*
X008694Y011798D01*
X008666Y011786D01*
X008215Y011335D01*
X008215Y008361D01*
X008251Y008397D01*
X008354Y008440D01*
X008396Y008440D01*
X008380Y008479D01*
X008380Y008591D01*
X008423Y008694D01*
X008501Y008772D01*
X008604Y008815D01*
X008716Y008815D01*
X008819Y008772D01*
X008897Y008694D01*
X008940Y008591D01*
X008940Y008510D01*
X008965Y008485D01*
X008965Y004485D01*
X010005Y003445D01*
X010005Y003466D01*
X010048Y003569D01*
X010105Y003626D01*
X010105Y005834D01*
X010069Y005798D01*
X009966Y005755D01*
X009854Y005755D01*
X009815Y005771D01*
X009815Y005729D01*
X009772Y005626D01*
X009694Y005548D01*
X009591Y005505D01*
X009479Y005505D01*
X009376Y005548D01*
X009298Y005626D01*
X009255Y005729D01*
X009255Y005841D01*
X009298Y005944D01*
X009355Y006001D01*
X009355Y006819D01*
X009298Y006876D01*
X009255Y006979D01*
X009255Y007091D01*
X009298Y007194D01*
X009376Y007272D01*
X009479Y007315D01*
X009591Y007315D01*
X009694Y007272D01*
X009772Y007194D01*
X009780Y007176D01*
X009826Y007222D01*
X009929Y007265D01*
X010041Y007265D01*
X010105Y007238D01*
X010105Y007319D01*
X010048Y007376D01*
X010005Y007479D01*
X010005Y007591D01*
X010048Y007694D01*
X010126Y007772D01*
X010229Y007815D01*
X010341Y007815D01*
X010444Y007772D01*
X010522Y007694D01*
X010565Y007591D01*
X010565Y007565D01*
X010641Y007565D01*
X010744Y007522D01*
X010822Y007444D01*
X010865Y007341D01*
X010865Y007315D01*
X010966Y007315D01*
X011069Y007272D01*
X011147Y007194D01*
X011190Y007091D01*
X011190Y006979D01*
X011147Y006876D01*
X011090Y006819D01*
X011090Y006735D01*
X011322Y006502D01*
X011380Y006502D01*
X011380Y006591D01*
X011423Y006694D01*
X011501Y006772D01*
X011604Y006815D01*
X011716Y006815D01*
X011819Y006772D01*
X011855Y006736D01*
X011855Y006819D01*
X011798Y006876D01*
X011755Y006979D01*
X011755Y007091D01*
X011798Y007194D01*
X011876Y007272D01*
X011979Y007315D01*
X012091Y007315D01*
X012122Y007302D01*
X012048Y007376D01*
X012005Y007479D01*
X012005Y007591D01*
X012048Y007694D01*
X012126Y007772D01*
X012229Y007815D01*
X012341Y007815D01*
X012400Y007790D01*
X012230Y007960D01*
X012230Y012132D01*
X012173Y012189D01*
X012130Y012292D01*
X012130Y012403D01*
X012173Y012506D01*
X012251Y012585D01*
X012354Y012627D01*
X012466Y012627D01*
X012569Y012585D01*
X012647Y012506D01*
X012690Y012403D01*
X012690Y012292D01*
X012647Y012189D01*
X012590Y012132D01*
X012590Y008110D01*
X012735Y007965D01*
X012840Y007860D01*
X012840Y004860D01*
X013485Y004215D01*
X013590Y004110D01*
X013590Y003751D01*
X013647Y003694D01*
X013690Y003591D01*
X013690Y003479D01*
X013647Y003376D01*
X013569Y003298D01*
X013466Y003255D01*
X013354Y003255D01*
X013251Y003298D01*
X013173Y003376D01*
X013130Y003479D01*
X013130Y003591D01*
X013158Y003658D01*
X013091Y003630D01*
X012979Y003630D01*
X012876Y003673D01*
X012798Y003751D01*
X012755Y003854D01*
X012755Y003935D01*
X012230Y004460D01*
X012230Y006834D01*
X012215Y006819D01*
X012215Y003110D01*
X012360Y002965D01*
X014360Y002965D01*
X015718Y001607D01*
X015822Y001650D01*
X015998Y001650D01*
X016159Y001583D01*
X016283Y001459D01*
X016350Y001298D01*
X016350Y000522D01*
X016283Y000361D01*
X016272Y000350D01*
X016548Y000350D01*
X016537Y000361D01*
X016470Y000522D01*
X016470Y001298D01*
X016537Y001459D01*
X016661Y001583D01*
X016711Y001604D01*
X015355Y002960D01*
X015355Y009944D01*
X015298Y010001D01*
X015255Y010104D01*
X015255Y010216D01*
X015298Y010319D01*
X015376Y010397D01*
X015479Y010440D01*
X015591Y010440D01*
X015694Y010397D01*
X015772Y010319D01*
X015815Y010216D01*
X015815Y010104D01*
X015772Y010001D01*
X015715Y009944D01*
X015715Y003110D01*
X016985Y001840D01*
X017090Y001735D01*
X017090Y001612D01*
X017159Y001583D01*
X017283Y001459D01*
X017350Y001298D01*
X017350Y000522D01*
X017283Y000361D01*
X017272Y000350D01*
X022470Y000350D01*
X022470Y003548D01*
X022459Y003537D01*
X022298Y003470D01*
X021522Y003470D01*
X021361Y003537D01*
X021237Y003661D01*
X021170Y003822D01*
X021170Y003998D01*
X021237Y004159D01*
X021361Y004283D01*
X021522Y004350D01*
X022298Y004350D01*
X022459Y004283D01*
X022470Y004272D01*
X022470Y004548D01*
X022459Y004537D01*
X022298Y004470D01*
X021522Y004470D01*
X021361Y004537D01*
X021237Y004661D01*
X021170Y004822D01*
X021170Y004998D01*
X021237Y005159D01*
X021361Y005283D01*
X021522Y005350D01*
X022298Y005350D01*
X022459Y005283D01*
X022470Y005272D01*
X022470Y005548D01*
X022459Y005537D01*
X022298Y005470D01*
X021522Y005470D01*
X021361Y005537D01*
X021237Y005661D01*
X021170Y005822D01*
X021170Y005998D01*
X021237Y006159D01*
X021361Y006283D01*
X020215Y006283D01*
X020215Y006205D02*
X021282Y006205D01*
X021223Y006126D02*
X020215Y006126D01*
X020215Y006048D02*
X021191Y006048D01*
X021170Y005969D02*
X020215Y005969D01*
X020215Y005891D02*
X021170Y005891D01*
X021174Y005812D02*
X020215Y005812D01*
X020215Y005734D02*
X021207Y005734D01*
X021243Y005655D02*
X020215Y005655D01*
X020215Y005577D02*
X021321Y005577D01*
X021455Y005498D02*
X020215Y005498D01*
X020215Y005420D02*
X022470Y005420D01*
X022470Y005498D02*
X022365Y005498D01*
X022319Y005341D02*
X022470Y005341D01*
X022470Y004478D02*
X022316Y004478D01*
X022369Y004321D02*
X022470Y004321D01*
X022470Y004399D02*
X020215Y004399D01*
X020215Y004321D02*
X021451Y004321D01*
X021320Y004242D02*
X020215Y004242D01*
X020215Y004164D02*
X021241Y004164D01*
X021206Y004085D02*
X020215Y004085D01*
X020215Y004007D02*
X021174Y004007D01*
X021170Y003928D02*
X020279Y003928D01*
X020272Y003944D02*
X020215Y004001D01*
X020215Y011694D01*
X020272Y011751D01*
X020315Y011854D01*
X020315Y011966D01*
X020272Y012069D01*
X020194Y012147D01*
X020091Y012190D01*
X019979Y012190D01*
X019876Y012147D01*
X019798Y012069D01*
X019755Y011966D01*
X019755Y011854D01*
X019798Y011751D01*
X019855Y011694D01*
X019855Y004001D01*
X019798Y003944D01*
X019755Y003841D01*
X019755Y003729D01*
X019798Y003626D01*
X019876Y003548D01*
X019979Y003505D01*
X020091Y003505D01*
X020194Y003548D01*
X020272Y003626D01*
X020315Y003729D01*
X020315Y003841D01*
X020272Y003944D01*
X020311Y003850D02*
X021170Y003850D01*
X021191Y003771D02*
X020315Y003771D01*
X020300Y003693D02*
X021224Y003693D01*
X021284Y003614D02*
X020260Y003614D01*
X020164Y003536D02*
X021364Y003536D01*
X021504Y004478D02*
X020215Y004478D01*
X020215Y004556D02*
X021342Y004556D01*
X021263Y004635D02*
X020215Y004635D01*
X020215Y004713D02*
X021215Y004713D01*
X021183Y004792D02*
X020215Y004792D01*
X020215Y004870D02*
X021170Y004870D01*
X021170Y004949D02*
X020215Y004949D01*
X020215Y005027D02*
X021182Y005027D01*
X021215Y005106D02*
X020215Y005106D01*
X020215Y005184D02*
X021262Y005184D01*
X021340Y005263D02*
X020215Y005263D01*
X020215Y005341D02*
X021501Y005341D01*
X021361Y006283D02*
X021522Y006350D01*
X022298Y006350D01*
X022459Y006283D01*
X022470Y006283D01*
X022470Y006272D02*
X022459Y006283D01*
X022470Y006272D02*
X022470Y006548D01*
X022459Y006537D01*
X022298Y006470D01*
X021522Y006470D01*
X021361Y006537D01*
X021237Y006661D01*
X021170Y006822D01*
X021170Y006998D01*
X021237Y007159D01*
X021361Y007283D01*
X021522Y007350D01*
X022298Y007350D01*
X022459Y007283D01*
X022470Y007272D01*
X022470Y007548D01*
X022459Y007537D01*
X022298Y007470D01*
X021522Y007470D01*
X021361Y007537D01*
X021237Y007661D01*
X021170Y007822D01*
X021170Y007998D01*
X021237Y008159D01*
X021361Y008283D01*
X021522Y008350D01*
X022298Y008350D01*
X022459Y008283D01*
X022470Y008272D01*
X022470Y008548D01*
X022459Y008537D01*
X022298Y008470D01*
X021522Y008470D01*
X021361Y008537D01*
X021237Y008661D01*
X021170Y008822D01*
X021170Y008998D01*
X021237Y009159D01*
X021361Y009283D01*
X021522Y009350D01*
X022298Y009350D01*
X022459Y009283D01*
X022470Y009272D01*
X022470Y009548D01*
X022459Y009537D01*
X022298Y009470D01*
X021522Y009470D01*
X021361Y009537D01*
X021237Y009661D01*
X021170Y009822D01*
X021170Y009998D01*
X021237Y010159D01*
X021361Y010283D01*
X021522Y010350D01*
X022298Y010350D01*
X022459Y010283D01*
X022470Y010272D01*
X022470Y010548D01*
X022459Y010537D01*
X022298Y010470D01*
X021522Y010470D01*
X021361Y010537D01*
X021237Y010661D01*
X021170Y010822D01*
X021170Y010998D01*
X021237Y011159D01*
X021361Y011283D01*
X021522Y011350D01*
X022298Y011350D01*
X022459Y011283D01*
X022470Y011272D01*
X022470Y011548D01*
X022459Y011537D01*
X022298Y011470D01*
X021522Y011470D01*
X021361Y011537D01*
X021237Y011661D01*
X021170Y011822D01*
X021170Y011998D01*
X021237Y012159D01*
X021361Y012283D01*
X021522Y012350D01*
X022298Y012350D01*
X022459Y012283D01*
X022470Y012272D01*
X022470Y012548D01*
X022459Y012537D01*
X022298Y012470D01*
X021522Y012470D01*
X021361Y012537D01*
X021237Y012661D01*
X021170Y012822D01*
X021170Y012998D01*
X021237Y013159D01*
X021361Y013283D01*
X021522Y013350D01*
X022298Y013350D01*
X022459Y013283D01*
X022470Y013272D01*
X022470Y013548D01*
X022459Y013537D01*
X022298Y013470D01*
X021522Y013470D01*
X021361Y013537D01*
X021237Y013661D01*
X021170Y013822D01*
X021170Y013998D01*
X021237Y014159D01*
X021361Y014283D01*
X021522Y014350D01*
X022298Y014350D01*
X022459Y014283D01*
X022470Y014272D01*
X022470Y014548D01*
X022459Y014537D01*
X022298Y014470D01*
X021522Y014470D01*
X021361Y014537D01*
X021237Y014661D01*
X021170Y014822D01*
X021170Y014998D01*
X021237Y015159D01*
X021361Y015283D01*
X021522Y015350D01*
X022298Y015350D01*
X022459Y015283D01*
X022470Y015272D01*
X022470Y016548D01*
X022459Y016537D01*
X022298Y016470D01*
X021522Y016470D01*
X021361Y016537D01*
X021237Y016661D01*
X021170Y016822D01*
X021170Y016998D01*
X021237Y017159D01*
X021361Y017283D01*
X021522Y017350D01*
X022298Y017350D01*
X022459Y017283D01*
X022470Y017272D01*
X022470Y017548D01*
X022459Y017537D01*
X022298Y017470D01*
X021522Y017470D01*
X021361Y017537D01*
X021237Y017661D01*
X021170Y017822D01*
X021170Y017998D01*
X021237Y018159D01*
X021361Y018283D01*
X021522Y018350D01*
X022298Y018350D01*
X022459Y018283D01*
X022470Y018272D01*
X022470Y018548D01*
X022459Y018537D01*
X022298Y018470D01*
X021522Y018470D01*
X021361Y018537D01*
X021237Y018661D01*
X021170Y018822D01*
X021170Y018998D01*
X021237Y019159D01*
X021361Y019283D01*
X021522Y019350D01*
X022298Y019350D01*
X022459Y019283D01*
X022470Y019272D01*
X022470Y019548D01*
X022459Y019537D01*
X022298Y019470D01*
X021522Y019470D01*
X021361Y019537D01*
X021237Y019661D01*
X021170Y019822D01*
X021170Y019998D01*
X021237Y020159D01*
X021361Y020283D01*
X021522Y020350D01*
X022298Y020350D01*
X022459Y020283D01*
X022470Y020272D01*
X022470Y020548D01*
X022459Y020537D01*
X022298Y020470D01*
X021522Y020470D01*
X021361Y020537D01*
X021237Y020661D01*
X021170Y020822D01*
X021170Y020998D01*
X021237Y021159D01*
X021361Y021283D01*
X021522Y021350D01*
X022298Y021350D01*
X022459Y021283D01*
X022470Y021272D01*
X022470Y021548D01*
X022459Y021537D01*
X022298Y021470D01*
X021522Y021470D01*
X021361Y021537D01*
X021237Y021661D01*
X021170Y021822D01*
X021170Y021998D01*
X021237Y022159D01*
X021361Y022283D01*
X021522Y022350D01*
X022298Y022350D01*
X022459Y022283D01*
X022470Y022272D01*
X022470Y022470D01*
X017040Y022470D01*
X017053Y022451D01*
X017086Y022387D01*
X017109Y022318D01*
X017120Y022246D01*
X017120Y021950D01*
X016700Y021950D01*
X016700Y021870D01*
X017120Y021870D01*
X017120Y021574D01*
X017109Y021502D01*
X017086Y021433D01*
X017053Y021369D01*
X017011Y021310D01*
X016960Y021259D01*
X016901Y021217D01*
X016837Y021184D01*
X016768Y021161D01*
X016700Y021151D01*
X016700Y021870D01*
X016620Y021870D01*
X016620Y021151D01*
X016552Y021161D01*
X016483Y021184D01*
X016419Y021217D01*
X016360Y021259D01*
X016309Y021310D01*
X016267Y021369D01*
X016234Y021433D01*
X016211Y021502D01*
X016200Y021574D01*
X016200Y021870D01*
X016620Y021870D01*
X016620Y021950D01*
X016200Y021950D01*
X016200Y022246D01*
X016211Y022318D01*
X016234Y022387D01*
X016267Y022451D01*
X016280Y022470D01*
X016040Y022470D01*
X016053Y022451D01*
X016086Y022387D01*
X016109Y022318D01*
X016120Y022246D01*
X016120Y021950D01*
X015700Y021950D01*
X015700Y021870D01*
X016120Y021870D01*
X016120Y021574D01*
X016109Y021502D01*
X016086Y021433D01*
X016053Y021369D01*
X016011Y021310D01*
X015960Y021259D01*
X015901Y021217D01*
X015837Y021184D01*
X015768Y021161D01*
X015700Y021151D01*
X015700Y021870D01*
X015620Y021870D01*
X015620Y021151D01*
X015552Y021161D01*
X015483Y021184D01*
X015419Y021217D01*
X015360Y021259D01*
X015309Y021310D01*
X015267Y021369D01*
X015234Y021433D01*
X015211Y021502D01*
X015200Y021574D01*
X015200Y021870D01*
X015620Y021870D01*
X015620Y021950D01*
X015200Y021950D01*
X015200Y022246D01*
X015211Y022318D01*
X015234Y022387D01*
X015267Y022451D01*
X015280Y022470D01*
X015040Y022470D01*
X015053Y022451D01*
X015086Y022387D01*
X015109Y022318D01*
X015120Y022246D01*
X015120Y021950D01*
X014700Y021950D01*
X014700Y021870D01*
X015120Y021870D01*
X015120Y021574D01*
X015109Y021502D01*
X015086Y021433D01*
X015053Y021369D01*
X015011Y021310D01*
X014960Y021259D01*
X014901Y021217D01*
X014837Y021184D01*
X014768Y021161D01*
X014700Y021151D01*
X014700Y021870D01*
X014620Y021870D01*
X014620Y021151D01*
X014552Y021161D01*
X014483Y021184D01*
X014419Y021217D01*
X014360Y021259D01*
X014309Y021310D01*
X014267Y021369D01*
X014234Y021433D01*
X014211Y021502D01*
X014200Y021574D01*
X014200Y021870D01*
X014620Y021870D01*
X014620Y021950D01*
X014200Y021950D01*
X014200Y022246D01*
X014211Y022318D01*
X014234Y022387D01*
X014267Y022451D01*
X014280Y022470D01*
X014040Y022470D01*
X014053Y022451D01*
X014086Y022387D01*
X014109Y022318D01*
X014120Y022246D01*
X014120Y021950D01*
X013700Y021950D01*
X013700Y021870D01*
X014120Y021870D01*
X014120Y021574D01*
X014109Y021502D01*
X014086Y021433D01*
X014053Y021369D01*
X014011Y021310D01*
X013960Y021259D01*
X013901Y021217D01*
X013837Y021184D01*
X013768Y021161D01*
X013700Y021151D01*
X013700Y021870D01*
X013620Y021870D01*
X013620Y021151D01*
X013552Y021161D01*
X013483Y021184D01*
X013419Y021217D01*
X013360Y021259D01*
X013309Y021310D01*
X013267Y021369D01*
X013234Y021433D01*
X013211Y021502D01*
X013200Y021574D01*
X013200Y021870D01*
X013620Y021870D01*
X013620Y021950D01*
X013200Y021950D01*
X013200Y022246D01*
X013211Y022318D01*
X013234Y022387D01*
X013267Y022451D01*
X013280Y022470D01*
X012022Y022470D01*
X012033Y022459D01*
X012100Y022298D01*
X012100Y021522D01*
X012033Y021361D01*
X011909Y021237D01*
X011748Y021170D01*
X011572Y021170D01*
X011411Y021237D01*
X011287Y021361D01*
X011220Y021522D01*
X011220Y022298D01*
X011287Y022459D01*
X011298Y022470D01*
X011022Y022470D01*
X011033Y022459D01*
X011100Y022298D01*
X011100Y021522D01*
X011033Y021361D01*
X010909Y021237D01*
X010748Y021170D01*
X010572Y021170D01*
X010411Y021237D01*
X010287Y021361D01*
X010220Y021522D01*
X010220Y022298D01*
X010287Y022459D01*
X010298Y022470D01*
X007522Y022470D01*
X007533Y022459D01*
X007600Y022298D01*
X007600Y021522D01*
X007533Y021361D01*
X007409Y021237D01*
X007248Y021170D01*
X007072Y021170D01*
X006911Y021237D01*
X006787Y021361D01*
X006720Y021522D01*
X006720Y022298D01*
X006787Y022459D01*
X006798Y022470D01*
X006522Y022470D01*
X006533Y022459D01*
X006600Y022298D01*
X006600Y021522D01*
X006533Y021361D01*
X006409Y021237D01*
X006248Y021170D01*
X006072Y021170D01*
X005911Y021237D01*
X005787Y021361D01*
X005720Y021522D01*
X005720Y022298D01*
X005787Y022459D01*
X005798Y022470D01*
X000350Y022470D01*
X000350Y019272D01*
X000361Y019283D01*
X000522Y019350D01*
X001298Y019350D01*
X001459Y019283D01*
X001583Y019159D01*
X001650Y018998D01*
X001650Y018822D01*
X001583Y018661D01*
X001459Y018537D01*
X001298Y018470D01*
X000522Y018470D01*
X000361Y018537D01*
X000350Y018548D01*
X000350Y018290D01*
X000369Y018303D01*
X000433Y018336D01*
X000502Y018359D01*
X000574Y018370D01*
X000870Y018370D01*
X000870Y017950D01*
X000950Y017950D01*
X000950Y018370D01*
X001246Y018370D01*
X001318Y018359D01*
X001387Y018336D01*
X001451Y018303D01*
X001510Y018261D01*
X001561Y018210D01*
X001603Y018151D01*
X001636Y018087D01*
X001659Y018018D01*
X001669Y017950D01*
X000950Y017950D01*
X000950Y017870D01*
X001669Y017870D01*
X001659Y017802D01*
X001636Y017733D01*
X001603Y017669D01*
X001561Y017610D01*
X001510Y017559D01*
X001451Y017517D01*
X001387Y017484D01*
X001318Y017461D01*
X001246Y017450D01*
X000950Y017450D01*
X000950Y017870D01*
X000870Y017870D01*
X000870Y017450D01*
X000574Y017450D01*
X000502Y017461D01*
X000433Y017484D01*
X000369Y017517D01*
X000350Y017530D01*
X000350Y015272D01*
X000361Y015283D01*
X000522Y015350D01*
X001298Y015350D01*
X001459Y015283D01*
X001583Y015159D01*
X001650Y014998D01*
X001650Y014822D01*
X001583Y014661D01*
X001459Y014537D01*
X001298Y014470D01*
X000522Y014470D01*
X000361Y014537D01*
X000350Y014548D01*
X000350Y014272D01*
X000361Y014283D01*
X000522Y014350D01*
X001298Y014350D01*
X001459Y014283D01*
X001583Y014159D01*
X001650Y013998D01*
X001650Y013822D01*
X001583Y013661D01*
X001459Y013537D01*
X001298Y013470D01*
X000522Y013470D01*
X000361Y013537D01*
X000350Y013548D01*
X000350Y013272D01*
X000361Y013283D01*
X000522Y013350D01*
X001298Y013350D01*
X001459Y013283D01*
X001583Y013159D01*
X001650Y012998D01*
X001650Y012822D01*
X001583Y012661D01*
X001459Y012537D01*
X001298Y012470D01*
X000522Y012470D01*
X000361Y012537D01*
X000350Y012548D01*
X000350Y012272D01*
X000361Y012283D01*
X000522Y012350D01*
X001298Y012350D01*
X001459Y012283D01*
X001583Y012159D01*
X001650Y011998D01*
X001650Y011822D01*
X001583Y011661D01*
X001459Y011537D01*
X001298Y011470D01*
X000522Y011470D01*
X000361Y011537D01*
X000350Y011548D01*
X000350Y011272D01*
X000361Y011283D01*
X000522Y011350D01*
X001298Y011350D01*
X001459Y011283D01*
X001583Y011159D01*
X001650Y010998D01*
X001650Y010822D01*
X001583Y010661D01*
X001459Y010537D01*
X001298Y010470D01*
X000522Y010470D01*
X000361Y010537D01*
X000350Y010548D01*
X000350Y010272D01*
X000361Y010283D01*
X000522Y010350D01*
X001298Y010350D01*
X001459Y010283D01*
X001583Y010159D01*
X001650Y009998D01*
X001650Y009822D01*
X001583Y009661D01*
X001459Y009537D01*
X001298Y009470D01*
X000522Y009470D01*
X000361Y009537D01*
X000350Y009548D01*
X000350Y009272D01*
X000361Y009283D01*
X000522Y009350D01*
X001298Y009350D01*
X001459Y009283D01*
X001583Y009159D01*
X001650Y008998D01*
X001650Y008822D01*
X001583Y008661D01*
X001459Y008537D01*
X001298Y008470D01*
X000522Y008470D01*
X000361Y008537D01*
X000350Y008548D01*
X000350Y008272D01*
X000361Y008283D01*
X000522Y008350D01*
X001298Y008350D01*
X001459Y008283D01*
X001583Y008159D01*
X001650Y007998D01*
X001650Y007822D01*
X001583Y007661D01*
X001459Y007537D01*
X001298Y007470D01*
X000522Y007470D01*
X000361Y007537D01*
X000350Y007548D01*
X000350Y007272D01*
X000361Y007283D01*
X000522Y007350D01*
X001298Y007350D01*
X001459Y007283D01*
X001583Y007159D01*
X001650Y006998D01*
X001650Y006822D01*
X001583Y006661D01*
X001459Y006537D01*
X001298Y006470D01*
X000522Y006470D01*
X000361Y006537D01*
X000350Y006548D01*
X000350Y006272D01*
X000361Y006283D01*
X000350Y006283D01*
X000361Y006283D02*
X000522Y006350D01*
X001298Y006350D01*
X001459Y006283D01*
X001538Y006205D02*
X002486Y006205D01*
X002408Y006126D02*
X001597Y006126D01*
X001629Y006048D02*
X002395Y006048D01*
X002395Y005969D02*
X001650Y005969D01*
X001650Y005891D02*
X002395Y005891D01*
X002395Y005812D02*
X001646Y005812D01*
X001613Y005734D02*
X002412Y005734D01*
X002490Y005655D02*
X001577Y005655D01*
X001415Y006519D02*
X002417Y006519D01*
X002395Y006540D02*
X002500Y006435D01*
X002607Y006435D01*
X002661Y006382D01*
X002810Y006382D01*
X002863Y006435D01*
X002916Y006435D01*
X003075Y006594D01*
X003075Y006733D01*
X003129Y006786D01*
X003129Y006935D01*
X003023Y007041D01*
X002969Y007041D01*
X002969Y007287D01*
X002915Y007341D01*
X002912Y007344D01*
X002915Y007346D01*
X002969Y007400D01*
X002969Y007709D01*
X002939Y007739D01*
X002969Y007768D01*
X002969Y008024D01*
X002939Y008054D01*
X002969Y008083D01*
X002969Y008392D01*
X002863Y008498D01*
X002714Y008498D01*
X002609Y008392D01*
X002609Y008339D01*
X002607Y008338D01*
X002500Y008338D01*
X002395Y008232D01*
X002395Y008083D01*
X002425Y008054D01*
X002395Y008024D01*
X002395Y007768D01*
X002398Y007765D01*
X002342Y007709D01*
X002288Y007656D01*
X002288Y007453D01*
X002394Y007348D01*
X002402Y007348D01*
X002395Y007341D01*
X002395Y007192D01*
X002427Y007159D01*
X002395Y007127D01*
X002395Y006733D01*
X002417Y006711D01*
X002395Y006690D01*
X002395Y006540D01*
X002395Y006597D02*
X001519Y006597D01*
X001589Y006676D02*
X002395Y006676D01*
X002395Y006754D02*
X001622Y006754D01*
X001650Y006833D02*
X002395Y006833D01*
X002395Y006911D02*
X001650Y006911D01*
X001650Y006990D02*
X002395Y006990D01*
X002395Y007068D02*
X001621Y007068D01*
X001588Y007147D02*
X002414Y007147D01*
X002395Y007225D02*
X001517Y007225D01*
X001410Y007304D02*
X002395Y007304D01*
X002359Y007382D02*
X000350Y007382D01*
X000350Y007304D02*
X000410Y007304D01*
X000350Y007461D02*
X002288Y007461D01*
X002288Y007539D02*
X001461Y007539D01*
X001540Y007618D02*
X002288Y007618D01*
X002329Y007696D02*
X001598Y007696D01*
X001630Y007775D02*
X002395Y007775D01*
X002395Y007853D02*
X001650Y007853D01*
X001650Y007932D02*
X002395Y007932D01*
X002395Y008010D02*
X001645Y008010D01*
X001612Y008089D02*
X002395Y008089D01*
X002395Y008167D02*
X001575Y008167D01*
X001497Y008246D02*
X002408Y008246D01*
X002487Y008324D02*
X001360Y008324D01*
X001324Y008481D02*
X002697Y008481D01*
X002619Y008403D02*
X000350Y008403D01*
X000350Y008481D02*
X000496Y008481D01*
X000460Y008324D02*
X000350Y008324D01*
X000350Y007539D02*
X000359Y007539D01*
X000350Y006519D02*
X000405Y006519D01*
X000350Y006440D02*
X002495Y006440D01*
X002575Y006615D02*
X002842Y006615D01*
X002895Y006668D01*
X002735Y006668D02*
X002735Y006562D01*
X002921Y006440D02*
X006980Y006440D01*
X006980Y006362D02*
X000350Y006362D01*
X002468Y007528D02*
X002468Y007581D01*
X002522Y007635D01*
X002789Y007635D01*
X002789Y007474D01*
X002735Y007421D01*
X002628Y007421D01*
X002575Y007474D01*
X002575Y007635D01*
X002628Y007789D02*
X002735Y007789D01*
X002789Y007843D01*
X002789Y007949D01*
X002735Y008003D01*
X002682Y008003D01*
X002682Y007789D01*
X002628Y007789D02*
X002575Y007843D01*
X002575Y007949D01*
X002575Y008158D02*
X002789Y008158D01*
X002789Y008264D02*
X002789Y008318D01*
X002789Y008264D02*
X002682Y008158D01*
X002958Y008403D02*
X005573Y008403D01*
X005572Y008404D02*
X005654Y008322D01*
X006166Y008322D01*
X006248Y008404D01*
X006248Y008916D01*
X006166Y008998D01*
X006130Y008998D01*
X006130Y014435D01*
X007480Y013085D01*
X007480Y013001D01*
X007423Y012944D01*
X007380Y012841D01*
X007380Y012729D01*
X007423Y012626D01*
X007501Y012548D01*
X007604Y012505D01*
X007716Y012505D01*
X007819Y012548D01*
X007897Y012626D01*
X007940Y012729D01*
X007940Y012841D01*
X007897Y012944D01*
X007840Y013001D01*
X007840Y013235D01*
X006605Y014470D01*
X006842Y014470D01*
X007100Y014728D01*
X007100Y015092D01*
X007098Y015094D01*
X007235Y015230D01*
X007358Y015230D01*
X007220Y015092D01*
X007220Y014728D01*
X007478Y014470D01*
X007842Y014470D01*
X008100Y014728D01*
X008100Y014980D01*
X008105Y014980D01*
X008105Y013251D01*
X008048Y013194D01*
X008005Y013091D01*
X008005Y012979D01*
X008048Y012876D01*
X008126Y012798D01*
X008229Y012755D01*
X008341Y012755D01*
X008444Y012798D01*
X008522Y012876D01*
X008565Y012979D01*
X008565Y013091D01*
X008522Y013194D01*
X008465Y013251D01*
X008465Y014960D01*
X008860Y015355D01*
X008959Y015355D01*
X008923Y015319D01*
X008880Y015216D01*
X008880Y015104D01*
X008923Y015001D01*
X009001Y014923D01*
X009104Y014880D01*
X009216Y014880D01*
X009319Y014923D01*
X009376Y014980D01*
X009944Y014980D01*
X010001Y014923D01*
X010104Y014880D01*
X010216Y014880D01*
X010319Y014923D01*
X010397Y015001D01*
X010440Y015104D01*
X010440Y015216D01*
X010412Y015283D01*
X010479Y015255D01*
X010591Y015255D01*
X010694Y015298D01*
X010772Y015376D01*
X010815Y015479D01*
X010815Y015591D01*
X010772Y015694D01*
X010694Y015772D01*
X010591Y015815D01*
X010479Y015815D01*
X010412Y015787D01*
X010440Y015854D01*
X010440Y015966D01*
X010412Y016033D01*
X010479Y016005D01*
X010591Y016005D01*
X010694Y016048D01*
X010772Y016126D01*
X010815Y016229D01*
X010815Y016341D01*
X010772Y016444D01*
X010694Y016522D01*
X010591Y016565D01*
X010479Y016565D01*
X010376Y016522D01*
X010319Y016465D01*
X008960Y016465D01*
X008085Y015590D01*
X007962Y015590D01*
X008100Y015728D01*
X008100Y016092D01*
X007842Y016350D01*
X007478Y016350D01*
X007220Y016092D01*
X007220Y015728D01*
X007358Y015590D01*
X007085Y015590D01*
X006844Y015348D01*
X006842Y015350D01*
X006478Y015350D01*
X006340Y015212D01*
X006340Y015335D01*
X006476Y015472D01*
X006478Y015470D01*
X006842Y015470D01*
X007100Y015728D01*
X007100Y016092D01*
X006842Y016350D01*
X006478Y016350D01*
X006220Y016092D01*
X006220Y015728D01*
X006222Y015726D01*
X006130Y015635D01*
X006130Y016319D01*
X006379Y016568D01*
X006478Y016470D01*
X006842Y016470D01*
X007100Y016728D01*
X007100Y017092D01*
X006842Y017350D01*
X006478Y017350D01*
X006220Y017092D01*
X006220Y017031D01*
X006190Y017001D01*
X005690Y016501D01*
X005690Y008998D01*
X005654Y008998D01*
X005572Y008916D01*
X005572Y008404D01*
X005572Y008481D02*
X002880Y008481D01*
X002969Y008324D02*
X005652Y008324D01*
X005572Y008560D02*
X001482Y008560D01*
X001560Y008638D02*
X005572Y008638D01*
X005572Y008717D02*
X003033Y008717D01*
X003075Y008758D02*
X003075Y008961D01*
X003054Y008982D01*
X003129Y009057D01*
X003129Y009206D01*
X003023Y009312D01*
X002969Y009312D01*
X002969Y009512D01*
X002970Y009512D01*
X003075Y009618D01*
X003075Y009767D01*
X002970Y009872D01*
X002968Y009872D01*
X002968Y009873D01*
X003023Y009873D01*
X003129Y009978D01*
X003129Y010127D01*
X003023Y010233D01*
X002969Y010233D01*
X002969Y010479D01*
X002915Y010533D01*
X002810Y010638D01*
X002500Y010638D01*
X002395Y010533D01*
X002395Y010384D01*
X002427Y010352D01*
X002395Y010319D01*
X002395Y009925D01*
X002404Y009916D01*
X002384Y009815D01*
X002407Y009779D01*
X002395Y009767D01*
X002395Y009618D01*
X002398Y009615D01*
X002395Y009612D01*
X002395Y009303D01*
X002417Y009281D01*
X002395Y009260D01*
X002395Y008758D01*
X002500Y008653D01*
X002650Y008653D01*
X002703Y008706D01*
X002767Y008706D01*
X002821Y008653D01*
X002970Y008653D01*
X003075Y008758D01*
X003075Y008795D02*
X005572Y008795D01*
X005572Y008874D02*
X003075Y008874D01*
X003075Y008952D02*
X005608Y008952D01*
X005690Y009031D02*
X003102Y009031D01*
X003129Y009109D02*
X005690Y009109D01*
X005690Y009188D02*
X003129Y009188D01*
X003069Y009266D02*
X005690Y009266D01*
X005690Y009345D02*
X002969Y009345D01*
X002969Y009423D02*
X005690Y009423D01*
X005690Y009502D02*
X002969Y009502D01*
X003038Y009580D02*
X005690Y009580D01*
X005690Y009659D02*
X003075Y009659D01*
X003075Y009737D02*
X005690Y009737D01*
X005690Y009816D02*
X003027Y009816D01*
X003045Y009894D02*
X005690Y009894D01*
X005690Y009973D02*
X003123Y009973D01*
X003129Y010051D02*
X005690Y010051D01*
X005690Y010130D02*
X003126Y010130D01*
X003048Y010208D02*
X005690Y010208D01*
X005690Y010287D02*
X002969Y010287D01*
X002969Y010365D02*
X005690Y010365D01*
X005690Y010444D02*
X002969Y010444D01*
X002926Y010522D02*
X004601Y010522D01*
X004630Y010510D02*
X004790Y010510D01*
X004937Y010571D01*
X005049Y010683D01*
X005110Y010830D01*
X005110Y010990D01*
X005049Y011137D01*
X004937Y011249D01*
X004790Y011310D01*
X004630Y011310D01*
X004483Y011249D01*
X004371Y011137D01*
X004310Y010990D01*
X004310Y010830D01*
X004371Y010683D01*
X004483Y010571D01*
X004630Y010510D01*
X004819Y010522D02*
X005690Y010522D01*
X005690Y010601D02*
X004966Y010601D01*
X005045Y010679D02*
X005690Y010679D01*
X005690Y010758D02*
X005080Y010758D01*
X005110Y010836D02*
X005690Y010836D01*
X005690Y010915D02*
X005110Y010915D01*
X005109Y010993D02*
X005690Y010993D01*
X005690Y011072D02*
X005076Y011072D01*
X005036Y011150D02*
X005690Y011150D01*
X005690Y011229D02*
X004957Y011229D01*
X004797Y011307D02*
X005690Y011307D01*
X005690Y011386D02*
X003129Y011386D01*
X003129Y011329D02*
X003129Y011478D01*
X003023Y011583D01*
X002969Y011583D01*
X002969Y011830D01*
X002939Y011859D01*
X002969Y011889D01*
X002969Y012198D01*
X002915Y012252D01*
X002912Y012254D01*
X002969Y012311D01*
X002969Y012567D01*
X002939Y012596D01*
X002969Y012626D01*
X002969Y012935D01*
X002863Y013040D01*
X002714Y013040D01*
X002609Y012935D01*
X002609Y012882D01*
X002607Y012880D01*
X002500Y012880D01*
X002395Y012775D01*
X002395Y012626D01*
X002425Y012596D01*
X002395Y012567D01*
X002395Y012311D01*
X002425Y012281D01*
X002395Y012252D01*
X002395Y012103D01*
X002427Y012070D01*
X002395Y012038D01*
X002395Y011889D01*
X002398Y011886D01*
X002395Y011883D01*
X002395Y011734D01*
X002427Y011702D01*
X002395Y011670D01*
X002395Y011275D01*
X002425Y011246D01*
X002395Y011216D01*
X002395Y011141D01*
X002395Y011067D01*
X002395Y011067D01*
X002395Y010960D01*
X002500Y010855D01*
X002554Y010801D01*
X002703Y010801D01*
X002863Y010801D01*
X002969Y010907D01*
X002969Y011056D01*
X002936Y011088D01*
X002969Y011120D01*
X002969Y011223D01*
X003023Y011223D01*
X003129Y011329D01*
X003107Y011307D02*
X004623Y011307D01*
X004463Y011229D02*
X003029Y011229D01*
X002969Y011150D02*
X004384Y011150D01*
X004344Y011072D02*
X002953Y011072D01*
X002969Y010993D02*
X004311Y010993D01*
X004310Y010915D02*
X002969Y010915D01*
X002898Y010836D02*
X004310Y010836D01*
X004340Y010758D02*
X001623Y010758D01*
X001650Y010836D02*
X002519Y010836D01*
X002441Y010915D02*
X001650Y010915D01*
X001650Y010993D02*
X002395Y010993D01*
X002395Y011072D02*
X001619Y011072D01*
X001587Y011150D02*
X002395Y011150D01*
X002407Y011229D02*
X001514Y011229D01*
X001401Y011307D02*
X002395Y011307D01*
X002395Y011386D02*
X000350Y011386D01*
X000350Y011464D02*
X002395Y011464D01*
X002395Y011543D02*
X001465Y011543D01*
X001543Y011621D02*
X002395Y011621D01*
X002425Y011700D02*
X001599Y011700D01*
X001632Y011778D02*
X002395Y011778D01*
X002395Y011857D02*
X001650Y011857D01*
X001650Y011935D02*
X002395Y011935D01*
X002395Y012014D02*
X001643Y012014D01*
X001611Y012092D02*
X002405Y012092D01*
X002395Y012171D02*
X001572Y012171D01*
X001493Y012249D02*
X002395Y012249D01*
X002395Y012328D02*
X001352Y012328D01*
X001333Y012485D02*
X002395Y012485D01*
X002395Y012563D02*
X001485Y012563D01*
X001564Y012642D02*
X002395Y012642D01*
X002395Y012720D02*
X001608Y012720D01*
X001640Y012799D02*
X002419Y012799D01*
X002497Y012877D02*
X001650Y012877D01*
X001650Y012956D02*
X002629Y012956D01*
X002708Y013034D02*
X001635Y013034D01*
X001602Y013113D02*
X005690Y013113D01*
X005690Y013191D02*
X001551Y013191D01*
X001473Y013270D02*
X005690Y013270D01*
X005690Y013348D02*
X001302Y013348D01*
X001382Y013505D02*
X005690Y013505D01*
X005690Y013427D02*
X000350Y013427D01*
X000350Y013505D02*
X000438Y013505D01*
X000518Y013348D02*
X000350Y013348D01*
X000350Y012485D02*
X000487Y012485D01*
X000350Y012406D02*
X002395Y012406D01*
X002575Y012385D02*
X002628Y012332D01*
X002735Y012332D01*
X002789Y012385D01*
X002789Y012492D01*
X002735Y012545D01*
X002682Y012545D01*
X002682Y012332D01*
X002575Y012385D02*
X002575Y012492D01*
X002575Y012700D02*
X002789Y012700D01*
X002789Y012807D02*
X002789Y012860D01*
X002789Y012807D02*
X002682Y012700D01*
X002948Y012956D02*
X005690Y012956D01*
X005690Y013034D02*
X002869Y013034D01*
X002969Y012877D02*
X005690Y012877D01*
X005690Y012799D02*
X002969Y012799D01*
X002969Y012720D02*
X005690Y012720D01*
X005690Y012642D02*
X002969Y012642D01*
X002969Y012563D02*
X005690Y012563D01*
X005690Y012485D02*
X002969Y012485D01*
X002969Y012406D02*
X005690Y012406D01*
X005690Y012328D02*
X002969Y012328D01*
X002918Y012249D02*
X005690Y012249D01*
X005690Y012171D02*
X002969Y012171D01*
X002969Y012092D02*
X005690Y012092D01*
X005690Y012014D02*
X002969Y012014D01*
X002969Y011935D02*
X005690Y011935D01*
X005690Y011857D02*
X002942Y011857D01*
X002969Y011778D02*
X005690Y011778D01*
X005690Y011700D02*
X002969Y011700D01*
X002969Y011621D02*
X005690Y011621D01*
X005690Y011543D02*
X003064Y011543D01*
X003129Y011464D02*
X005690Y011464D01*
X006130Y011464D02*
X007334Y011464D01*
X007256Y011386D02*
X006130Y011386D01*
X006130Y011307D02*
X006523Y011307D01*
X006530Y011310D02*
X006383Y011249D01*
X006271Y011137D01*
X006210Y010990D01*
X006210Y010830D01*
X006271Y010683D01*
X006383Y010571D01*
X006530Y010510D01*
X006690Y010510D01*
X006837Y010571D01*
X006949Y010683D01*
X007010Y010830D01*
X007010Y010990D01*
X006949Y011137D01*
X006837Y011249D01*
X006690Y011310D01*
X006530Y011310D01*
X006697Y011307D02*
X007230Y011307D01*
X007230Y011229D02*
X006857Y011229D01*
X006936Y011150D02*
X007230Y011150D01*
X007230Y011072D02*
X006976Y011072D01*
X007009Y010993D02*
X007230Y010993D01*
X007230Y010915D02*
X007010Y010915D01*
X007010Y010836D02*
X007230Y010836D01*
X007230Y010758D02*
X006980Y010758D01*
X006945Y010679D02*
X007230Y010679D01*
X007230Y010601D02*
X006866Y010601D01*
X006719Y010522D02*
X007230Y010522D01*
X007230Y010444D02*
X006130Y010444D01*
X006130Y010522D02*
X006501Y010522D01*
X006354Y010601D02*
X006130Y010601D01*
X006130Y010679D02*
X006275Y010679D01*
X006240Y010758D02*
X006130Y010758D01*
X006130Y010836D02*
X006210Y010836D01*
X006210Y010915D02*
X006130Y010915D01*
X006130Y010993D02*
X006211Y010993D01*
X006244Y011072D02*
X006130Y011072D01*
X006130Y011150D02*
X006284Y011150D01*
X006363Y011229D02*
X006130Y011229D01*
X006130Y011543D02*
X007413Y011543D01*
X007491Y011621D02*
X006130Y011621D01*
X006130Y011700D02*
X007570Y011700D01*
X007648Y011778D02*
X006130Y011778D01*
X006130Y011857D02*
X007727Y011857D01*
X007755Y011935D02*
X006130Y011935D01*
X006130Y012014D02*
X007775Y012014D01*
X007821Y012092D02*
X006130Y012092D01*
X006130Y012171D02*
X007932Y012171D01*
X008138Y012171D02*
X008288Y012171D01*
X008256Y012092D02*
X008249Y012092D01*
X008353Y012249D02*
X006130Y012249D01*
X006130Y012328D02*
X012130Y012328D01*
X012131Y012406D02*
X006130Y012406D01*
X006130Y012485D02*
X012164Y012485D01*
X012230Y012563D02*
X007834Y012563D01*
X007904Y012642D02*
X014980Y012642D01*
X014980Y012720D02*
X007936Y012720D01*
X007940Y012799D02*
X008125Y012799D01*
X008047Y012877D02*
X007925Y012877D01*
X007885Y012956D02*
X008015Y012956D01*
X008005Y013034D02*
X007840Y013034D01*
X007840Y013113D02*
X008014Y013113D01*
X008047Y013191D02*
X007840Y013191D01*
X007805Y013270D02*
X008105Y013270D01*
X008105Y013348D02*
X007727Y013348D01*
X007648Y013427D02*
X008105Y013427D01*
X008105Y013505D02*
X007570Y013505D01*
X007491Y013584D02*
X008105Y013584D01*
X008105Y013662D02*
X007413Y013662D01*
X007334Y013741D02*
X008105Y013741D01*
X008105Y013819D02*
X007256Y013819D01*
X007177Y013898D02*
X008105Y013898D01*
X008105Y013976D02*
X007099Y013976D01*
X007020Y014055D02*
X008105Y014055D01*
X008105Y014133D02*
X006942Y014133D01*
X006863Y014212D02*
X008105Y014212D01*
X008105Y014290D02*
X006785Y014290D01*
X006706Y014369D02*
X008105Y014369D01*
X008105Y014447D02*
X006628Y014447D01*
X006898Y014526D02*
X007422Y014526D01*
X007344Y014604D02*
X006976Y014604D01*
X007055Y014683D02*
X007265Y014683D01*
X007220Y014761D02*
X007100Y014761D01*
X007100Y014840D02*
X007220Y014840D01*
X007220Y014918D02*
X007100Y014918D01*
X007100Y014997D02*
X007220Y014997D01*
X007220Y015075D02*
X007100Y015075D01*
X007158Y015154D02*
X007281Y015154D01*
X007160Y015410D02*
X006660Y014910D01*
X006360Y015232D02*
X006340Y015232D01*
X006340Y015311D02*
X006438Y015311D01*
X006394Y015389D02*
X006884Y015389D01*
X006963Y015468D02*
X006472Y015468D01*
X006198Y015703D02*
X006130Y015703D01*
X006130Y015782D02*
X006220Y015782D01*
X006220Y015860D02*
X006130Y015860D01*
X006130Y015939D02*
X006220Y015939D01*
X006220Y016017D02*
X006130Y016017D01*
X006130Y016096D02*
X006223Y016096D01*
X006302Y016174D02*
X006130Y016174D01*
X006130Y016253D02*
X006380Y016253D01*
X006459Y016331D02*
X006142Y016331D01*
X006221Y016410D02*
X008905Y016410D01*
X008826Y016331D02*
X007861Y016331D01*
X007940Y016253D02*
X008748Y016253D01*
X008669Y016174D02*
X008018Y016174D01*
X008097Y016096D02*
X008591Y016096D01*
X008512Y016017D02*
X008100Y016017D01*
X008100Y015939D02*
X008434Y015939D01*
X008355Y015860D02*
X008100Y015860D01*
X008100Y015782D02*
X008277Y015782D01*
X008198Y015703D02*
X008075Y015703D01*
X008120Y015625D02*
X007997Y015625D01*
X008160Y015410D02*
X007160Y015410D01*
X007041Y015546D02*
X006918Y015546D01*
X006997Y015625D02*
X007323Y015625D01*
X007245Y015703D02*
X007075Y015703D01*
X007100Y015782D02*
X007220Y015782D01*
X007220Y015860D02*
X007100Y015860D01*
X007100Y015939D02*
X007220Y015939D01*
X007220Y016017D02*
X007100Y016017D01*
X007097Y016096D02*
X007223Y016096D01*
X007302Y016174D02*
X007018Y016174D01*
X006940Y016253D02*
X007380Y016253D01*
X007459Y016331D02*
X006861Y016331D01*
X006860Y016488D02*
X007431Y016488D01*
X007469Y016450D02*
X007200Y016719D01*
X007200Y016870D01*
X007620Y016870D01*
X007620Y016950D01*
X007620Y017370D01*
X007469Y017370D01*
X007200Y017101D01*
X007200Y016950D01*
X007620Y016950D01*
X007700Y016950D01*
X007700Y017370D01*
X007851Y017370D01*
X008120Y017101D01*
X008120Y016950D01*
X007700Y016950D01*
X007700Y016870D01*
X008120Y016870D01*
X008120Y016719D01*
X007851Y016450D01*
X007700Y016450D01*
X007700Y016870D01*
X007620Y016870D01*
X007620Y016450D01*
X007469Y016450D01*
X007620Y016488D02*
X007700Y016488D01*
X007700Y016567D02*
X007620Y016567D01*
X007620Y016645D02*
X007700Y016645D01*
X007700Y016724D02*
X007620Y016724D01*
X007620Y016802D02*
X007700Y016802D01*
X007700Y016881D02*
X014230Y016881D01*
X014230Y016959D02*
X008120Y016959D01*
X008120Y017038D02*
X014230Y017038D01*
X014230Y017116D02*
X008104Y017116D01*
X008026Y017195D02*
X014230Y017195D01*
X014230Y017273D02*
X007947Y017273D01*
X007869Y017352D02*
X014230Y017352D01*
X014230Y017430D02*
X000350Y017430D01*
X000350Y017352D02*
X007451Y017352D01*
X007373Y017273D02*
X006919Y017273D01*
X006998Y017195D02*
X007294Y017195D01*
X007216Y017116D02*
X007076Y017116D01*
X007100Y017038D02*
X007200Y017038D01*
X007200Y016959D02*
X007100Y016959D01*
X007100Y016881D02*
X007620Y016881D01*
X007620Y016959D02*
X007700Y016959D01*
X007700Y017038D02*
X007620Y017038D01*
X007620Y017116D02*
X007700Y017116D01*
X007700Y017195D02*
X007620Y017195D01*
X007620Y017273D02*
X007700Y017273D01*
X007700Y017352D02*
X007620Y017352D01*
X007200Y016802D02*
X007100Y016802D01*
X007096Y016724D02*
X007200Y016724D01*
X007274Y016645D02*
X007017Y016645D01*
X006939Y016567D02*
X007353Y016567D01*
X007889Y016488D02*
X010342Y016488D01*
X010535Y016285D02*
X009035Y016285D01*
X008160Y015410D01*
X008160Y015160D02*
X007910Y015160D01*
X007660Y014910D01*
X007976Y014604D02*
X008105Y014604D01*
X008105Y014526D02*
X007898Y014526D01*
X008055Y014683D02*
X008105Y014683D01*
X008100Y014761D02*
X008105Y014761D01*
X008100Y014840D02*
X008105Y014840D01*
X008100Y014918D02*
X008105Y014918D01*
X008285Y015035D02*
X008785Y015535D01*
X010535Y015535D01*
X010815Y015546D02*
X014130Y015546D01*
X014130Y015591D02*
X014130Y015479D01*
X014173Y015376D01*
X014251Y015298D01*
X014354Y015255D01*
X014466Y015255D01*
X014569Y015298D01*
X014605Y015334D01*
X014605Y013876D01*
X014548Y013819D01*
X008465Y013819D01*
X008465Y013741D02*
X014515Y013741D01*
X014505Y013716D02*
X014505Y013604D01*
X014548Y013501D01*
X014626Y013423D01*
X014729Y013380D01*
X014841Y013380D01*
X014944Y013423D01*
X014980Y013459D01*
X014980Y012501D01*
X014923Y012444D01*
X014880Y012341D01*
X014880Y012229D01*
X014923Y012126D01*
X015001Y012048D01*
X015104Y012005D01*
X015216Y012005D01*
X015319Y012048D01*
X015397Y012126D01*
X015440Y012229D01*
X015440Y012341D01*
X015397Y012444D01*
X015340Y012501D01*
X015340Y013209D01*
X015376Y013173D01*
X015479Y013130D01*
X015591Y013130D01*
X015694Y013173D01*
X015730Y013209D01*
X015730Y012501D01*
X015673Y012444D01*
X015630Y012341D01*
X015630Y012229D01*
X015673Y012126D01*
X015751Y012048D01*
X015854Y012005D01*
X015966Y012005D01*
X016069Y012048D01*
X016105Y012084D01*
X016105Y010110D01*
X016060Y010065D01*
X015979Y010065D01*
X015876Y010022D01*
X015798Y009944D01*
X015755Y009841D01*
X015755Y009729D01*
X015798Y009626D01*
X015876Y009548D01*
X015979Y009505D01*
X016091Y009505D01*
X016194Y009548D01*
X016272Y009626D01*
X016315Y009729D01*
X016315Y009810D01*
X016360Y009855D01*
X016465Y009960D01*
X016465Y016069D01*
X016522Y016126D01*
X016565Y016229D01*
X016565Y016341D01*
X016522Y016444D01*
X016444Y016522D01*
X016341Y016565D01*
X016229Y016565D01*
X016126Y016522D01*
X016090Y016486D01*
X016090Y016944D01*
X016147Y017001D01*
X016190Y017104D01*
X016190Y017216D01*
X016147Y017319D01*
X016069Y017397D01*
X015966Y017440D01*
X015854Y017440D01*
X015751Y017397D01*
X015673Y017319D01*
X015630Y017216D01*
X015630Y017104D01*
X015673Y017001D01*
X015730Y016944D01*
X015730Y016861D01*
X015694Y016897D01*
X015591Y016940D01*
X015479Y016940D01*
X015376Y016897D01*
X015340Y016861D01*
X015340Y017694D01*
X015397Y017751D01*
X015440Y017854D01*
X015440Y017966D01*
X015397Y018069D01*
X015319Y018147D01*
X015216Y018190D01*
X015104Y018190D01*
X015001Y018147D01*
X014965Y018111D01*
X014965Y018194D01*
X015022Y018251D01*
X015065Y018354D01*
X015065Y018466D01*
X015022Y018569D01*
X014944Y018647D01*
X014841Y018690D01*
X014729Y018690D01*
X014626Y018647D01*
X014590Y018611D01*
X014590Y018694D01*
X014647Y018751D01*
X014690Y018854D01*
X014690Y018966D01*
X014647Y019069D01*
X014569Y019147D01*
X014466Y019190D01*
X014354Y019190D01*
X014251Y019147D01*
X014173Y019069D01*
X014130Y018966D01*
X014130Y018854D01*
X014173Y018751D01*
X014230Y018694D01*
X014230Y015751D01*
X014173Y015694D01*
X014130Y015591D01*
X014144Y015625D02*
X010801Y015625D01*
X010763Y015703D02*
X014182Y015703D01*
X014230Y015782D02*
X010671Y015782D01*
X010620Y016017D02*
X014230Y016017D01*
X014230Y015939D02*
X010440Y015939D01*
X010450Y016017D02*
X010419Y016017D01*
X010440Y015860D02*
X014230Y015860D01*
X014230Y016096D02*
X010742Y016096D01*
X010792Y016174D02*
X014230Y016174D01*
X014230Y016253D02*
X010815Y016253D01*
X010815Y016331D02*
X014230Y016331D01*
X014230Y016410D02*
X010786Y016410D01*
X010728Y016488D02*
X014230Y016488D01*
X014230Y016567D02*
X007967Y016567D01*
X008046Y016645D02*
X014230Y016645D01*
X014230Y016724D02*
X008120Y016724D01*
X008120Y016802D02*
X014230Y016802D01*
X014230Y017509D02*
X001435Y017509D01*
X001538Y017587D02*
X014230Y017587D01*
X014230Y017666D02*
X001601Y017666D01*
X001640Y017744D02*
X014230Y017744D01*
X014230Y017823D02*
X001662Y017823D01*
X001665Y017980D02*
X014230Y017980D01*
X014230Y018058D02*
X001646Y018058D01*
X001611Y018137D02*
X014230Y018137D01*
X014230Y018215D02*
X001555Y018215D01*
X001465Y018294D02*
X014230Y018294D01*
X014230Y018372D02*
X000350Y018372D01*
X000350Y018294D02*
X000355Y018294D01*
X000350Y018451D02*
X014230Y018451D01*
X014230Y018529D02*
X001440Y018529D01*
X001530Y018608D02*
X014230Y018608D01*
X014230Y018686D02*
X001593Y018686D01*
X001626Y018765D02*
X014167Y018765D01*
X014135Y018843D02*
X001650Y018843D01*
X001650Y018922D02*
X014130Y018922D01*
X014144Y019000D02*
X001649Y019000D01*
X001616Y019079D02*
X014183Y019079D01*
X014275Y019157D02*
X001584Y019157D01*
X001507Y019236D02*
X016605Y019236D01*
X016605Y019314D02*
X001384Y019314D01*
X000950Y018294D02*
X000870Y018294D01*
X000870Y018215D02*
X000950Y018215D01*
X000950Y018137D02*
X000870Y018137D01*
X000870Y018058D02*
X000950Y018058D01*
X000950Y017980D02*
X000870Y017980D01*
X000950Y017901D02*
X014230Y017901D01*
X014785Y018410D02*
X014785Y013660D01*
X014505Y013662D02*
X008465Y013662D01*
X008465Y013584D02*
X014514Y013584D01*
X014546Y013505D02*
X008465Y013505D01*
X008465Y013427D02*
X014622Y013427D01*
X014948Y013427D02*
X014980Y013427D01*
X014980Y013348D02*
X008465Y013348D01*
X008465Y013270D02*
X014980Y013270D01*
X014980Y013191D02*
X008523Y013191D01*
X008556Y013113D02*
X014980Y013113D01*
X014980Y013034D02*
X008565Y013034D01*
X008555Y012956D02*
X014980Y012956D01*
X014980Y012877D02*
X008523Y012877D01*
X008445Y012799D02*
X014980Y012799D01*
X014980Y012563D02*
X012590Y012563D01*
X012656Y012485D02*
X014964Y012485D01*
X014907Y012406D02*
X012689Y012406D01*
X012690Y012328D02*
X014880Y012328D01*
X014880Y012249D02*
X012672Y012249D01*
X012629Y012171D02*
X014904Y012171D01*
X014957Y012092D02*
X012590Y012092D01*
X012590Y012014D02*
X015084Y012014D01*
X015236Y012014D02*
X015834Y012014D01*
X015707Y012092D02*
X015363Y012092D01*
X015416Y012171D02*
X015654Y012171D01*
X015630Y012249D02*
X015440Y012249D01*
X015440Y012328D02*
X015630Y012328D01*
X015657Y012406D02*
X015413Y012406D01*
X015356Y012485D02*
X015714Y012485D01*
X015730Y012563D02*
X015340Y012563D01*
X015340Y012642D02*
X015730Y012642D01*
X015730Y012720D02*
X015340Y012720D01*
X015340Y012799D02*
X015730Y012799D01*
X015730Y012877D02*
X015340Y012877D01*
X015340Y012956D02*
X015730Y012956D01*
X015730Y013034D02*
X015340Y013034D01*
X015340Y013113D02*
X015730Y013113D01*
X015730Y013191D02*
X015712Y013191D01*
X015535Y013410D02*
X015535Y016660D01*
X015710Y016881D02*
X015730Y016881D01*
X015715Y016959D02*
X015340Y016959D01*
X015340Y016881D02*
X015360Y016881D01*
X015340Y017038D02*
X015658Y017038D01*
X015630Y017116D02*
X015340Y017116D01*
X015340Y017195D02*
X015630Y017195D01*
X015654Y017273D02*
X015340Y017273D01*
X015340Y017352D02*
X015706Y017352D01*
X015830Y017430D02*
X015340Y017430D01*
X015340Y017509D02*
X016605Y017509D01*
X016605Y017587D02*
X015340Y017587D01*
X015340Y017666D02*
X016605Y017666D01*
X016605Y017744D02*
X015390Y017744D01*
X015427Y017823D02*
X016605Y017823D01*
X016605Y017901D02*
X015440Y017901D01*
X015434Y017980D02*
X016605Y017980D01*
X016605Y018058D02*
X015402Y018058D01*
X015329Y018137D02*
X016605Y018137D01*
X016605Y018215D02*
X014986Y018215D01*
X014991Y018137D02*
X014965Y018137D01*
X015040Y018294D02*
X016605Y018294D01*
X016605Y018372D02*
X015065Y018372D01*
X015065Y018451D02*
X016605Y018451D01*
X016605Y018529D02*
X015039Y018529D01*
X014983Y018608D02*
X016605Y018608D01*
X016605Y018686D02*
X014850Y018686D01*
X014720Y018686D02*
X014590Y018686D01*
X014653Y018765D02*
X016605Y018765D01*
X016605Y018843D02*
X014685Y018843D01*
X014690Y018922D02*
X016605Y018922D01*
X016605Y019000D02*
X014676Y019000D01*
X014637Y019079D02*
X016605Y019079D01*
X016605Y019157D02*
X014545Y019157D01*
X014410Y018910D02*
X014410Y015535D01*
X014582Y015311D02*
X014605Y015311D01*
X014605Y015232D02*
X010433Y015232D01*
X010440Y015154D02*
X014605Y015154D01*
X014605Y015075D02*
X010428Y015075D01*
X010393Y014997D02*
X014605Y014997D01*
X014605Y014918D02*
X010308Y014918D01*
X010160Y015160D02*
X009160Y015160D01*
X009308Y014918D02*
X010012Y014918D01*
X010707Y015311D02*
X014238Y015311D01*
X014167Y015389D02*
X010778Y015389D01*
X010810Y015468D02*
X014135Y015468D01*
X014605Y014840D02*
X008465Y014840D01*
X008465Y014918D02*
X009012Y014918D01*
X008927Y014997D02*
X008501Y014997D01*
X008580Y015075D02*
X008892Y015075D01*
X008880Y015154D02*
X008658Y015154D01*
X008737Y015232D02*
X008887Y015232D01*
X008919Y015311D02*
X008815Y015311D01*
X008285Y015035D02*
X008285Y013035D01*
X007660Y013160D02*
X007660Y012785D01*
X007380Y012799D02*
X006130Y012799D01*
X006130Y012877D02*
X007395Y012877D01*
X007435Y012956D02*
X006130Y012956D01*
X006130Y013034D02*
X007480Y013034D01*
X007453Y013113D02*
X006130Y013113D01*
X006130Y013191D02*
X007374Y013191D01*
X007296Y013270D02*
X006130Y013270D01*
X006130Y013348D02*
X007217Y013348D01*
X007139Y013427D02*
X006130Y013427D01*
X006130Y013505D02*
X007060Y013505D01*
X006982Y013584D02*
X006130Y013584D01*
X006130Y013662D02*
X006903Y013662D01*
X006825Y013741D02*
X006130Y013741D01*
X006130Y013819D02*
X006746Y013819D01*
X006668Y013898D02*
X006130Y013898D01*
X006130Y013976D02*
X006589Y013976D01*
X006511Y014055D02*
X006130Y014055D01*
X006130Y014133D02*
X006432Y014133D01*
X006354Y014212D02*
X006130Y014212D01*
X006130Y014290D02*
X006275Y014290D01*
X006197Y014369D02*
X006130Y014369D01*
X006160Y014660D02*
X006160Y015410D01*
X006660Y015910D01*
X006460Y016488D02*
X006299Y016488D01*
X006378Y016567D02*
X006381Y016567D01*
X006069Y016881D02*
X000350Y016881D01*
X000350Y016959D02*
X006148Y016959D01*
X006220Y017038D02*
X000350Y017038D01*
X000350Y017116D02*
X006244Y017116D01*
X006322Y017195D02*
X000350Y017195D01*
X000350Y017273D02*
X006401Y017273D01*
X005991Y016802D02*
X000350Y016802D01*
X000350Y016724D02*
X005912Y016724D01*
X005834Y016645D02*
X000350Y016645D01*
X000350Y016567D02*
X005755Y016567D01*
X005690Y016488D02*
X000350Y016488D01*
X000350Y016410D02*
X005690Y016410D01*
X005690Y016331D02*
X000350Y016331D01*
X000350Y016253D02*
X005690Y016253D01*
X005690Y016174D02*
X000350Y016174D01*
X000350Y016096D02*
X005690Y016096D01*
X005690Y016017D02*
X000350Y016017D01*
X000350Y015939D02*
X005690Y015939D01*
X005690Y015860D02*
X000350Y015860D01*
X000350Y015782D02*
X005690Y015782D01*
X005690Y015703D02*
X000350Y015703D01*
X000350Y015625D02*
X005690Y015625D01*
X005690Y015546D02*
X000350Y015546D01*
X000350Y015468D02*
X005690Y015468D01*
X005690Y015389D02*
X000350Y015389D01*
X000350Y015311D02*
X000427Y015311D01*
X000388Y014526D02*
X000350Y014526D01*
X000350Y014447D02*
X005690Y014447D01*
X005690Y014369D02*
X000350Y014369D01*
X000350Y014290D02*
X000378Y014290D01*
X001442Y014290D02*
X005690Y014290D01*
X005690Y014212D02*
X001531Y014212D01*
X001594Y014133D02*
X005690Y014133D01*
X005690Y014055D02*
X001626Y014055D01*
X001650Y013976D02*
X005690Y013976D01*
X005690Y013898D02*
X001650Y013898D01*
X001649Y013819D02*
X005690Y013819D01*
X005690Y013741D02*
X001616Y013741D01*
X001584Y013662D02*
X005690Y013662D01*
X005690Y013584D02*
X001506Y013584D01*
X001432Y014526D02*
X005690Y014526D01*
X005690Y014604D02*
X001526Y014604D01*
X001592Y014683D02*
X005690Y014683D01*
X005690Y014761D02*
X001625Y014761D01*
X001650Y014840D02*
X005690Y014840D01*
X005690Y014918D02*
X001650Y014918D01*
X001650Y014997D02*
X005690Y014997D01*
X005690Y015075D02*
X001618Y015075D01*
X001585Y015154D02*
X005690Y015154D01*
X005690Y015232D02*
X001510Y015232D01*
X001393Y015311D02*
X005690Y015311D01*
X006160Y014660D02*
X007660Y013160D01*
X007384Y012720D02*
X006130Y012720D01*
X006130Y012642D02*
X007416Y012642D01*
X007486Y012563D02*
X006130Y012563D01*
X007410Y011285D02*
X007410Y008410D01*
X007160Y008160D01*
X007160Y006160D01*
X005910Y004910D01*
X005910Y000910D01*
X006350Y000945D02*
X006470Y000945D01*
X006470Y000867D02*
X006350Y000867D01*
X006350Y000788D02*
X006470Y000788D01*
X006470Y000710D02*
X006350Y000710D01*
X006350Y000631D02*
X006470Y000631D01*
X006470Y000553D02*
X006350Y000553D01*
X006350Y000522D02*
X006350Y001298D01*
X006283Y001459D01*
X006159Y001583D01*
X006090Y001612D01*
X006090Y004835D01*
X006730Y005475D01*
X006730Y001612D01*
X006661Y001583D01*
X006537Y001459D01*
X006470Y001298D01*
X006470Y000522D01*
X006537Y000361D01*
X006548Y000350D01*
X006272Y000350D01*
X006283Y000361D01*
X006350Y000522D01*
X006330Y000474D02*
X006490Y000474D01*
X006523Y000396D02*
X006297Y000396D01*
X006350Y001024D02*
X006470Y001024D01*
X006470Y001102D02*
X006350Y001102D01*
X006350Y001181D02*
X006470Y001181D01*
X006470Y001259D02*
X006350Y001259D01*
X006333Y001338D02*
X006487Y001338D01*
X006519Y001416D02*
X006301Y001416D01*
X006248Y001495D02*
X006572Y001495D01*
X006651Y001573D02*
X006169Y001573D01*
X006090Y001652D02*
X006730Y001652D01*
X006730Y001730D02*
X006090Y001730D01*
X006090Y001809D02*
X006730Y001809D01*
X006730Y001887D02*
X006090Y001887D01*
X006090Y001966D02*
X006730Y001966D01*
X006730Y002044D02*
X006090Y002044D01*
X006090Y002123D02*
X006730Y002123D01*
X006730Y002201D02*
X006090Y002201D01*
X006090Y002280D02*
X006730Y002280D01*
X006730Y002358D02*
X006090Y002358D01*
X006090Y002437D02*
X006730Y002437D01*
X006730Y002515D02*
X006090Y002515D01*
X006090Y002594D02*
X006730Y002594D01*
X006730Y002672D02*
X006090Y002672D01*
X006090Y002751D02*
X006730Y002751D01*
X006730Y002829D02*
X006090Y002829D01*
X006090Y002908D02*
X006730Y002908D01*
X006730Y002986D02*
X006090Y002986D01*
X006090Y003065D02*
X006730Y003065D01*
X006730Y003143D02*
X006090Y003143D01*
X006090Y003222D02*
X006730Y003222D01*
X006730Y003300D02*
X006090Y003300D01*
X006090Y003379D02*
X006730Y003379D01*
X006730Y003457D02*
X006090Y003457D01*
X006090Y003536D02*
X006730Y003536D01*
X006730Y003614D02*
X006090Y003614D01*
X006090Y003693D02*
X006730Y003693D01*
X006730Y003771D02*
X006090Y003771D01*
X006090Y003850D02*
X006730Y003850D01*
X006730Y003928D02*
X006090Y003928D01*
X006090Y004007D02*
X006730Y004007D01*
X006730Y004085D02*
X006090Y004085D01*
X006090Y004164D02*
X006730Y004164D01*
X006730Y004242D02*
X006090Y004242D01*
X006090Y004321D02*
X006730Y004321D01*
X006730Y004399D02*
X006090Y004399D01*
X006090Y004478D02*
X006730Y004478D01*
X006730Y004556D02*
X006090Y004556D01*
X006090Y004635D02*
X006730Y004635D01*
X006730Y004713D02*
X006090Y004713D01*
X006090Y004792D02*
X006730Y004792D01*
X006730Y004870D02*
X006125Y004870D01*
X006203Y004949D02*
X006730Y004949D01*
X006730Y005027D02*
X006282Y005027D01*
X006360Y005106D02*
X006730Y005106D01*
X006730Y005184D02*
X006439Y005184D01*
X006517Y005263D02*
X006730Y005263D01*
X006730Y005341D02*
X006596Y005341D01*
X006674Y005420D02*
X006730Y005420D01*
X006910Y005410D02*
X006910Y000910D01*
X007350Y000945D02*
X007470Y000945D01*
X007470Y000867D02*
X007350Y000867D01*
X007350Y000788D02*
X007470Y000788D01*
X007470Y000710D02*
X007350Y000710D01*
X007350Y000631D02*
X007470Y000631D01*
X007470Y000553D02*
X007350Y000553D01*
X007350Y000522D02*
X007350Y001298D01*
X007283Y001459D01*
X007159Y001583D01*
X007090Y001612D01*
X007090Y005335D01*
X007590Y005835D01*
X007590Y007531D01*
X007605Y007537D01*
X007605Y005690D01*
X007604Y005690D01*
X007501Y005647D01*
X007423Y005569D01*
X007380Y005466D01*
X007380Y005354D01*
X007423Y005251D01*
X007501Y005173D01*
X007604Y005130D01*
X007716Y005130D01*
X007819Y005173D01*
X007855Y005209D01*
X007855Y004360D01*
X007855Y004210D01*
X010355Y001710D01*
X010460Y001605D01*
X010714Y001605D01*
X010661Y001583D01*
X010537Y001459D01*
X010470Y001298D01*
X010470Y000522D01*
X010537Y000361D01*
X010548Y000350D01*
X010272Y000350D01*
X010283Y000361D01*
X010350Y000522D01*
X010350Y001298D01*
X010283Y001459D01*
X010159Y001583D01*
X009998Y001650D01*
X009822Y001650D01*
X009661Y001583D01*
X009537Y001459D01*
X009470Y001298D01*
X009470Y000522D01*
X009537Y000361D01*
X009548Y000350D01*
X009272Y000350D01*
X009283Y000361D01*
X009350Y000522D01*
X009350Y001298D01*
X009283Y001459D01*
X009159Y001583D01*
X008998Y001650D01*
X008822Y001650D01*
X008661Y001583D01*
X008537Y001459D01*
X008470Y001298D01*
X008470Y000522D01*
X008537Y000361D01*
X008548Y000350D01*
X008272Y000350D01*
X008283Y000361D01*
X008350Y000522D01*
X008350Y001298D01*
X008283Y001459D01*
X008159Y001583D01*
X007998Y001650D01*
X007822Y001650D01*
X007661Y001583D01*
X007537Y001459D01*
X007470Y001298D01*
X007470Y000522D01*
X007537Y000361D01*
X007548Y000350D01*
X007272Y000350D01*
X007283Y000361D01*
X007350Y000522D01*
X007330Y000474D02*
X007490Y000474D01*
X007523Y000396D02*
X007297Y000396D01*
X007350Y001024D02*
X007470Y001024D01*
X007470Y001102D02*
X007350Y001102D01*
X007350Y001181D02*
X007470Y001181D01*
X007470Y001259D02*
X007350Y001259D01*
X007333Y001338D02*
X007487Y001338D01*
X007519Y001416D02*
X007301Y001416D01*
X007248Y001495D02*
X007572Y001495D01*
X007651Y001573D02*
X007169Y001573D01*
X007090Y001652D02*
X010414Y001652D01*
X010335Y001730D02*
X007090Y001730D01*
X007090Y001809D02*
X010257Y001809D01*
X010178Y001887D02*
X007090Y001887D01*
X007090Y001966D02*
X010100Y001966D01*
X010021Y002044D02*
X007090Y002044D01*
X007090Y002123D02*
X009943Y002123D01*
X009864Y002201D02*
X007090Y002201D01*
X007090Y002280D02*
X009786Y002280D01*
X009707Y002358D02*
X007090Y002358D01*
X007090Y002437D02*
X009629Y002437D01*
X009550Y002515D02*
X007090Y002515D01*
X007090Y002594D02*
X009472Y002594D01*
X009393Y002672D02*
X007090Y002672D01*
X007090Y002751D02*
X009315Y002751D01*
X009236Y002829D02*
X007090Y002829D01*
X007090Y002908D02*
X009158Y002908D01*
X009079Y002986D02*
X007090Y002986D01*
X007090Y003065D02*
X009001Y003065D01*
X008922Y003143D02*
X007090Y003143D01*
X007090Y003222D02*
X008844Y003222D01*
X008765Y003300D02*
X007090Y003300D01*
X007090Y003379D02*
X008687Y003379D01*
X008608Y003457D02*
X007090Y003457D01*
X007090Y003536D02*
X008530Y003536D01*
X008451Y003614D02*
X007090Y003614D01*
X007090Y003693D02*
X008373Y003693D01*
X008294Y003771D02*
X007090Y003771D01*
X007090Y003850D02*
X008216Y003850D01*
X008137Y003928D02*
X007090Y003928D01*
X007090Y004007D02*
X008059Y004007D01*
X007980Y004085D02*
X007090Y004085D01*
X007090Y004164D02*
X007902Y004164D01*
X007855Y004242D02*
X007090Y004242D01*
X007090Y004321D02*
X007855Y004321D01*
X007855Y004399D02*
X007090Y004399D01*
X007090Y004478D02*
X007855Y004478D01*
X007855Y004556D02*
X007090Y004556D01*
X007090Y004635D02*
X007855Y004635D01*
X007855Y004713D02*
X007090Y004713D01*
X007090Y004792D02*
X007855Y004792D01*
X007855Y004870D02*
X007090Y004870D01*
X007090Y004949D02*
X007855Y004949D01*
X007855Y005027D02*
X007090Y005027D01*
X007090Y005106D02*
X007855Y005106D01*
X007855Y005184D02*
X007830Y005184D01*
X007660Y005410D02*
X007785Y005535D01*
X007785Y009410D01*
X007710Y009485D01*
X007710Y009585D01*
X007230Y009580D02*
X006130Y009580D01*
X006130Y009502D02*
X007230Y009502D01*
X007230Y009423D02*
X006130Y009423D01*
X006130Y009345D02*
X007230Y009345D01*
X007230Y009266D02*
X006130Y009266D01*
X006130Y009188D02*
X007230Y009188D01*
X007230Y009109D02*
X006130Y009109D01*
X006130Y009031D02*
X007230Y009031D01*
X007230Y008952D02*
X006212Y008952D01*
X006248Y008874D02*
X007230Y008874D01*
X007230Y008795D02*
X006248Y008795D01*
X006248Y008717D02*
X007230Y008717D01*
X007230Y008638D02*
X006248Y008638D01*
X006248Y008560D02*
X007230Y008560D01*
X007226Y008481D02*
X006248Y008481D01*
X006247Y008403D02*
X007148Y008403D01*
X007069Y008324D02*
X006168Y008324D01*
X006991Y008246D02*
X002969Y008246D01*
X002969Y008167D02*
X006980Y008167D01*
X006980Y008089D02*
X002969Y008089D01*
X002969Y008010D02*
X006980Y008010D01*
X006980Y007932D02*
X002969Y007932D01*
X002969Y007853D02*
X006980Y007853D01*
X006980Y007775D02*
X002969Y007775D01*
X002969Y007696D02*
X006980Y007696D01*
X006980Y007618D02*
X002969Y007618D01*
X002969Y007539D02*
X006980Y007539D01*
X006980Y007461D02*
X002969Y007461D01*
X002951Y007382D02*
X006980Y007382D01*
X006980Y007304D02*
X002952Y007304D01*
X002969Y007225D02*
X006980Y007225D01*
X006980Y007147D02*
X002969Y007147D01*
X002969Y007068D02*
X006980Y007068D01*
X006980Y006990D02*
X003074Y006990D01*
X003129Y006911D02*
X006980Y006911D01*
X006980Y006833D02*
X003129Y006833D01*
X003097Y006754D02*
X006980Y006754D01*
X006980Y006676D02*
X003075Y006676D01*
X003075Y006597D02*
X006980Y006597D01*
X006980Y006519D02*
X003000Y006519D01*
X002789Y006807D02*
X002789Y006861D01*
X002575Y006861D01*
X002575Y006914D02*
X002575Y006807D01*
X002575Y007053D02*
X002789Y007053D01*
X002789Y007213D01*
X002735Y007266D01*
X002575Y007266D01*
X002895Y006861D02*
X002949Y006861D01*
X002789Y006039D02*
X002575Y006039D01*
X002735Y006039D02*
X002735Y005825D01*
X002789Y005825D02*
X002575Y005825D01*
X002789Y005825D02*
X002895Y005932D01*
X002789Y006039D01*
X002437Y008717D02*
X001606Y008717D01*
X001639Y008795D02*
X002395Y008795D01*
X002395Y008874D02*
X001650Y008874D01*
X001650Y008952D02*
X002395Y008952D01*
X002395Y009031D02*
X001636Y009031D01*
X001604Y009109D02*
X002395Y009109D01*
X002395Y009188D02*
X001555Y009188D01*
X001476Y009266D02*
X002401Y009266D01*
X002395Y009345D02*
X001311Y009345D01*
X001374Y009502D02*
X002395Y009502D01*
X002395Y009580D02*
X001502Y009580D01*
X001581Y009659D02*
X002395Y009659D01*
X002395Y009737D02*
X001615Y009737D01*
X001647Y009816D02*
X002384Y009816D01*
X002400Y009894D02*
X001650Y009894D01*
X001650Y009973D02*
X002395Y009973D01*
X002395Y010051D02*
X001628Y010051D01*
X001595Y010130D02*
X002395Y010130D01*
X002395Y010208D02*
X001534Y010208D01*
X001451Y010287D02*
X002395Y010287D01*
X002414Y010365D02*
X000350Y010365D01*
X000350Y010287D02*
X000369Y010287D01*
X000350Y010444D02*
X002395Y010444D01*
X002395Y010522D02*
X001423Y010522D01*
X001523Y010601D02*
X002463Y010601D01*
X002575Y010458D02*
X002735Y010458D01*
X002789Y010405D01*
X002789Y010245D01*
X002575Y010245D01*
X002575Y010106D02*
X002575Y009999D01*
X002575Y010053D02*
X002789Y010053D01*
X002789Y009999D01*
X002895Y010053D02*
X002949Y010053D01*
X002789Y009852D02*
X002682Y009692D01*
X002575Y009852D01*
X002575Y009692D02*
X002895Y009692D01*
X002789Y009538D02*
X002789Y009377D01*
X002735Y009324D01*
X002628Y009324D01*
X002575Y009377D01*
X002575Y009538D01*
X002395Y009423D02*
X000350Y009423D01*
X000350Y009345D02*
X000509Y009345D01*
X000446Y009502D02*
X000350Y009502D01*
X000350Y010522D02*
X000397Y010522D01*
X000419Y011307D02*
X000350Y011307D01*
X000350Y011543D02*
X000355Y011543D01*
X000350Y012328D02*
X000468Y012328D01*
X001591Y010679D02*
X004375Y010679D01*
X004454Y010601D02*
X002847Y010601D01*
X002789Y010981D02*
X002628Y010981D01*
X002575Y011035D01*
X002628Y011088D01*
X002575Y011142D01*
X002628Y011195D01*
X002789Y011195D01*
X002789Y011350D02*
X002789Y011403D01*
X002575Y011403D01*
X002575Y011350D02*
X002575Y011456D01*
X002575Y011595D02*
X002789Y011595D01*
X002789Y011755D01*
X002735Y011809D01*
X002575Y011809D01*
X002575Y011964D02*
X002789Y011964D01*
X002789Y012124D01*
X002735Y012177D01*
X002575Y012177D01*
X002895Y011403D02*
X002949Y011403D01*
X002575Y009185D02*
X002575Y009078D01*
X002575Y009132D02*
X002789Y009132D01*
X002789Y009078D01*
X002895Y009132D02*
X002949Y009132D01*
X002575Y008940D02*
X002575Y008833D01*
X002575Y008886D02*
X002895Y008886D01*
X002895Y008833D01*
X006130Y009659D02*
X007230Y009659D01*
X007230Y009737D02*
X006130Y009737D01*
X006130Y009816D02*
X007230Y009816D01*
X007230Y009894D02*
X006130Y009894D01*
X006130Y009973D02*
X007230Y009973D01*
X007230Y010051D02*
X006130Y010051D01*
X006130Y010130D02*
X007230Y010130D01*
X007230Y010208D02*
X006130Y010208D01*
X006130Y010287D02*
X007230Y010287D01*
X007230Y010365D02*
X006130Y010365D01*
X007410Y011285D02*
X008035Y011910D01*
X008035Y011410D02*
X008035Y004285D01*
X010535Y001785D01*
X011535Y001785D01*
X011910Y001410D01*
X011910Y000910D01*
X012910Y000910D02*
X012910Y001535D01*
X012410Y002035D01*
X010660Y002035D01*
X008410Y004285D01*
X008410Y008160D01*
X008264Y008403D02*
X008215Y008403D01*
X008215Y008481D02*
X008380Y008481D01*
X008380Y008560D02*
X008215Y008560D01*
X008215Y008638D02*
X008400Y008638D01*
X008446Y008717D02*
X008215Y008717D01*
X008215Y008795D02*
X008556Y008795D01*
X008764Y008795D02*
X012230Y008795D01*
X012230Y008717D02*
X008874Y008717D01*
X008920Y008638D02*
X012230Y008638D01*
X012230Y008560D02*
X008940Y008560D01*
X008965Y008481D02*
X012230Y008481D01*
X012230Y008403D02*
X008965Y008403D01*
X008965Y008324D02*
X012230Y008324D01*
X012230Y008246D02*
X008965Y008246D01*
X008965Y008167D02*
X012230Y008167D01*
X012230Y008089D02*
X008965Y008089D01*
X008965Y008010D02*
X012230Y008010D01*
X012259Y007932D02*
X008965Y007932D01*
X008965Y007853D02*
X012337Y007853D01*
X012410Y008035D02*
X012660Y007785D01*
X012660Y004785D01*
X013410Y004035D01*
X013410Y003535D01*
X013690Y003536D02*
X015355Y003536D01*
X015355Y003614D02*
X013680Y003614D01*
X013648Y003693D02*
X015355Y003693D01*
X015355Y003771D02*
X013590Y003771D01*
X013590Y003850D02*
X015355Y003850D01*
X015355Y003928D02*
X014949Y003928D01*
X014944Y003923D02*
X015022Y004001D01*
X015065Y004104D01*
X015065Y004216D01*
X015022Y004319D01*
X014965Y004376D01*
X014965Y008960D01*
X015090Y009085D01*
X015090Y010444D01*
X015147Y010501D01*
X015190Y010604D01*
X015190Y010716D01*
X015147Y010819D01*
X015069Y010897D01*
X014966Y010940D01*
X014854Y010940D01*
X014751Y010897D01*
X014673Y010819D01*
X014630Y010716D01*
X014630Y010604D01*
X014673Y010501D01*
X014730Y010444D01*
X014730Y009986D01*
X014694Y010022D01*
X014591Y010065D01*
X014479Y010065D01*
X014376Y010022D01*
X014298Y009944D01*
X014255Y009841D01*
X014255Y009799D01*
X014216Y009815D01*
X014104Y009815D01*
X014001Y009772D01*
X013923Y009694D01*
X013880Y009591D01*
X013880Y009549D01*
X013841Y009565D01*
X013729Y009565D01*
X013626Y009522D01*
X013548Y009444D01*
X013505Y009341D01*
X013505Y009260D01*
X013480Y009235D01*
X013480Y005251D01*
X013423Y005194D01*
X013380Y005091D01*
X013380Y004979D01*
X013423Y004876D01*
X013501Y004798D01*
X013604Y004755D01*
X013716Y004755D01*
X013755Y004771D01*
X013755Y004729D01*
X013798Y004626D01*
X013876Y004548D01*
X013979Y004505D01*
X014091Y004505D01*
X014130Y004521D01*
X014130Y004479D01*
X014173Y004376D01*
X014251Y004298D01*
X014354Y004255D01*
X014466Y004255D01*
X014533Y004283D01*
X014505Y004216D01*
X014505Y004104D01*
X014548Y004001D01*
X014626Y003923D01*
X014729Y003880D01*
X014841Y003880D01*
X014944Y003923D01*
X015024Y004007D02*
X015355Y004007D01*
X015355Y004085D02*
X015057Y004085D01*
X015065Y004164D02*
X015355Y004164D01*
X015355Y004242D02*
X015054Y004242D01*
X015020Y004321D02*
X015355Y004321D01*
X015355Y004399D02*
X014965Y004399D01*
X014965Y004478D02*
X015355Y004478D01*
X015355Y004556D02*
X014965Y004556D01*
X014965Y004635D02*
X015355Y004635D01*
X015355Y004713D02*
X014965Y004713D01*
X014965Y004792D02*
X015355Y004792D01*
X015355Y004870D02*
X014965Y004870D01*
X014965Y004949D02*
X015355Y004949D01*
X015355Y005027D02*
X014965Y005027D01*
X014965Y005106D02*
X015355Y005106D01*
X015355Y005184D02*
X014965Y005184D01*
X014965Y005263D02*
X015355Y005263D01*
X015355Y005341D02*
X014965Y005341D01*
X014965Y005420D02*
X015355Y005420D01*
X015355Y005498D02*
X014965Y005498D01*
X014965Y005577D02*
X015355Y005577D01*
X015355Y005655D02*
X014965Y005655D01*
X014965Y005734D02*
X015355Y005734D01*
X015355Y005812D02*
X014965Y005812D01*
X014965Y005891D02*
X015355Y005891D01*
X015355Y005969D02*
X014965Y005969D01*
X014965Y006048D02*
X015355Y006048D01*
X015355Y006126D02*
X014965Y006126D01*
X014965Y006205D02*
X015355Y006205D01*
X015355Y006283D02*
X014965Y006283D01*
X014965Y006362D02*
X015355Y006362D01*
X015355Y006440D02*
X014965Y006440D01*
X014965Y006519D02*
X015355Y006519D01*
X015355Y006597D02*
X014965Y006597D01*
X014965Y006676D02*
X015355Y006676D01*
X015355Y006754D02*
X014965Y006754D01*
X014965Y006833D02*
X015355Y006833D01*
X015355Y006911D02*
X014965Y006911D01*
X014965Y006990D02*
X015355Y006990D01*
X015355Y007068D02*
X014965Y007068D01*
X014965Y007147D02*
X015355Y007147D01*
X015355Y007225D02*
X014965Y007225D01*
X014965Y007304D02*
X015355Y007304D01*
X015355Y007382D02*
X014965Y007382D01*
X014965Y007461D02*
X015355Y007461D01*
X015355Y007539D02*
X014965Y007539D01*
X014965Y007618D02*
X015355Y007618D01*
X015355Y007696D02*
X014965Y007696D01*
X014965Y007775D02*
X015355Y007775D01*
X015355Y007853D02*
X014965Y007853D01*
X014965Y007932D02*
X015355Y007932D01*
X015355Y008010D02*
X014965Y008010D01*
X014965Y008089D02*
X015355Y008089D01*
X015355Y008167D02*
X014965Y008167D01*
X014965Y008246D02*
X015355Y008246D01*
X015355Y008324D02*
X014965Y008324D01*
X014965Y008403D02*
X015355Y008403D01*
X015355Y008481D02*
X014965Y008481D01*
X014965Y008560D02*
X015355Y008560D01*
X015355Y008638D02*
X014965Y008638D01*
X014965Y008717D02*
X015355Y008717D01*
X015355Y008795D02*
X014965Y008795D01*
X014965Y008874D02*
X015355Y008874D01*
X015355Y008952D02*
X014965Y008952D01*
X015035Y009031D02*
X015355Y009031D01*
X015355Y009109D02*
X015090Y009109D01*
X015090Y009188D02*
X015355Y009188D01*
X015355Y009266D02*
X015090Y009266D01*
X015090Y009345D02*
X015355Y009345D01*
X015355Y009423D02*
X015090Y009423D01*
X015090Y009502D02*
X015355Y009502D01*
X015355Y009580D02*
X015090Y009580D01*
X015090Y009659D02*
X015355Y009659D01*
X015355Y009737D02*
X015090Y009737D01*
X015090Y009816D02*
X015355Y009816D01*
X015355Y009894D02*
X015090Y009894D01*
X015090Y009973D02*
X015326Y009973D01*
X015277Y010051D02*
X015090Y010051D01*
X015090Y010130D02*
X015255Y010130D01*
X015255Y010208D02*
X015090Y010208D01*
X015090Y010287D02*
X015284Y010287D01*
X015344Y010365D02*
X015090Y010365D01*
X015090Y010444D02*
X016105Y010444D01*
X016105Y010522D02*
X015156Y010522D01*
X015188Y010601D02*
X016105Y010601D01*
X016105Y010679D02*
X015190Y010679D01*
X015173Y010758D02*
X016105Y010758D01*
X016105Y010836D02*
X015130Y010836D01*
X015027Y010915D02*
X016105Y010915D01*
X016105Y010993D02*
X012590Y010993D01*
X012590Y010915D02*
X014793Y010915D01*
X014690Y010836D02*
X012590Y010836D01*
X012590Y010758D02*
X014647Y010758D01*
X014630Y010679D02*
X012590Y010679D01*
X012590Y010601D02*
X014632Y010601D01*
X014664Y010522D02*
X012590Y010522D01*
X012590Y010444D02*
X014730Y010444D01*
X014730Y010365D02*
X012590Y010365D01*
X012590Y010287D02*
X014730Y010287D01*
X014730Y010208D02*
X012590Y010208D01*
X012590Y010130D02*
X014730Y010130D01*
X014730Y010051D02*
X014624Y010051D01*
X014446Y010051D02*
X012590Y010051D01*
X012590Y009973D02*
X014327Y009973D01*
X014277Y009894D02*
X012590Y009894D01*
X012590Y009816D02*
X014255Y009816D01*
X014535Y009785D02*
X014535Y009160D01*
X014285Y008910D01*
X014285Y005160D01*
X014410Y005035D01*
X014410Y004535D01*
X014229Y004321D02*
X013379Y004321D01*
X013301Y004399D02*
X014163Y004399D01*
X014131Y004478D02*
X013222Y004478D01*
X013144Y004556D02*
X013868Y004556D01*
X013794Y004635D02*
X013065Y004635D01*
X012987Y004713D02*
X013762Y004713D01*
X013516Y004792D02*
X012908Y004792D01*
X012840Y004870D02*
X013429Y004870D01*
X013393Y004949D02*
X012840Y004949D01*
X012840Y005027D02*
X013380Y005027D01*
X013386Y005106D02*
X012840Y005106D01*
X012840Y005184D02*
X013419Y005184D01*
X013480Y005263D02*
X012840Y005263D01*
X012840Y005341D02*
X013480Y005341D01*
X013480Y005420D02*
X012840Y005420D01*
X012840Y005498D02*
X013480Y005498D01*
X013480Y005577D02*
X012840Y005577D01*
X012840Y005655D02*
X013480Y005655D01*
X013480Y005734D02*
X012840Y005734D01*
X012840Y005812D02*
X013480Y005812D01*
X013480Y005891D02*
X012840Y005891D01*
X012840Y005969D02*
X013480Y005969D01*
X013480Y006048D02*
X012840Y006048D01*
X012840Y006126D02*
X013480Y006126D01*
X013480Y006205D02*
X012840Y006205D01*
X012840Y006283D02*
X013480Y006283D01*
X013480Y006362D02*
X012840Y006362D01*
X012840Y006440D02*
X013480Y006440D01*
X013480Y006519D02*
X012840Y006519D01*
X012840Y006597D02*
X013480Y006597D01*
X013480Y006676D02*
X012840Y006676D01*
X012840Y006754D02*
X013480Y006754D01*
X013480Y006833D02*
X012840Y006833D01*
X012840Y006911D02*
X013480Y006911D01*
X013480Y006990D02*
X012840Y006990D01*
X012840Y007068D02*
X013480Y007068D01*
X013480Y007147D02*
X012840Y007147D01*
X012840Y007225D02*
X013480Y007225D01*
X013480Y007304D02*
X012840Y007304D01*
X012840Y007382D02*
X013480Y007382D01*
X013480Y007461D02*
X012840Y007461D01*
X012840Y007539D02*
X013480Y007539D01*
X013480Y007618D02*
X012840Y007618D01*
X012840Y007696D02*
X013480Y007696D01*
X013480Y007775D02*
X012840Y007775D01*
X012840Y007853D02*
X013480Y007853D01*
X013480Y007932D02*
X012768Y007932D01*
X012690Y008010D02*
X013480Y008010D01*
X013480Y008089D02*
X012611Y008089D01*
X012590Y008167D02*
X013480Y008167D01*
X013480Y008246D02*
X012590Y008246D01*
X012590Y008324D02*
X013480Y008324D01*
X013480Y008403D02*
X012590Y008403D01*
X012590Y008481D02*
X013480Y008481D01*
X013480Y008560D02*
X012590Y008560D01*
X012590Y008638D02*
X013480Y008638D01*
X013480Y008717D02*
X012590Y008717D01*
X012590Y008795D02*
X013480Y008795D01*
X013480Y008874D02*
X012590Y008874D01*
X012590Y008952D02*
X013480Y008952D01*
X013480Y009031D02*
X012590Y009031D01*
X012590Y009109D02*
X013480Y009109D01*
X013480Y009188D02*
X012590Y009188D01*
X012590Y009266D02*
X013505Y009266D01*
X013507Y009345D02*
X012590Y009345D01*
X012590Y009423D02*
X013539Y009423D01*
X013606Y009502D02*
X012590Y009502D01*
X012590Y009580D02*
X013880Y009580D01*
X013908Y009659D02*
X012590Y009659D01*
X012590Y009737D02*
X013966Y009737D01*
X014160Y009535D02*
X014160Y009160D01*
X014035Y009035D01*
X014035Y004785D01*
X013660Y005035D02*
X013660Y009160D01*
X013785Y009285D01*
X014785Y009035D02*
X014785Y004160D01*
X014505Y004164D02*
X013536Y004164D01*
X013590Y004085D02*
X014513Y004085D01*
X014546Y004007D02*
X013590Y004007D01*
X013590Y003928D02*
X014621Y003928D01*
X014516Y004242D02*
X013458Y004242D01*
X013035Y003910D02*
X012410Y004535D01*
X012410Y007410D01*
X012285Y007535D01*
X012005Y007539D02*
X010703Y007539D01*
X010805Y007461D02*
X012013Y007461D01*
X012045Y007382D02*
X010848Y007382D01*
X010993Y007304D02*
X011952Y007304D01*
X011829Y007225D02*
X011116Y007225D01*
X011167Y007147D02*
X011778Y007147D01*
X011755Y007068D02*
X011190Y007068D01*
X011190Y006990D02*
X011755Y006990D01*
X011783Y006911D02*
X011162Y006911D01*
X011104Y006833D02*
X011841Y006833D01*
X011837Y006754D02*
X011855Y006754D01*
X011660Y006535D02*
X011660Y002785D01*
X011910Y002535D01*
X013535Y002535D01*
X014910Y001160D01*
X014910Y000910D01*
X015910Y000910D02*
X015910Y001160D01*
X014285Y002785D01*
X012285Y002785D01*
X012035Y003035D01*
X012035Y007035D01*
X012228Y006833D02*
X012230Y006833D01*
X012230Y006754D02*
X012215Y006754D01*
X012215Y006676D02*
X012230Y006676D01*
X012230Y006597D02*
X012215Y006597D01*
X012215Y006519D02*
X012230Y006519D01*
X012230Y006440D02*
X012215Y006440D01*
X012215Y006362D02*
X012230Y006362D01*
X012230Y006283D02*
X012215Y006283D01*
X012215Y006205D02*
X012230Y006205D01*
X012230Y006126D02*
X012215Y006126D01*
X012215Y006048D02*
X012230Y006048D01*
X012230Y005969D02*
X012215Y005969D01*
X012215Y005891D02*
X012230Y005891D01*
X012230Y005812D02*
X012215Y005812D01*
X012215Y005734D02*
X012230Y005734D01*
X012230Y005655D02*
X012215Y005655D01*
X012215Y005577D02*
X012230Y005577D01*
X012230Y005498D02*
X012215Y005498D01*
X012215Y005420D02*
X012230Y005420D01*
X012230Y005341D02*
X012215Y005341D01*
X012215Y005263D02*
X012230Y005263D01*
X012230Y005184D02*
X012215Y005184D01*
X012215Y005106D02*
X012230Y005106D01*
X012230Y005027D02*
X012215Y005027D01*
X012215Y004949D02*
X012230Y004949D01*
X012230Y004870D02*
X012215Y004870D01*
X012215Y004792D02*
X012230Y004792D01*
X012230Y004713D02*
X012215Y004713D01*
X012215Y004635D02*
X012230Y004635D01*
X012230Y004556D02*
X012215Y004556D01*
X012215Y004478D02*
X012230Y004478D01*
X012215Y004399D02*
X012291Y004399D01*
X012215Y004321D02*
X012370Y004321D01*
X012448Y004242D02*
X012215Y004242D01*
X012215Y004164D02*
X012527Y004164D01*
X012605Y004085D02*
X012215Y004085D01*
X012215Y004007D02*
X012684Y004007D01*
X012755Y003928D02*
X012215Y003928D01*
X012215Y003850D02*
X012757Y003850D01*
X012790Y003771D02*
X012215Y003771D01*
X012215Y003693D02*
X012857Y003693D01*
X013140Y003614D02*
X012215Y003614D01*
X012215Y003536D02*
X013130Y003536D01*
X013139Y003457D02*
X012215Y003457D01*
X012215Y003379D02*
X013172Y003379D01*
X013249Y003300D02*
X012215Y003300D01*
X012215Y003222D02*
X015355Y003222D01*
X015355Y003300D02*
X013571Y003300D01*
X013648Y003379D02*
X015355Y003379D01*
X015355Y003457D02*
X013681Y003457D01*
X014417Y002908D02*
X015408Y002908D01*
X015355Y002986D02*
X012339Y002986D01*
X012260Y003065D02*
X015355Y003065D01*
X015355Y003143D02*
X012215Y003143D01*
X011675Y002515D02*
X010935Y002515D01*
X010985Y002465D02*
X010545Y002905D01*
X010604Y002880D01*
X010716Y002880D01*
X010819Y002923D01*
X010897Y003001D01*
X010940Y003104D01*
X010940Y003216D01*
X010897Y003319D01*
X010840Y003376D01*
X010840Y003735D01*
X010735Y003840D01*
X010735Y003840D01*
X010715Y003860D01*
X010715Y006834D01*
X010730Y006819D01*
X010730Y006585D01*
X011068Y006248D01*
X011068Y006167D01*
X011110Y006064D01*
X011189Y005985D01*
X011292Y005943D01*
X011403Y005943D01*
X011480Y005974D01*
X011480Y002860D01*
X011480Y002710D01*
X011725Y002465D01*
X010985Y002465D01*
X010856Y002594D02*
X011597Y002594D01*
X011518Y002672D02*
X010778Y002672D01*
X010699Y002751D02*
X011480Y002751D01*
X011480Y002829D02*
X010621Y002829D01*
X010782Y002908D02*
X011480Y002908D01*
X011480Y002986D02*
X010882Y002986D01*
X010924Y003065D02*
X011480Y003065D01*
X011480Y003143D02*
X010940Y003143D01*
X010938Y003222D02*
X011480Y003222D01*
X011480Y003300D02*
X010905Y003300D01*
X010840Y003379D02*
X011480Y003379D01*
X011480Y003457D02*
X010840Y003457D01*
X010840Y003536D02*
X011480Y003536D01*
X011480Y003614D02*
X010840Y003614D01*
X010840Y003693D02*
X011480Y003693D01*
X011480Y003771D02*
X010804Y003771D01*
X010725Y003850D02*
X011480Y003850D01*
X011480Y003928D02*
X010715Y003928D01*
X010715Y004007D02*
X011480Y004007D01*
X011480Y004085D02*
X010715Y004085D01*
X010715Y004164D02*
X011480Y004164D01*
X011480Y004242D02*
X010715Y004242D01*
X010715Y004321D02*
X011480Y004321D01*
X011480Y004399D02*
X010715Y004399D01*
X010715Y004478D02*
X011480Y004478D01*
X011480Y004556D02*
X010715Y004556D01*
X010715Y004635D02*
X011480Y004635D01*
X011480Y004713D02*
X010715Y004713D01*
X010715Y004792D02*
X011480Y004792D01*
X011480Y004870D02*
X010715Y004870D01*
X010715Y004949D02*
X011480Y004949D01*
X011480Y005027D02*
X010715Y005027D01*
X010715Y005106D02*
X011480Y005106D01*
X011480Y005184D02*
X010715Y005184D01*
X010715Y005263D02*
X011480Y005263D01*
X011480Y005341D02*
X010715Y005341D01*
X010715Y005420D02*
X011480Y005420D01*
X011480Y005498D02*
X010715Y005498D01*
X010715Y005577D02*
X011480Y005577D01*
X011480Y005655D02*
X010715Y005655D01*
X010715Y005734D02*
X011480Y005734D01*
X011480Y005812D02*
X010715Y005812D01*
X010715Y005891D02*
X011480Y005891D01*
X011480Y005969D02*
X011467Y005969D01*
X011228Y005969D02*
X010715Y005969D01*
X010715Y006048D02*
X011127Y006048D01*
X011084Y006126D02*
X010715Y006126D01*
X010715Y006205D02*
X011068Y006205D01*
X011032Y006283D02*
X010715Y006283D01*
X010715Y006362D02*
X010954Y006362D01*
X010875Y006440D02*
X010715Y006440D01*
X010715Y006519D02*
X010797Y006519D01*
X010730Y006597D02*
X010715Y006597D01*
X010715Y006676D02*
X010730Y006676D01*
X010730Y006754D02*
X010715Y006754D01*
X010715Y006833D02*
X010716Y006833D01*
X010910Y006660D02*
X010910Y007035D01*
X010585Y007085D02*
X010585Y007285D01*
X010585Y007085D02*
X010535Y007035D01*
X010535Y003785D01*
X010660Y003660D01*
X010660Y003160D01*
X010285Y003410D02*
X010285Y007535D01*
X010554Y007618D02*
X012016Y007618D01*
X012050Y007696D02*
X010520Y007696D01*
X010438Y007775D02*
X012132Y007775D01*
X012410Y008035D02*
X012410Y012348D01*
X012148Y012249D02*
X008717Y012249D01*
X008782Y012171D02*
X012191Y012171D01*
X012230Y012092D02*
X008814Y012092D01*
X008815Y012014D02*
X012230Y012014D01*
X012230Y011935D02*
X008797Y011935D01*
X008753Y011857D02*
X012230Y011857D01*
X012230Y011778D02*
X008658Y011778D01*
X008579Y011700D02*
X012230Y011700D01*
X012230Y011621D02*
X008501Y011621D01*
X008422Y011543D02*
X012230Y011543D01*
X012230Y011464D02*
X008344Y011464D01*
X008265Y011386D02*
X012230Y011386D01*
X012230Y011307D02*
X008215Y011307D01*
X008215Y011229D02*
X012230Y011229D01*
X012230Y011150D02*
X008215Y011150D01*
X008215Y011072D02*
X012230Y011072D01*
X012230Y010993D02*
X008215Y010993D01*
X008215Y010915D02*
X012230Y010915D01*
X012230Y010836D02*
X008215Y010836D01*
X008215Y010758D02*
X012230Y010758D01*
X012230Y010679D02*
X008215Y010679D01*
X008215Y010601D02*
X012230Y010601D01*
X012230Y010522D02*
X008215Y010522D01*
X008215Y010444D02*
X012230Y010444D01*
X012230Y010365D02*
X008215Y010365D01*
X008215Y010287D02*
X012230Y010287D01*
X012230Y010208D02*
X008215Y010208D01*
X008215Y010130D02*
X012230Y010130D01*
X012230Y010051D02*
X008215Y010051D01*
X008215Y009973D02*
X012230Y009973D01*
X012230Y009894D02*
X008215Y009894D01*
X008215Y009816D02*
X012230Y009816D01*
X012230Y009737D02*
X008215Y009737D01*
X008215Y009659D02*
X012230Y009659D01*
X012230Y009580D02*
X008215Y009580D01*
X008215Y009502D02*
X012230Y009502D01*
X012230Y009423D02*
X008215Y009423D01*
X008215Y009345D02*
X012230Y009345D01*
X012230Y009266D02*
X008215Y009266D01*
X008215Y009188D02*
X012230Y009188D01*
X012230Y009109D02*
X008215Y009109D01*
X008215Y009031D02*
X012230Y009031D01*
X012230Y008952D02*
X008215Y008952D01*
X008215Y008874D02*
X012230Y008874D01*
X012118Y007304D02*
X012120Y007304D01*
X011483Y006754D02*
X011090Y006754D01*
X011149Y006676D02*
X011415Y006676D01*
X011383Y006597D02*
X011228Y006597D01*
X011306Y006519D02*
X011380Y006519D01*
X011348Y006223D02*
X010910Y006660D01*
X010105Y007304D02*
X009618Y007304D01*
X009741Y007225D02*
X009833Y007225D01*
X010045Y007382D02*
X008965Y007382D01*
X008965Y007304D02*
X009452Y007304D01*
X009329Y007225D02*
X008965Y007225D01*
X008965Y007147D02*
X009278Y007147D01*
X009255Y007068D02*
X008965Y007068D01*
X008965Y006990D02*
X009255Y006990D01*
X009283Y006911D02*
X008965Y006911D01*
X008965Y006833D02*
X009341Y006833D01*
X009355Y006754D02*
X008965Y006754D01*
X008965Y006676D02*
X009355Y006676D01*
X009355Y006597D02*
X008965Y006597D01*
X008965Y006519D02*
X009355Y006519D01*
X009355Y006440D02*
X008965Y006440D01*
X008965Y006362D02*
X009355Y006362D01*
X009355Y006283D02*
X008965Y006283D01*
X008965Y006205D02*
X009355Y006205D01*
X009355Y006126D02*
X008965Y006126D01*
X008965Y006048D02*
X009355Y006048D01*
X009323Y005969D02*
X008965Y005969D01*
X008965Y005891D02*
X009276Y005891D01*
X009255Y005812D02*
X008965Y005812D01*
X008965Y005734D02*
X009255Y005734D01*
X009286Y005655D02*
X008965Y005655D01*
X008965Y005577D02*
X009348Y005577D01*
X009535Y005785D02*
X009535Y007035D01*
X009985Y006985D02*
X009985Y006110D01*
X009910Y006035D01*
X010083Y005812D02*
X010105Y005812D01*
X010105Y005734D02*
X009815Y005734D01*
X009784Y005655D02*
X010105Y005655D01*
X010105Y005577D02*
X009722Y005577D01*
X010105Y005498D02*
X008965Y005498D01*
X008965Y005420D02*
X010105Y005420D01*
X010105Y005341D02*
X008965Y005341D01*
X008965Y005263D02*
X010105Y005263D01*
X010105Y005184D02*
X008965Y005184D01*
X008965Y005106D02*
X010105Y005106D01*
X010105Y005027D02*
X008965Y005027D01*
X008965Y004949D02*
X010105Y004949D01*
X010105Y004870D02*
X008965Y004870D01*
X008965Y004792D02*
X010105Y004792D01*
X010105Y004713D02*
X008965Y004713D01*
X008965Y004635D02*
X010105Y004635D01*
X010105Y004556D02*
X008965Y004556D01*
X008972Y004478D02*
X010105Y004478D01*
X010105Y004399D02*
X009051Y004399D01*
X009129Y004321D02*
X010105Y004321D01*
X010105Y004242D02*
X009208Y004242D01*
X009286Y004164D02*
X010105Y004164D01*
X010105Y004085D02*
X009365Y004085D01*
X009443Y004007D02*
X010105Y004007D01*
X010105Y003928D02*
X009522Y003928D01*
X009600Y003850D02*
X010105Y003850D01*
X010105Y003771D02*
X009679Y003771D01*
X009757Y003693D02*
X010105Y003693D01*
X010093Y003614D02*
X009836Y003614D01*
X009914Y003536D02*
X010034Y003536D01*
X010005Y003457D02*
X009993Y003457D01*
X010910Y002285D02*
X012910Y002285D01*
X013910Y001285D01*
X013910Y000910D01*
X015124Y002201D02*
X016114Y002201D01*
X016036Y002280D02*
X015045Y002280D01*
X014967Y002358D02*
X015957Y002358D01*
X015879Y002437D02*
X014888Y002437D01*
X014810Y002515D02*
X015800Y002515D01*
X015722Y002594D02*
X014731Y002594D01*
X014653Y002672D02*
X015643Y002672D01*
X015565Y002751D02*
X014574Y002751D01*
X014496Y002829D02*
X015486Y002829D01*
X015535Y003035D02*
X016910Y001660D01*
X016910Y000910D01*
X017330Y000474D02*
X022470Y000474D01*
X022470Y000396D02*
X017297Y000396D01*
X017350Y000553D02*
X022470Y000553D01*
X022470Y000631D02*
X017350Y000631D01*
X017350Y000710D02*
X022470Y000710D01*
X022470Y000788D02*
X017350Y000788D01*
X017350Y000867D02*
X022470Y000867D01*
X022470Y000945D02*
X017350Y000945D01*
X017350Y001024D02*
X022470Y001024D01*
X022470Y001102D02*
X019756Y001102D01*
X019908Y001165D02*
X020155Y001412D01*
X020289Y001735D01*
X020289Y002085D01*
X020155Y002408D01*
X019908Y002655D01*
X019585Y002789D01*
X019235Y002789D01*
X018912Y002655D01*
X018665Y002408D01*
X018531Y002085D01*
X018531Y001735D01*
X018665Y001412D01*
X018912Y001165D01*
X019235Y001031D01*
X019585Y001031D01*
X019908Y001165D01*
X019924Y001181D02*
X022470Y001181D01*
X022470Y001259D02*
X020002Y001259D01*
X020081Y001338D02*
X022470Y001338D01*
X022470Y001416D02*
X020157Y001416D01*
X020189Y001495D02*
X022470Y001495D01*
X022470Y001573D02*
X020222Y001573D01*
X020254Y001652D02*
X022470Y001652D01*
X022470Y001730D02*
X020287Y001730D01*
X020289Y001809D02*
X022470Y001809D01*
X022470Y001887D02*
X020289Y001887D01*
X020289Y001966D02*
X022470Y001966D01*
X022470Y002044D02*
X020289Y002044D01*
X020273Y002123D02*
X022470Y002123D01*
X022470Y002201D02*
X020241Y002201D01*
X020208Y002280D02*
X022470Y002280D01*
X022470Y002358D02*
X020176Y002358D01*
X020127Y002437D02*
X022470Y002437D01*
X022470Y002515D02*
X020048Y002515D01*
X019970Y002594D02*
X022470Y002594D01*
X022470Y002672D02*
X019867Y002672D01*
X019678Y002751D02*
X022470Y002751D01*
X022470Y002829D02*
X015996Y002829D01*
X016074Y002751D02*
X019142Y002751D01*
X018953Y002672D02*
X016153Y002672D01*
X016231Y002594D02*
X018850Y002594D01*
X018772Y002515D02*
X016310Y002515D01*
X016388Y002437D02*
X018693Y002437D01*
X018644Y002358D02*
X016467Y002358D01*
X016545Y002280D02*
X018612Y002280D01*
X018579Y002201D02*
X016624Y002201D01*
X016702Y002123D02*
X018547Y002123D01*
X018531Y002044D02*
X016781Y002044D01*
X016859Y001966D02*
X018531Y001966D01*
X018531Y001887D02*
X016938Y001887D01*
X017016Y001809D02*
X018531Y001809D01*
X018533Y001730D02*
X017090Y001730D01*
X017090Y001652D02*
X018566Y001652D01*
X018598Y001573D02*
X017169Y001573D01*
X017248Y001495D02*
X018631Y001495D01*
X018663Y001416D02*
X017301Y001416D01*
X017333Y001338D02*
X018739Y001338D01*
X018818Y001259D02*
X017350Y001259D01*
X017350Y001181D02*
X018896Y001181D01*
X019064Y001102D02*
X017350Y001102D01*
X016664Y001652D02*
X015673Y001652D01*
X015595Y001730D02*
X016585Y001730D01*
X016507Y001809D02*
X015516Y001809D01*
X015438Y001887D02*
X016428Y001887D01*
X016350Y001966D02*
X015359Y001966D01*
X015281Y002044D02*
X016271Y002044D01*
X016193Y002123D02*
X015202Y002123D01*
X015917Y002908D02*
X022470Y002908D01*
X022470Y002986D02*
X015839Y002986D01*
X015760Y003065D02*
X022470Y003065D01*
X022470Y003143D02*
X015715Y003143D01*
X015715Y003222D02*
X022470Y003222D01*
X022470Y003300D02*
X015715Y003300D01*
X015715Y003379D02*
X022470Y003379D01*
X022470Y003457D02*
X015715Y003457D01*
X015715Y003536D02*
X019906Y003536D01*
X019810Y003614D02*
X015715Y003614D01*
X015715Y003693D02*
X019770Y003693D01*
X019755Y003771D02*
X015715Y003771D01*
X015715Y003850D02*
X019759Y003850D01*
X019791Y003928D02*
X015715Y003928D01*
X015715Y004007D02*
X019855Y004007D01*
X019855Y004085D02*
X015715Y004085D01*
X015715Y004164D02*
X019398Y004164D01*
X019376Y004173D02*
X019479Y004130D01*
X019591Y004130D01*
X019694Y004173D01*
X019772Y004251D01*
X019815Y004354D01*
X019815Y004466D01*
X019772Y004569D01*
X019715Y004626D01*
X019715Y012630D01*
X019716Y012630D01*
X019819Y012673D01*
X019897Y012751D01*
X019940Y012854D01*
X019940Y012966D01*
X019897Y013069D01*
X019819Y013147D01*
X019716Y013190D01*
X019604Y013190D01*
X019501Y013147D01*
X019423Y013069D01*
X019380Y012966D01*
X019380Y012885D01*
X019355Y012860D01*
X019355Y004626D01*
X019298Y004569D01*
X019255Y004466D01*
X019255Y004354D01*
X019298Y004251D01*
X019376Y004173D01*
X019307Y004242D02*
X015715Y004242D01*
X015715Y004321D02*
X019269Y004321D01*
X019255Y004399D02*
X015715Y004399D01*
X015715Y004478D02*
X019260Y004478D01*
X019292Y004556D02*
X015715Y004556D01*
X015715Y004635D02*
X019355Y004635D01*
X019355Y004713D02*
X015715Y004713D01*
X015715Y004792D02*
X019355Y004792D01*
X019355Y004870D02*
X015715Y004870D01*
X015715Y004949D02*
X019355Y004949D01*
X019355Y005027D02*
X015715Y005027D01*
X015715Y005106D02*
X019355Y005106D01*
X019355Y005184D02*
X015715Y005184D01*
X015715Y005263D02*
X019355Y005263D01*
X019355Y005341D02*
X015715Y005341D01*
X015715Y005420D02*
X019355Y005420D01*
X019355Y005498D02*
X015715Y005498D01*
X015715Y005577D02*
X019355Y005577D01*
X019355Y005655D02*
X017401Y005655D01*
X017444Y005673D02*
X017522Y005751D01*
X017565Y005854D01*
X017565Y005966D01*
X017522Y006069D01*
X017465Y006126D01*
X019355Y006126D01*
X019355Y006048D02*
X017531Y006048D01*
X017564Y005969D02*
X019355Y005969D01*
X019355Y005891D02*
X017565Y005891D01*
X017547Y005812D02*
X019355Y005812D01*
X019355Y005734D02*
X017504Y005734D01*
X017444Y005673D02*
X017341Y005630D01*
X017229Y005630D01*
X017126Y005673D01*
X017048Y005751D01*
X017005Y005854D01*
X017005Y005966D01*
X017048Y006069D01*
X017105Y006126D01*
X015715Y006126D01*
X015715Y006048D02*
X017039Y006048D01*
X017006Y005969D02*
X015715Y005969D01*
X015715Y005891D02*
X017005Y005891D01*
X017023Y005812D02*
X015715Y005812D01*
X015715Y005734D02*
X017066Y005734D01*
X017169Y005655D02*
X015715Y005655D01*
X015715Y006205D02*
X017105Y006205D01*
X017105Y006283D02*
X016908Y006283D01*
X016944Y006298D02*
X017022Y006376D01*
X017065Y006479D01*
X017065Y006591D01*
X017022Y006694D01*
X016965Y006751D01*
X016965Y019694D01*
X017022Y019751D01*
X017065Y019854D01*
X017065Y019966D01*
X017022Y020069D01*
X016944Y020147D01*
X016841Y020190D01*
X016729Y020190D01*
X016626Y020147D01*
X016548Y020069D01*
X016505Y019966D01*
X016505Y019854D01*
X016548Y019751D01*
X016605Y019694D01*
X016605Y006751D01*
X016548Y006694D01*
X016505Y006591D01*
X016505Y006479D01*
X016548Y006376D01*
X016626Y006298D01*
X016729Y006255D01*
X016841Y006255D01*
X016944Y006298D01*
X017007Y006362D02*
X017105Y006362D01*
X017105Y006440D02*
X017049Y006440D01*
X017065Y006519D02*
X017105Y006519D01*
X017105Y006597D02*
X017062Y006597D01*
X017030Y006676D02*
X017105Y006676D01*
X017105Y006754D02*
X016965Y006754D01*
X016965Y006833D02*
X017105Y006833D01*
X017105Y006911D02*
X016965Y006911D01*
X016965Y006990D02*
X017105Y006990D01*
X017105Y007068D02*
X016965Y007068D01*
X016965Y007147D02*
X017105Y007147D01*
X017105Y007225D02*
X016965Y007225D01*
X016965Y007304D02*
X017105Y007304D01*
X017105Y007382D02*
X016965Y007382D01*
X016965Y007461D02*
X017105Y007461D01*
X017105Y007539D02*
X016965Y007539D01*
X016965Y007618D02*
X017105Y007618D01*
X017105Y007696D02*
X016965Y007696D01*
X016965Y007775D02*
X017105Y007775D01*
X017105Y007853D02*
X016965Y007853D01*
X016965Y007932D02*
X017105Y007932D01*
X017105Y008010D02*
X016965Y008010D01*
X016965Y008089D02*
X017105Y008089D01*
X017105Y008167D02*
X016965Y008167D01*
X016965Y008246D02*
X017105Y008246D01*
X017105Y008324D02*
X016965Y008324D01*
X016965Y008403D02*
X017105Y008403D01*
X017105Y008481D02*
X016965Y008481D01*
X016965Y008560D02*
X017105Y008560D01*
X017105Y008638D02*
X016965Y008638D01*
X016965Y008717D02*
X017105Y008717D01*
X017105Y008795D02*
X016965Y008795D01*
X016965Y008874D02*
X017105Y008874D01*
X017105Y008952D02*
X016965Y008952D01*
X016965Y009031D02*
X017105Y009031D01*
X017105Y009109D02*
X016965Y009109D01*
X016965Y009188D02*
X017105Y009188D01*
X017105Y009266D02*
X016965Y009266D01*
X016965Y009345D02*
X017105Y009345D01*
X017105Y009423D02*
X016965Y009423D01*
X016965Y009502D02*
X017105Y009502D01*
X017105Y009580D02*
X016965Y009580D01*
X016965Y009659D02*
X017105Y009659D01*
X017105Y009737D02*
X016965Y009737D01*
X016965Y009816D02*
X017105Y009816D01*
X017105Y009894D02*
X016965Y009894D01*
X016965Y009973D02*
X017105Y009973D01*
X017105Y010051D02*
X016965Y010051D01*
X016965Y010130D02*
X017105Y010130D01*
X017105Y010208D02*
X016965Y010208D01*
X016965Y010287D02*
X017105Y010287D01*
X017105Y010365D02*
X016965Y010365D01*
X016965Y010444D02*
X017105Y010444D01*
X017105Y010522D02*
X016965Y010522D01*
X016965Y010601D02*
X017105Y010601D01*
X017105Y010679D02*
X016965Y010679D01*
X016965Y010758D02*
X017105Y010758D01*
X017105Y010836D02*
X016965Y010836D01*
X016965Y010915D02*
X017105Y010915D01*
X017105Y010993D02*
X016965Y010993D01*
X016965Y011072D02*
X017105Y011072D01*
X017105Y011150D02*
X016965Y011150D01*
X016965Y011229D02*
X017105Y011229D01*
X017105Y011307D02*
X016965Y011307D01*
X016965Y011386D02*
X017105Y011386D01*
X017105Y011464D02*
X016965Y011464D01*
X016965Y011543D02*
X017105Y011543D01*
X017105Y011621D02*
X016965Y011621D01*
X016965Y011700D02*
X017105Y011700D01*
X017105Y011778D02*
X016965Y011778D01*
X016965Y011857D02*
X017105Y011857D01*
X017105Y011935D02*
X016965Y011935D01*
X016965Y012014D02*
X017105Y012014D01*
X017105Y012092D02*
X016965Y012092D01*
X016965Y012171D02*
X017105Y012171D01*
X017105Y012249D02*
X016965Y012249D01*
X016965Y012328D02*
X017105Y012328D01*
X017105Y012406D02*
X016965Y012406D01*
X016965Y012485D02*
X017105Y012485D01*
X017105Y012563D02*
X016965Y012563D01*
X016965Y012642D02*
X017105Y012642D01*
X017105Y012720D02*
X016965Y012720D01*
X016965Y012799D02*
X017105Y012799D01*
X017105Y012877D02*
X016965Y012877D01*
X016965Y012956D02*
X017105Y012956D01*
X017105Y013034D02*
X016965Y013034D01*
X016965Y013113D02*
X017105Y013113D01*
X017105Y013191D02*
X016965Y013191D01*
X016965Y013270D02*
X017105Y013270D01*
X017105Y013348D02*
X016965Y013348D01*
X016965Y013427D02*
X017105Y013427D01*
X017105Y013505D02*
X016965Y013505D01*
X016965Y013584D02*
X017105Y013584D01*
X017105Y013662D02*
X016965Y013662D01*
X016965Y013741D02*
X017105Y013741D01*
X017105Y013819D02*
X016965Y013819D01*
X016965Y013898D02*
X017105Y013898D01*
X017105Y013976D02*
X016965Y013976D01*
X016965Y014055D02*
X017105Y014055D01*
X017105Y014133D02*
X016965Y014133D01*
X016965Y014212D02*
X017105Y014212D01*
X017105Y014290D02*
X016965Y014290D01*
X016965Y014369D02*
X017105Y014369D01*
X017105Y014447D02*
X016965Y014447D01*
X016965Y014526D02*
X017105Y014526D01*
X017105Y014604D02*
X016965Y014604D01*
X016965Y014683D02*
X017105Y014683D01*
X017105Y014761D02*
X016965Y014761D01*
X016965Y014840D02*
X017105Y014840D01*
X017105Y014918D02*
X016965Y014918D01*
X016965Y014997D02*
X017105Y014997D01*
X017105Y015075D02*
X016965Y015075D01*
X016965Y015154D02*
X017105Y015154D01*
X017105Y015232D02*
X016965Y015232D01*
X016965Y015311D02*
X017105Y015311D01*
X017105Y015389D02*
X016965Y015389D01*
X016965Y015468D02*
X017105Y015468D01*
X017105Y015546D02*
X016965Y015546D01*
X016965Y015625D02*
X017105Y015625D01*
X017105Y015703D02*
X016965Y015703D01*
X016965Y015782D02*
X017105Y015782D01*
X017105Y015860D02*
X016965Y015860D01*
X016965Y015939D02*
X017105Y015939D01*
X017105Y016017D02*
X016965Y016017D01*
X016965Y016096D02*
X017105Y016096D01*
X017105Y016174D02*
X016965Y016174D01*
X016965Y016253D02*
X017105Y016253D01*
X017105Y016331D02*
X016965Y016331D01*
X016965Y016410D02*
X017105Y016410D01*
X017105Y016488D02*
X016965Y016488D01*
X016965Y016567D02*
X017105Y016567D01*
X017105Y016645D02*
X016965Y016645D01*
X016965Y016724D02*
X017105Y016724D01*
X017105Y016802D02*
X016965Y016802D01*
X016965Y016881D02*
X017105Y016881D01*
X017105Y016959D02*
X016965Y016959D01*
X016965Y017038D02*
X017105Y017038D01*
X017105Y017116D02*
X016965Y017116D01*
X016965Y017195D02*
X017105Y017195D01*
X017105Y017273D02*
X016965Y017273D01*
X016965Y017352D02*
X017105Y017352D01*
X017105Y017430D02*
X016965Y017430D01*
X016965Y017509D02*
X017105Y017509D01*
X017105Y017587D02*
X016965Y017587D01*
X016965Y017666D02*
X017105Y017666D01*
X017105Y017744D02*
X016965Y017744D01*
X016965Y017823D02*
X017105Y017823D01*
X017105Y017901D02*
X016965Y017901D01*
X016965Y017980D02*
X017105Y017980D01*
X017105Y018058D02*
X016965Y018058D01*
X016965Y018137D02*
X017105Y018137D01*
X017105Y018215D02*
X016965Y018215D01*
X016965Y018294D02*
X017105Y018294D01*
X017105Y018372D02*
X016965Y018372D01*
X016965Y018451D02*
X017105Y018451D01*
X017105Y018529D02*
X016965Y018529D01*
X016965Y018608D02*
X017105Y018608D01*
X017105Y018686D02*
X016965Y018686D01*
X016965Y018765D02*
X017105Y018765D01*
X017105Y018843D02*
X016965Y018843D01*
X016965Y018922D02*
X017105Y018922D01*
X017105Y019000D02*
X016965Y019000D01*
X016965Y019079D02*
X017105Y019079D01*
X017105Y019157D02*
X016965Y019157D01*
X016965Y019236D02*
X017063Y019236D01*
X017048Y019251D02*
X017105Y019194D01*
X017105Y006126D01*
X017285Y005910D02*
X017285Y019410D01*
X017548Y019314D02*
X021436Y019314D01*
X021313Y019236D02*
X017507Y019236D01*
X017522Y019251D02*
X017565Y019354D01*
X017565Y019466D01*
X017522Y019569D01*
X017444Y019647D01*
X017341Y019690D01*
X017229Y019690D01*
X017126Y019647D01*
X017048Y019569D01*
X017005Y019466D01*
X017005Y019354D01*
X017048Y019251D01*
X017022Y019314D02*
X016965Y019314D01*
X016965Y019393D02*
X017005Y019393D01*
X017007Y019471D02*
X016965Y019471D01*
X016965Y019550D02*
X017040Y019550D01*
X017107Y019628D02*
X016965Y019628D01*
X016978Y019707D02*
X021218Y019707D01*
X021185Y019785D02*
X017036Y019785D01*
X017065Y019864D02*
X021170Y019864D01*
X021170Y019942D02*
X017065Y019942D01*
X017042Y020021D02*
X021180Y020021D01*
X021212Y020099D02*
X019749Y020099D01*
X019908Y020165D02*
X019585Y020031D01*
X019235Y020031D01*
X018912Y020165D01*
X018665Y020412D01*
X018531Y020735D01*
X018531Y021085D01*
X018665Y021408D01*
X018912Y021655D01*
X019235Y021789D01*
X019585Y021789D01*
X019908Y021655D01*
X020155Y021408D01*
X020289Y021085D01*
X020289Y020735D01*
X020155Y020412D01*
X019908Y020165D01*
X019921Y020178D02*
X021255Y020178D01*
X021334Y020256D02*
X019999Y020256D01*
X020078Y020335D02*
X021485Y020335D01*
X021470Y020492D02*
X020188Y020492D01*
X020221Y020570D02*
X021328Y020570D01*
X021249Y020649D02*
X020253Y020649D01*
X020286Y020727D02*
X021210Y020727D01*
X021177Y020806D02*
X020289Y020806D01*
X020289Y020884D02*
X021170Y020884D01*
X021170Y020963D02*
X020289Y020963D01*
X020289Y021041D02*
X021188Y021041D01*
X021221Y021120D02*
X020275Y021120D01*
X020242Y021198D02*
X021276Y021198D01*
X021354Y021277D02*
X020210Y021277D01*
X020177Y021355D02*
X022470Y021355D01*
X022466Y021277D02*
X022470Y021277D01*
X022470Y021434D02*
X020129Y021434D01*
X020051Y021512D02*
X021421Y021512D01*
X021307Y021591D02*
X019972Y021591D01*
X019874Y021669D02*
X021234Y021669D01*
X021201Y021748D02*
X019685Y021748D01*
X019135Y021748D02*
X017120Y021748D01*
X017120Y021826D02*
X021170Y021826D01*
X021170Y021905D02*
X016700Y021905D01*
X016700Y021826D02*
X016620Y021826D01*
X016620Y021748D02*
X016700Y021748D01*
X016700Y021669D02*
X016620Y021669D01*
X016620Y021591D02*
X016700Y021591D01*
X016700Y021512D02*
X016620Y021512D01*
X016620Y021434D02*
X016700Y021434D01*
X016700Y021355D02*
X016620Y021355D01*
X016620Y021277D02*
X016700Y021277D01*
X016700Y021198D02*
X016620Y021198D01*
X016455Y021198D02*
X015865Y021198D01*
X015977Y021277D02*
X016343Y021277D01*
X016277Y021355D02*
X016043Y021355D01*
X016086Y021434D02*
X016234Y021434D01*
X016210Y021512D02*
X016110Y021512D01*
X016120Y021591D02*
X016200Y021591D01*
X016200Y021669D02*
X016120Y021669D01*
X016120Y021748D02*
X016200Y021748D01*
X016200Y021826D02*
X016120Y021826D01*
X016120Y021983D02*
X016200Y021983D01*
X016200Y022062D02*
X016120Y022062D01*
X016120Y022140D02*
X016200Y022140D01*
X016200Y022219D02*
X016120Y022219D01*
X016112Y022297D02*
X016208Y022297D01*
X016230Y022376D02*
X016090Y022376D01*
X016051Y022454D02*
X016269Y022454D01*
X016620Y021905D02*
X015700Y021905D01*
X015700Y021826D02*
X015620Y021826D01*
X015620Y021748D02*
X015700Y021748D01*
X015700Y021669D02*
X015620Y021669D01*
X015620Y021591D02*
X015700Y021591D01*
X015700Y021512D02*
X015620Y021512D01*
X015620Y021434D02*
X015700Y021434D01*
X015700Y021355D02*
X015620Y021355D01*
X015620Y021277D02*
X015700Y021277D01*
X015700Y021198D02*
X015620Y021198D01*
X015455Y021198D02*
X014865Y021198D01*
X014977Y021277D02*
X015343Y021277D01*
X015277Y021355D02*
X015043Y021355D01*
X015086Y021434D02*
X015234Y021434D01*
X015210Y021512D02*
X015110Y021512D01*
X015120Y021591D02*
X015200Y021591D01*
X015200Y021669D02*
X015120Y021669D01*
X015120Y021748D02*
X015200Y021748D01*
X015200Y021826D02*
X015120Y021826D01*
X015120Y021983D02*
X015200Y021983D01*
X015200Y022062D02*
X015120Y022062D01*
X015120Y022140D02*
X015200Y022140D01*
X015200Y022219D02*
X015120Y022219D01*
X015112Y022297D02*
X015208Y022297D01*
X015230Y022376D02*
X015090Y022376D01*
X015051Y022454D02*
X015269Y022454D01*
X015620Y021905D02*
X014700Y021905D01*
X014700Y021826D02*
X014620Y021826D01*
X014620Y021748D02*
X014700Y021748D01*
X014700Y021669D02*
X014620Y021669D01*
X014620Y021591D02*
X014700Y021591D01*
X014700Y021512D02*
X014620Y021512D01*
X014620Y021434D02*
X014700Y021434D01*
X014700Y021355D02*
X014620Y021355D01*
X014620Y021277D02*
X014700Y021277D01*
X014700Y021198D02*
X014620Y021198D01*
X014455Y021198D02*
X013865Y021198D01*
X013977Y021277D02*
X014343Y021277D01*
X014277Y021355D02*
X014043Y021355D01*
X014086Y021434D02*
X014234Y021434D01*
X014210Y021512D02*
X014110Y021512D01*
X014120Y021591D02*
X014200Y021591D01*
X014200Y021669D02*
X014120Y021669D01*
X014120Y021748D02*
X014200Y021748D01*
X014200Y021826D02*
X014120Y021826D01*
X014120Y021983D02*
X014200Y021983D01*
X014200Y022062D02*
X014120Y022062D01*
X014120Y022140D02*
X014200Y022140D01*
X014200Y022219D02*
X014120Y022219D01*
X014112Y022297D02*
X014208Y022297D01*
X014230Y022376D02*
X014090Y022376D01*
X014051Y022454D02*
X014269Y022454D01*
X014620Y021905D02*
X013700Y021905D01*
X013700Y021826D02*
X013620Y021826D01*
X013620Y021748D02*
X013700Y021748D01*
X013700Y021669D02*
X013620Y021669D01*
X013620Y021591D02*
X013700Y021591D01*
X013700Y021512D02*
X013620Y021512D01*
X013620Y021434D02*
X013700Y021434D01*
X013700Y021355D02*
X013620Y021355D01*
X013620Y021277D02*
X013700Y021277D01*
X013700Y021198D02*
X013620Y021198D01*
X013455Y021198D02*
X011815Y021198D01*
X011949Y021277D02*
X013343Y021277D01*
X013277Y021355D02*
X012027Y021355D01*
X012063Y021434D02*
X013234Y021434D01*
X013210Y021512D02*
X012096Y021512D01*
X012100Y021591D02*
X013200Y021591D01*
X013200Y021669D02*
X012100Y021669D01*
X012100Y021748D02*
X013200Y021748D01*
X013200Y021826D02*
X012100Y021826D01*
X012100Y021905D02*
X013620Y021905D01*
X013200Y021983D02*
X012100Y021983D01*
X012100Y022062D02*
X013200Y022062D01*
X013200Y022140D02*
X012100Y022140D01*
X012100Y022219D02*
X013200Y022219D01*
X013208Y022297D02*
X012100Y022297D01*
X012068Y022376D02*
X013230Y022376D01*
X013269Y022454D02*
X012035Y022454D01*
X011285Y022454D02*
X011035Y022454D01*
X011068Y022376D02*
X011252Y022376D01*
X011220Y022297D02*
X011100Y022297D01*
X011100Y022219D02*
X011220Y022219D01*
X011220Y022140D02*
X011100Y022140D01*
X011100Y022062D02*
X011220Y022062D01*
X011220Y021983D02*
X011100Y021983D01*
X011100Y021905D02*
X011220Y021905D01*
X011220Y021826D02*
X011100Y021826D01*
X011100Y021748D02*
X011220Y021748D01*
X011220Y021669D02*
X011100Y021669D01*
X011100Y021591D02*
X011220Y021591D01*
X011224Y021512D02*
X011096Y021512D01*
X011063Y021434D02*
X011257Y021434D01*
X011293Y021355D02*
X011027Y021355D01*
X010949Y021277D02*
X011371Y021277D01*
X011505Y021198D02*
X010815Y021198D01*
X010505Y021198D02*
X007315Y021198D01*
X007449Y021277D02*
X010371Y021277D01*
X010293Y021355D02*
X007527Y021355D01*
X007563Y021434D02*
X010257Y021434D01*
X010224Y021512D02*
X007596Y021512D01*
X007600Y021591D02*
X010220Y021591D01*
X010220Y021669D02*
X007600Y021669D01*
X007600Y021748D02*
X010220Y021748D01*
X010220Y021826D02*
X007600Y021826D01*
X007600Y021905D02*
X010220Y021905D01*
X010220Y021983D02*
X007600Y021983D01*
X007600Y022062D02*
X010220Y022062D01*
X010220Y022140D02*
X007600Y022140D01*
X007600Y022219D02*
X010220Y022219D01*
X010220Y022297D02*
X007600Y022297D01*
X007568Y022376D02*
X010252Y022376D01*
X010285Y022454D02*
X007535Y022454D01*
X006785Y022454D02*
X006535Y022454D01*
X006568Y022376D02*
X006752Y022376D01*
X006720Y022297D02*
X006600Y022297D01*
X006600Y022219D02*
X006720Y022219D01*
X006720Y022140D02*
X006600Y022140D01*
X006600Y022062D02*
X006720Y022062D01*
X006720Y021983D02*
X006600Y021983D01*
X006600Y021905D02*
X006720Y021905D01*
X006720Y021826D02*
X006600Y021826D01*
X006600Y021748D02*
X006720Y021748D01*
X006720Y021669D02*
X006600Y021669D01*
X006600Y021591D02*
X006720Y021591D01*
X006724Y021512D02*
X006596Y021512D01*
X006563Y021434D02*
X006757Y021434D01*
X006793Y021355D02*
X006527Y021355D01*
X006449Y021277D02*
X006871Y021277D01*
X007005Y021198D02*
X006315Y021198D01*
X006005Y021198D02*
X004242Y021198D01*
X004275Y021120D02*
X018545Y021120D01*
X018531Y021041D02*
X004289Y021041D01*
X004289Y021085D02*
X004155Y021408D01*
X003908Y021655D01*
X003585Y021789D01*
X003235Y021789D01*
X002912Y021655D01*
X002665Y021408D01*
X002531Y021085D01*
X002531Y020735D01*
X002665Y020412D01*
X002912Y020165D01*
X003235Y020031D01*
X003585Y020031D01*
X003908Y020165D01*
X004155Y020412D01*
X004289Y020735D01*
X004289Y021085D01*
X004289Y020963D02*
X018531Y020963D01*
X018531Y020884D02*
X004289Y020884D01*
X004289Y020806D02*
X018531Y020806D01*
X018534Y020727D02*
X004286Y020727D01*
X004253Y020649D02*
X018567Y020649D01*
X018599Y020570D02*
X004221Y020570D01*
X004188Y020492D02*
X018632Y020492D01*
X018664Y020413D02*
X004156Y020413D01*
X004078Y020335D02*
X018742Y020335D01*
X018821Y020256D02*
X003999Y020256D01*
X003921Y020178D02*
X016699Y020178D01*
X016578Y020099D02*
X003749Y020099D01*
X003071Y020099D02*
X000350Y020099D01*
X000350Y020021D02*
X016528Y020021D01*
X016505Y019942D02*
X000350Y019942D01*
X000350Y019864D02*
X016505Y019864D01*
X016534Y019785D02*
X000350Y019785D01*
X000350Y019707D02*
X016592Y019707D01*
X016605Y019628D02*
X000350Y019628D01*
X000350Y019550D02*
X016605Y019550D01*
X016605Y019471D02*
X000350Y019471D01*
X000350Y019393D02*
X016605Y019393D01*
X016785Y019910D02*
X016785Y006535D01*
X016521Y006440D02*
X015715Y006440D01*
X015715Y006362D02*
X016563Y006362D01*
X016662Y006283D02*
X015715Y006283D01*
X015715Y006519D02*
X016505Y006519D01*
X016508Y006597D02*
X015715Y006597D01*
X015715Y006676D02*
X016540Y006676D01*
X016605Y006754D02*
X015715Y006754D01*
X015715Y006833D02*
X016605Y006833D01*
X016605Y006911D02*
X015715Y006911D01*
X015715Y006990D02*
X016605Y006990D01*
X016605Y007068D02*
X015715Y007068D01*
X015715Y007147D02*
X016605Y007147D01*
X016605Y007225D02*
X015715Y007225D01*
X015715Y007304D02*
X016605Y007304D01*
X016605Y007382D02*
X015715Y007382D01*
X015715Y007461D02*
X016605Y007461D01*
X016605Y007539D02*
X015715Y007539D01*
X015715Y007618D02*
X016605Y007618D01*
X016605Y007696D02*
X015715Y007696D01*
X015715Y007775D02*
X016605Y007775D01*
X016605Y007853D02*
X015715Y007853D01*
X015715Y007932D02*
X016605Y007932D01*
X016605Y008010D02*
X015715Y008010D01*
X015715Y008089D02*
X016605Y008089D01*
X016605Y008167D02*
X015715Y008167D01*
X015715Y008246D02*
X016605Y008246D01*
X016605Y008324D02*
X015715Y008324D01*
X015715Y008403D02*
X016605Y008403D01*
X016605Y008481D02*
X015715Y008481D01*
X015715Y008560D02*
X016605Y008560D01*
X016605Y008638D02*
X015715Y008638D01*
X015715Y008717D02*
X016605Y008717D01*
X016605Y008795D02*
X015715Y008795D01*
X015715Y008874D02*
X016605Y008874D01*
X016605Y008952D02*
X015715Y008952D01*
X015715Y009031D02*
X016605Y009031D01*
X016605Y009109D02*
X015715Y009109D01*
X015715Y009188D02*
X016605Y009188D01*
X016605Y009266D02*
X015715Y009266D01*
X015715Y009345D02*
X016605Y009345D01*
X016605Y009423D02*
X015715Y009423D01*
X015715Y009502D02*
X016605Y009502D01*
X016605Y009580D02*
X016226Y009580D01*
X016286Y009659D02*
X016605Y009659D01*
X016605Y009737D02*
X016315Y009737D01*
X016320Y009816D02*
X016605Y009816D01*
X016605Y009894D02*
X016399Y009894D01*
X016465Y009973D02*
X016605Y009973D01*
X016605Y010051D02*
X016465Y010051D01*
X016465Y010130D02*
X016605Y010130D01*
X016605Y010208D02*
X016465Y010208D01*
X016465Y010287D02*
X016605Y010287D01*
X016605Y010365D02*
X016465Y010365D01*
X016465Y010444D02*
X016605Y010444D01*
X016605Y010522D02*
X016465Y010522D01*
X016465Y010601D02*
X016605Y010601D01*
X016605Y010679D02*
X016465Y010679D01*
X016465Y010758D02*
X016605Y010758D01*
X016605Y010836D02*
X016465Y010836D01*
X016465Y010915D02*
X016605Y010915D01*
X016605Y010993D02*
X016465Y010993D01*
X016465Y011072D02*
X016605Y011072D01*
X016605Y011150D02*
X016465Y011150D01*
X016465Y011229D02*
X016605Y011229D01*
X016605Y011307D02*
X016465Y011307D01*
X016465Y011386D02*
X016605Y011386D01*
X016605Y011464D02*
X016465Y011464D01*
X016465Y011543D02*
X016605Y011543D01*
X016605Y011621D02*
X016465Y011621D01*
X016465Y011700D02*
X016605Y011700D01*
X016605Y011778D02*
X016465Y011778D01*
X016465Y011857D02*
X016605Y011857D01*
X016605Y011935D02*
X016465Y011935D01*
X016465Y012014D02*
X016605Y012014D01*
X016605Y012092D02*
X016465Y012092D01*
X016465Y012171D02*
X016605Y012171D01*
X016605Y012249D02*
X016465Y012249D01*
X016465Y012328D02*
X016605Y012328D01*
X016605Y012406D02*
X016465Y012406D01*
X016465Y012485D02*
X016605Y012485D01*
X016605Y012563D02*
X016465Y012563D01*
X016465Y012642D02*
X016605Y012642D01*
X016605Y012720D02*
X016465Y012720D01*
X016465Y012799D02*
X016605Y012799D01*
X016605Y012877D02*
X016465Y012877D01*
X016465Y012956D02*
X016605Y012956D01*
X016605Y013034D02*
X016465Y013034D01*
X016465Y013113D02*
X016605Y013113D01*
X016605Y013191D02*
X016465Y013191D01*
X016465Y013270D02*
X016605Y013270D01*
X016605Y013348D02*
X016465Y013348D01*
X016465Y013427D02*
X016605Y013427D01*
X016605Y013505D02*
X016465Y013505D01*
X016465Y013584D02*
X016605Y013584D01*
X016605Y013662D02*
X016465Y013662D01*
X016465Y013741D02*
X016605Y013741D01*
X016605Y013819D02*
X016465Y013819D01*
X016465Y013898D02*
X016605Y013898D01*
X016605Y013976D02*
X016465Y013976D01*
X016465Y014055D02*
X016605Y014055D01*
X016605Y014133D02*
X016465Y014133D01*
X016465Y014212D02*
X016605Y014212D01*
X016605Y014290D02*
X016465Y014290D01*
X016465Y014369D02*
X016605Y014369D01*
X016605Y014447D02*
X016465Y014447D01*
X016465Y014526D02*
X016605Y014526D01*
X016605Y014604D02*
X016465Y014604D01*
X016465Y014683D02*
X016605Y014683D01*
X016605Y014761D02*
X016465Y014761D01*
X016465Y014840D02*
X016605Y014840D01*
X016605Y014918D02*
X016465Y014918D01*
X016465Y014997D02*
X016605Y014997D01*
X016605Y015075D02*
X016465Y015075D01*
X016465Y015154D02*
X016605Y015154D01*
X016605Y015232D02*
X016465Y015232D01*
X016465Y015311D02*
X016605Y015311D01*
X016605Y015389D02*
X016465Y015389D01*
X016465Y015468D02*
X016605Y015468D01*
X016605Y015546D02*
X016465Y015546D01*
X016465Y015625D02*
X016605Y015625D01*
X016605Y015703D02*
X016465Y015703D01*
X016465Y015782D02*
X016605Y015782D01*
X016605Y015860D02*
X016465Y015860D01*
X016465Y015939D02*
X016605Y015939D01*
X016605Y016017D02*
X016465Y016017D01*
X016492Y016096D02*
X016605Y016096D01*
X016605Y016174D02*
X016542Y016174D01*
X016565Y016253D02*
X016605Y016253D01*
X016605Y016331D02*
X016565Y016331D01*
X016536Y016410D02*
X016605Y016410D01*
X016605Y016488D02*
X016478Y016488D01*
X016605Y016567D02*
X016090Y016567D01*
X016090Y016645D02*
X016605Y016645D01*
X016605Y016724D02*
X016090Y016724D01*
X016090Y016802D02*
X016605Y016802D01*
X016605Y016881D02*
X016090Y016881D01*
X016105Y016959D02*
X016605Y016959D01*
X016605Y017038D02*
X016162Y017038D01*
X016190Y017116D02*
X016605Y017116D01*
X016605Y017195D02*
X016190Y017195D01*
X016166Y017273D02*
X016605Y017273D01*
X016605Y017352D02*
X016114Y017352D01*
X015990Y017430D02*
X016605Y017430D01*
X015910Y017160D02*
X015910Y012285D01*
X015986Y012014D02*
X016105Y012014D01*
X016105Y011935D02*
X012590Y011935D01*
X012590Y011857D02*
X016105Y011857D01*
X016105Y011778D02*
X012590Y011778D01*
X012590Y011700D02*
X016105Y011700D01*
X016105Y011621D02*
X012590Y011621D01*
X012590Y011543D02*
X016105Y011543D01*
X016105Y011464D02*
X012590Y011464D01*
X012590Y011386D02*
X016105Y011386D01*
X016105Y011307D02*
X012590Y011307D01*
X012590Y011229D02*
X016105Y011229D01*
X016105Y011150D02*
X012590Y011150D01*
X012590Y011072D02*
X016105Y011072D01*
X016105Y010365D02*
X015726Y010365D01*
X015786Y010287D02*
X016105Y010287D01*
X016105Y010208D02*
X015815Y010208D01*
X015815Y010130D02*
X016105Y010130D01*
X015946Y010051D02*
X015793Y010051D01*
X015827Y009973D02*
X015744Y009973D01*
X015715Y009894D02*
X015777Y009894D01*
X015755Y009816D02*
X015715Y009816D01*
X015715Y009737D02*
X015755Y009737D01*
X015784Y009659D02*
X015715Y009659D01*
X015715Y009580D02*
X015844Y009580D01*
X016035Y009785D02*
X016285Y010035D01*
X016285Y016285D01*
X016092Y016488D02*
X016090Y016488D01*
X017465Y016488D02*
X021479Y016488D01*
X021331Y016567D02*
X017465Y016567D01*
X017465Y016645D02*
X021253Y016645D01*
X021211Y016724D02*
X017465Y016724D01*
X017465Y016802D02*
X021178Y016802D01*
X021170Y016881D02*
X017465Y016881D01*
X017465Y016959D02*
X021170Y016959D01*
X021187Y017038D02*
X017465Y017038D01*
X017465Y017116D02*
X021219Y017116D01*
X021272Y017195D02*
X017465Y017195D01*
X017465Y017273D02*
X021351Y017273D01*
X021429Y017509D02*
X017465Y017509D01*
X017465Y017587D02*
X021311Y017587D01*
X021235Y017666D02*
X017465Y017666D01*
X017465Y017744D02*
X021202Y017744D01*
X021170Y017823D02*
X017465Y017823D01*
X017465Y017901D02*
X021170Y017901D01*
X021170Y017980D02*
X017465Y017980D01*
X017465Y018058D02*
X021195Y018058D01*
X021228Y018137D02*
X017465Y018137D01*
X017465Y018215D02*
X021293Y018215D01*
X021386Y018294D02*
X017465Y018294D01*
X017465Y018372D02*
X022470Y018372D01*
X022470Y018294D02*
X022434Y018294D01*
X022470Y018451D02*
X017465Y018451D01*
X017465Y018529D02*
X021380Y018529D01*
X021290Y018608D02*
X017465Y018608D01*
X017465Y018686D02*
X021227Y018686D01*
X021194Y018765D02*
X017465Y018765D01*
X017465Y018843D02*
X021170Y018843D01*
X021170Y018922D02*
X017465Y018922D01*
X017465Y019000D02*
X021171Y019000D01*
X021204Y019079D02*
X017465Y019079D01*
X017465Y019157D02*
X021236Y019157D01*
X021348Y019550D02*
X017530Y019550D01*
X017563Y019471D02*
X021520Y019471D01*
X021270Y019628D02*
X017463Y019628D01*
X017565Y019393D02*
X022470Y019393D01*
X022470Y019471D02*
X022300Y019471D01*
X022384Y019314D02*
X022470Y019314D01*
X022440Y018529D02*
X022470Y018529D01*
X022470Y017509D02*
X022391Y017509D01*
X022470Y017430D02*
X017465Y017430D01*
X017465Y017352D02*
X022470Y017352D01*
X022469Y017273D02*
X022470Y017273D01*
X022470Y016488D02*
X022341Y016488D01*
X022470Y016410D02*
X017465Y016410D01*
X017465Y016331D02*
X022470Y016331D01*
X022470Y016253D02*
X017465Y016253D01*
X017465Y016174D02*
X022470Y016174D01*
X022470Y016096D02*
X017465Y016096D01*
X017465Y016017D02*
X022470Y016017D01*
X022470Y015939D02*
X017465Y015939D01*
X017465Y015860D02*
X022470Y015860D01*
X022470Y015782D02*
X017465Y015782D01*
X017465Y015703D02*
X022470Y015703D01*
X022470Y015625D02*
X017465Y015625D01*
X017465Y015546D02*
X022470Y015546D01*
X022470Y015468D02*
X017465Y015468D01*
X017465Y015389D02*
X022470Y015389D01*
X022470Y015311D02*
X022393Y015311D01*
X022432Y014526D02*
X022470Y014526D01*
X022470Y014447D02*
X017465Y014447D01*
X017465Y014369D02*
X022470Y014369D01*
X022470Y014290D02*
X022442Y014290D01*
X022470Y013505D02*
X022382Y013505D01*
X022470Y013427D02*
X017465Y013427D01*
X017465Y013505D02*
X021438Y013505D01*
X021314Y013584D02*
X017465Y013584D01*
X017465Y013662D02*
X021236Y013662D01*
X021204Y013741D02*
X017465Y013741D01*
X017465Y013819D02*
X021171Y013819D01*
X021170Y013898D02*
X017465Y013898D01*
X017465Y013976D02*
X021170Y013976D01*
X021194Y014055D02*
X017465Y014055D01*
X017465Y014133D02*
X021226Y014133D01*
X021289Y014212D02*
X017465Y014212D01*
X017465Y014290D02*
X021378Y014290D01*
X021388Y014526D02*
X017465Y014526D01*
X017465Y014604D02*
X021294Y014604D01*
X021228Y014683D02*
X017465Y014683D01*
X017465Y014761D02*
X021195Y014761D01*
X021170Y014840D02*
X017465Y014840D01*
X017465Y014918D02*
X021170Y014918D01*
X021170Y014997D02*
X017465Y014997D01*
X017465Y015075D02*
X021202Y015075D01*
X021235Y015154D02*
X017465Y015154D01*
X017465Y015232D02*
X021310Y015232D01*
X021427Y015311D02*
X017465Y015311D01*
X017465Y013348D02*
X021518Y013348D01*
X021347Y013270D02*
X017465Y013270D01*
X017465Y013191D02*
X021269Y013191D01*
X021218Y013113D02*
X019853Y013113D01*
X019912Y013034D02*
X021185Y013034D01*
X021170Y012956D02*
X019940Y012956D01*
X019940Y012877D02*
X021170Y012877D01*
X021180Y012799D02*
X019917Y012799D01*
X019866Y012720D02*
X021212Y012720D01*
X021256Y012642D02*
X019744Y012642D01*
X019715Y012563D02*
X021335Y012563D01*
X021487Y012485D02*
X019715Y012485D01*
X019715Y012406D02*
X022470Y012406D01*
X022470Y012328D02*
X022352Y012328D01*
X022333Y012485D02*
X022470Y012485D01*
X022470Y013348D02*
X022302Y013348D01*
X021468Y012328D02*
X019715Y012328D01*
X019715Y012249D02*
X021327Y012249D01*
X021248Y012171D02*
X020138Y012171D01*
X020249Y012092D02*
X021209Y012092D01*
X021177Y012014D02*
X020295Y012014D01*
X020315Y011935D02*
X021170Y011935D01*
X021170Y011857D02*
X020315Y011857D01*
X020283Y011778D02*
X021188Y011778D01*
X021221Y011700D02*
X020221Y011700D01*
X020215Y011621D02*
X021277Y011621D01*
X021355Y011543D02*
X020215Y011543D01*
X020215Y011464D02*
X022470Y011464D01*
X022470Y011386D02*
X020215Y011386D01*
X020215Y011307D02*
X021419Y011307D01*
X021306Y011229D02*
X020215Y011229D01*
X020215Y011150D02*
X021233Y011150D01*
X021201Y011072D02*
X020215Y011072D01*
X020215Y010993D02*
X021170Y010993D01*
X021170Y010915D02*
X020215Y010915D01*
X020215Y010836D02*
X021170Y010836D01*
X021197Y010758D02*
X020215Y010758D01*
X020215Y010679D02*
X021229Y010679D01*
X021297Y010601D02*
X020215Y010601D01*
X020215Y010522D02*
X021397Y010522D01*
X021369Y010287D02*
X020215Y010287D01*
X020215Y010365D02*
X022470Y010365D01*
X022470Y010287D02*
X022451Y010287D01*
X022470Y010444D02*
X020215Y010444D01*
X020215Y010208D02*
X021286Y010208D01*
X021225Y010130D02*
X020215Y010130D01*
X020215Y010051D02*
X021192Y010051D01*
X021170Y009973D02*
X020215Y009973D01*
X020215Y009894D02*
X021170Y009894D01*
X021173Y009816D02*
X020215Y009816D01*
X020215Y009737D02*
X021205Y009737D01*
X021239Y009659D02*
X020215Y009659D01*
X020215Y009580D02*
X021318Y009580D01*
X021446Y009502D02*
X020215Y009502D01*
X020215Y009423D02*
X022470Y009423D01*
X022470Y009345D02*
X022311Y009345D01*
X022374Y009502D02*
X022470Y009502D01*
X021509Y009345D02*
X020215Y009345D01*
X020215Y009266D02*
X021344Y009266D01*
X021265Y009188D02*
X020215Y009188D01*
X020215Y009109D02*
X021216Y009109D01*
X021184Y009031D02*
X020215Y009031D01*
X020215Y008952D02*
X021170Y008952D01*
X021170Y008874D02*
X020215Y008874D01*
X020215Y008795D02*
X021181Y008795D01*
X021214Y008717D02*
X020215Y008717D01*
X020215Y008638D02*
X021260Y008638D01*
X021338Y008560D02*
X020215Y008560D01*
X020215Y008481D02*
X021496Y008481D01*
X021460Y008324D02*
X020215Y008324D01*
X020215Y008246D02*
X021323Y008246D01*
X021245Y008167D02*
X020215Y008167D01*
X020215Y008089D02*
X021208Y008089D01*
X021175Y008010D02*
X020215Y008010D01*
X020215Y007932D02*
X021170Y007932D01*
X021170Y007853D02*
X020215Y007853D01*
X020215Y007775D02*
X021190Y007775D01*
X021222Y007696D02*
X020215Y007696D01*
X020215Y007618D02*
X021280Y007618D01*
X021359Y007539D02*
X020215Y007539D01*
X020215Y007461D02*
X022470Y007461D01*
X022461Y007539D02*
X022470Y007539D01*
X022470Y007382D02*
X020215Y007382D01*
X020215Y007304D02*
X021410Y007304D01*
X021303Y007225D02*
X020215Y007225D01*
X020215Y007147D02*
X021232Y007147D01*
X021199Y007068D02*
X020215Y007068D01*
X020215Y006990D02*
X021170Y006990D01*
X021170Y006911D02*
X020215Y006911D01*
X020215Y006833D02*
X021170Y006833D01*
X021198Y006754D02*
X020215Y006754D01*
X020215Y006676D02*
X021231Y006676D01*
X021301Y006597D02*
X020215Y006597D01*
X020215Y006519D02*
X021405Y006519D01*
X022415Y006519D02*
X022470Y006519D01*
X022470Y006440D02*
X020215Y006440D01*
X020215Y006362D02*
X022470Y006362D01*
X022470Y007304D02*
X022410Y007304D01*
X022360Y008324D02*
X022470Y008324D01*
X022470Y008403D02*
X020215Y008403D01*
X019855Y008403D02*
X019715Y008403D01*
X019715Y008481D02*
X019855Y008481D01*
X019855Y008560D02*
X019715Y008560D01*
X019715Y008638D02*
X019855Y008638D01*
X019855Y008717D02*
X019715Y008717D01*
X019715Y008795D02*
X019855Y008795D01*
X019855Y008874D02*
X019715Y008874D01*
X019715Y008952D02*
X019855Y008952D01*
X019855Y009031D02*
X019715Y009031D01*
X019715Y009109D02*
X019855Y009109D01*
X019855Y009188D02*
X019715Y009188D01*
X019715Y009266D02*
X019855Y009266D01*
X019855Y009345D02*
X019715Y009345D01*
X019715Y009423D02*
X019855Y009423D01*
X019855Y009502D02*
X019715Y009502D01*
X019715Y009580D02*
X019855Y009580D01*
X019855Y009659D02*
X019715Y009659D01*
X019715Y009737D02*
X019855Y009737D01*
X019855Y009816D02*
X019715Y009816D01*
X019715Y009894D02*
X019855Y009894D01*
X019855Y009973D02*
X019715Y009973D01*
X019715Y010051D02*
X019855Y010051D01*
X019855Y010130D02*
X019715Y010130D01*
X019715Y010208D02*
X019855Y010208D01*
X019855Y010287D02*
X019715Y010287D01*
X019715Y010365D02*
X019855Y010365D01*
X019855Y010444D02*
X019715Y010444D01*
X019715Y010522D02*
X019855Y010522D01*
X019855Y010601D02*
X019715Y010601D01*
X019715Y010679D02*
X019855Y010679D01*
X019855Y010758D02*
X019715Y010758D01*
X019715Y010836D02*
X019855Y010836D01*
X019855Y010915D02*
X019715Y010915D01*
X019715Y010993D02*
X019855Y010993D01*
X019855Y011072D02*
X019715Y011072D01*
X019715Y011150D02*
X019855Y011150D01*
X019855Y011229D02*
X019715Y011229D01*
X019715Y011307D02*
X019855Y011307D01*
X019855Y011386D02*
X019715Y011386D01*
X019715Y011464D02*
X019855Y011464D01*
X019855Y011543D02*
X019715Y011543D01*
X019715Y011621D02*
X019855Y011621D01*
X019849Y011700D02*
X019715Y011700D01*
X019715Y011778D02*
X019787Y011778D01*
X019755Y011857D02*
X019715Y011857D01*
X019715Y011935D02*
X019755Y011935D01*
X019775Y012014D02*
X019715Y012014D01*
X019715Y012092D02*
X019821Y012092D01*
X019715Y012171D02*
X019932Y012171D01*
X020035Y011910D02*
X020035Y003785D01*
X019855Y004164D02*
X019672Y004164D01*
X019763Y004242D02*
X019855Y004242D01*
X019855Y004321D02*
X019801Y004321D01*
X019815Y004399D02*
X019855Y004399D01*
X019855Y004478D02*
X019810Y004478D01*
X019778Y004556D02*
X019855Y004556D01*
X019855Y004635D02*
X019715Y004635D01*
X019715Y004713D02*
X019855Y004713D01*
X019855Y004792D02*
X019715Y004792D01*
X019715Y004870D02*
X019855Y004870D01*
X019855Y004949D02*
X019715Y004949D01*
X019715Y005027D02*
X019855Y005027D01*
X019855Y005106D02*
X019715Y005106D01*
X019715Y005184D02*
X019855Y005184D01*
X019855Y005263D02*
X019715Y005263D01*
X019715Y005341D02*
X019855Y005341D01*
X019855Y005420D02*
X019715Y005420D01*
X019715Y005498D02*
X019855Y005498D01*
X019855Y005577D02*
X019715Y005577D01*
X019715Y005655D02*
X019855Y005655D01*
X019855Y005734D02*
X019715Y005734D01*
X019715Y005812D02*
X019855Y005812D01*
X019855Y005891D02*
X019715Y005891D01*
X019715Y005969D02*
X019855Y005969D01*
X019855Y006048D02*
X019715Y006048D01*
X019715Y006126D02*
X019855Y006126D01*
X019855Y006205D02*
X019715Y006205D01*
X019715Y006283D02*
X019855Y006283D01*
X019855Y006362D02*
X019715Y006362D01*
X019715Y006440D02*
X019855Y006440D01*
X019855Y006519D02*
X019715Y006519D01*
X019715Y006597D02*
X019855Y006597D01*
X019855Y006676D02*
X019715Y006676D01*
X019715Y006754D02*
X019855Y006754D01*
X019855Y006833D02*
X019715Y006833D01*
X019715Y006911D02*
X019855Y006911D01*
X019855Y006990D02*
X019715Y006990D01*
X019715Y007068D02*
X019855Y007068D01*
X019855Y007147D02*
X019715Y007147D01*
X019715Y007225D02*
X019855Y007225D01*
X019855Y007304D02*
X019715Y007304D01*
X019715Y007382D02*
X019855Y007382D01*
X019855Y007461D02*
X019715Y007461D01*
X019715Y007539D02*
X019855Y007539D01*
X019855Y007618D02*
X019715Y007618D01*
X019715Y007696D02*
X019855Y007696D01*
X019855Y007775D02*
X019715Y007775D01*
X019715Y007853D02*
X019855Y007853D01*
X019855Y007932D02*
X019715Y007932D01*
X019715Y008010D02*
X019855Y008010D01*
X019855Y008089D02*
X019715Y008089D01*
X019715Y008167D02*
X019855Y008167D01*
X019855Y008246D02*
X019715Y008246D01*
X019715Y008324D02*
X019855Y008324D01*
X019355Y008324D02*
X017465Y008324D01*
X017465Y008246D02*
X019355Y008246D01*
X019355Y008167D02*
X017465Y008167D01*
X017465Y008089D02*
X019355Y008089D01*
X019355Y008010D02*
X017465Y008010D01*
X017465Y007932D02*
X019355Y007932D01*
X019355Y007853D02*
X017465Y007853D01*
X017465Y007775D02*
X019355Y007775D01*
X019355Y007696D02*
X017465Y007696D01*
X017465Y007618D02*
X019355Y007618D01*
X019355Y007539D02*
X017465Y007539D01*
X017465Y007461D02*
X019355Y007461D01*
X019355Y007382D02*
X017465Y007382D01*
X017465Y007304D02*
X019355Y007304D01*
X019355Y007225D02*
X017465Y007225D01*
X017465Y007147D02*
X019355Y007147D01*
X019355Y007068D02*
X017465Y007068D01*
X017465Y006990D02*
X019355Y006990D01*
X019355Y006911D02*
X017465Y006911D01*
X017465Y006833D02*
X019355Y006833D01*
X019355Y006754D02*
X017465Y006754D01*
X017465Y006676D02*
X019355Y006676D01*
X019355Y006597D02*
X017465Y006597D01*
X017465Y006519D02*
X019355Y006519D01*
X019355Y006440D02*
X017465Y006440D01*
X017465Y006362D02*
X019355Y006362D01*
X019355Y006283D02*
X017465Y006283D01*
X017465Y006205D02*
X019355Y006205D01*
X019535Y004410D02*
X019535Y012785D01*
X019660Y012910D01*
X019467Y013113D02*
X017465Y013113D01*
X017465Y013034D02*
X019408Y013034D01*
X019380Y012956D02*
X017465Y012956D01*
X017465Y012877D02*
X019372Y012877D01*
X019355Y012799D02*
X017465Y012799D01*
X017465Y012720D02*
X019355Y012720D01*
X019355Y012642D02*
X017465Y012642D01*
X017465Y012563D02*
X019355Y012563D01*
X019355Y012485D02*
X017465Y012485D01*
X017465Y012406D02*
X019355Y012406D01*
X019355Y012328D02*
X017465Y012328D01*
X017465Y012249D02*
X019355Y012249D01*
X019355Y012171D02*
X017465Y012171D01*
X017465Y012092D02*
X019355Y012092D01*
X019355Y012014D02*
X017465Y012014D01*
X017465Y011935D02*
X019355Y011935D01*
X019355Y011857D02*
X017465Y011857D01*
X017465Y011778D02*
X019355Y011778D01*
X019355Y011700D02*
X017465Y011700D01*
X017465Y011621D02*
X019355Y011621D01*
X019355Y011543D02*
X017465Y011543D01*
X017465Y011464D02*
X019355Y011464D01*
X019355Y011386D02*
X017465Y011386D01*
X017465Y011307D02*
X019355Y011307D01*
X019355Y011229D02*
X017465Y011229D01*
X017465Y011150D02*
X019355Y011150D01*
X019355Y011072D02*
X017465Y011072D01*
X017465Y010993D02*
X019355Y010993D01*
X019355Y010915D02*
X017465Y010915D01*
X017465Y010836D02*
X019355Y010836D01*
X019355Y010758D02*
X017465Y010758D01*
X017465Y010679D02*
X019355Y010679D01*
X019355Y010601D02*
X017465Y010601D01*
X017465Y010522D02*
X019355Y010522D01*
X019355Y010444D02*
X017465Y010444D01*
X017465Y010365D02*
X019355Y010365D01*
X019355Y010287D02*
X017465Y010287D01*
X017465Y010208D02*
X019355Y010208D01*
X019355Y010130D02*
X017465Y010130D01*
X017465Y010051D02*
X019355Y010051D01*
X019355Y009973D02*
X017465Y009973D01*
X017465Y009894D02*
X019355Y009894D01*
X019355Y009816D02*
X017465Y009816D01*
X017465Y009737D02*
X019355Y009737D01*
X019355Y009659D02*
X017465Y009659D01*
X017465Y009580D02*
X019355Y009580D01*
X019355Y009502D02*
X017465Y009502D01*
X017465Y009423D02*
X019355Y009423D01*
X019355Y009345D02*
X017465Y009345D01*
X017465Y009266D02*
X019355Y009266D01*
X019355Y009188D02*
X017465Y009188D01*
X017465Y009109D02*
X019355Y009109D01*
X019355Y009031D02*
X017465Y009031D01*
X017465Y008952D02*
X019355Y008952D01*
X019355Y008874D02*
X017465Y008874D01*
X017465Y008795D02*
X019355Y008795D01*
X019355Y008717D02*
X017465Y008717D01*
X017465Y008638D02*
X019355Y008638D01*
X019355Y008560D02*
X017465Y008560D01*
X017465Y008481D02*
X019355Y008481D01*
X019355Y008403D02*
X017465Y008403D01*
X015535Y010160D02*
X015535Y003035D01*
X016169Y001573D02*
X016651Y001573D01*
X016572Y001495D02*
X016248Y001495D01*
X016301Y001416D02*
X016519Y001416D01*
X016487Y001338D02*
X016333Y001338D01*
X016350Y001259D02*
X016470Y001259D01*
X016470Y001181D02*
X016350Y001181D01*
X016350Y001102D02*
X016470Y001102D01*
X016470Y001024D02*
X016350Y001024D01*
X016350Y000945D02*
X016470Y000945D01*
X016470Y000867D02*
X016350Y000867D01*
X016350Y000788D02*
X016470Y000788D01*
X016470Y000710D02*
X016350Y000710D01*
X016350Y000631D02*
X016470Y000631D01*
X016470Y000553D02*
X016350Y000553D01*
X016330Y000474D02*
X016490Y000474D01*
X016523Y000396D02*
X016297Y000396D01*
X010910Y002285D02*
X008785Y004410D01*
X008785Y008410D01*
X008660Y008535D01*
X008965Y007775D02*
X010132Y007775D01*
X010050Y007696D02*
X008965Y007696D01*
X008965Y007618D02*
X010016Y007618D01*
X010005Y007539D02*
X008965Y007539D01*
X008965Y007461D02*
X010013Y007461D01*
X007605Y007461D02*
X007590Y007461D01*
X007590Y007382D02*
X007605Y007382D01*
X007605Y007304D02*
X007590Y007304D01*
X007590Y007225D02*
X007605Y007225D01*
X007605Y007147D02*
X007590Y007147D01*
X007590Y007068D02*
X007605Y007068D01*
X007605Y006990D02*
X007590Y006990D01*
X007590Y006911D02*
X007605Y006911D01*
X007605Y006833D02*
X007590Y006833D01*
X007590Y006754D02*
X007605Y006754D01*
X007605Y006676D02*
X007590Y006676D01*
X007590Y006597D02*
X007605Y006597D01*
X007605Y006519D02*
X007590Y006519D01*
X007590Y006440D02*
X007605Y006440D01*
X007605Y006362D02*
X007590Y006362D01*
X007590Y006283D02*
X007605Y006283D01*
X007605Y006205D02*
X007590Y006205D01*
X007590Y006126D02*
X007605Y006126D01*
X007605Y006048D02*
X007590Y006048D01*
X007590Y005969D02*
X007605Y005969D01*
X007605Y005891D02*
X007590Y005891D01*
X007605Y005812D02*
X007567Y005812D01*
X007605Y005734D02*
X007488Y005734D01*
X007520Y005655D02*
X007410Y005655D01*
X007431Y005577D02*
X007331Y005577D01*
X007393Y005498D02*
X007253Y005498D01*
X007174Y005420D02*
X007380Y005420D01*
X007386Y005341D02*
X007096Y005341D01*
X007090Y005263D02*
X007418Y005263D01*
X007490Y005184D02*
X007090Y005184D01*
X006910Y005410D02*
X007410Y005910D01*
X007410Y007723D01*
X007473Y007785D01*
X008035Y011410D02*
X008535Y011910D01*
X008535Y012035D01*
X008465Y013898D02*
X014605Y013898D01*
X014605Y013976D02*
X008465Y013976D01*
X008465Y014055D02*
X014605Y014055D01*
X014605Y014133D02*
X008465Y014133D01*
X008465Y014212D02*
X014605Y014212D01*
X014605Y014290D02*
X008465Y014290D01*
X008465Y014369D02*
X014605Y014369D01*
X014605Y014447D02*
X008465Y014447D01*
X008465Y014526D02*
X014605Y014526D01*
X014605Y014604D02*
X008465Y014604D01*
X008465Y014683D02*
X014605Y014683D01*
X014605Y014761D02*
X008465Y014761D01*
X008160Y015160D02*
X008910Y015910D01*
X010160Y015910D01*
X014548Y013819D02*
X014505Y013716D01*
X015340Y013191D02*
X015358Y013191D01*
X015160Y012285D02*
X015160Y017910D01*
X017465Y019194D02*
X017522Y019251D01*
X017465Y019194D02*
X017465Y006126D01*
X014785Y009035D02*
X014910Y009160D01*
X014910Y010660D01*
X022324Y008481D02*
X022470Y008481D01*
X022423Y010522D02*
X022470Y010522D01*
X022470Y011307D02*
X022401Y011307D01*
X022465Y011543D02*
X022470Y011543D01*
X022456Y003536D02*
X022470Y003536D01*
X010651Y001573D02*
X010169Y001573D01*
X010248Y001495D02*
X010572Y001495D01*
X010519Y001416D02*
X010301Y001416D01*
X010333Y001338D02*
X010487Y001338D01*
X010470Y001259D02*
X010350Y001259D01*
X010350Y001181D02*
X010470Y001181D01*
X010470Y001102D02*
X010350Y001102D01*
X010350Y001024D02*
X010470Y001024D01*
X010470Y000945D02*
X010350Y000945D01*
X010350Y000867D02*
X010470Y000867D01*
X010470Y000788D02*
X010350Y000788D01*
X010350Y000710D02*
X010470Y000710D01*
X010470Y000631D02*
X010350Y000631D01*
X010350Y000553D02*
X010470Y000553D01*
X010490Y000474D02*
X010330Y000474D01*
X010297Y000396D02*
X010523Y000396D01*
X009523Y000396D02*
X009297Y000396D01*
X009330Y000474D02*
X009490Y000474D01*
X009470Y000553D02*
X009350Y000553D01*
X009350Y000631D02*
X009470Y000631D01*
X009470Y000710D02*
X009350Y000710D01*
X009350Y000788D02*
X009470Y000788D01*
X009470Y000867D02*
X009350Y000867D01*
X009350Y000945D02*
X009470Y000945D01*
X009470Y001024D02*
X009350Y001024D01*
X009350Y001102D02*
X009470Y001102D01*
X009470Y001181D02*
X009350Y001181D01*
X009350Y001259D02*
X009470Y001259D01*
X009487Y001338D02*
X009333Y001338D01*
X009301Y001416D02*
X009519Y001416D01*
X009572Y001495D02*
X009248Y001495D01*
X009169Y001573D02*
X009651Y001573D01*
X008651Y001573D02*
X008169Y001573D01*
X008248Y001495D02*
X008572Y001495D01*
X008519Y001416D02*
X008301Y001416D01*
X008333Y001338D02*
X008487Y001338D01*
X008470Y001259D02*
X008350Y001259D01*
X008350Y001181D02*
X008470Y001181D01*
X008470Y001102D02*
X008350Y001102D01*
X008350Y001024D02*
X008470Y001024D01*
X008470Y000945D02*
X008350Y000945D01*
X008350Y000867D02*
X008470Y000867D01*
X008470Y000788D02*
X008350Y000788D01*
X008350Y000710D02*
X008470Y000710D01*
X008470Y000631D02*
X008350Y000631D01*
X008350Y000553D02*
X008470Y000553D01*
X008490Y000474D02*
X008330Y000474D01*
X008297Y000396D02*
X008523Y000396D01*
X000950Y017509D02*
X000870Y017509D01*
X000870Y017587D02*
X000950Y017587D01*
X000950Y017666D02*
X000870Y017666D01*
X000870Y017744D02*
X000950Y017744D01*
X000950Y017823D02*
X000870Y017823D01*
X000385Y017509D02*
X000350Y017509D01*
X000350Y018529D02*
X000380Y018529D01*
X000350Y019314D02*
X000436Y019314D01*
X000350Y020178D02*
X002899Y020178D01*
X002821Y020256D02*
X000350Y020256D01*
X000350Y020335D02*
X002742Y020335D01*
X002664Y020413D02*
X000350Y020413D01*
X000350Y020492D02*
X002632Y020492D01*
X002599Y020570D02*
X000350Y020570D01*
X000350Y020649D02*
X002567Y020649D01*
X002534Y020727D02*
X000350Y020727D01*
X000350Y020806D02*
X002531Y020806D01*
X002531Y020884D02*
X000350Y020884D01*
X000350Y020963D02*
X002531Y020963D01*
X002531Y021041D02*
X000350Y021041D01*
X000350Y021120D02*
X002545Y021120D01*
X002578Y021198D02*
X000350Y021198D01*
X000350Y021277D02*
X002610Y021277D01*
X002643Y021355D02*
X000350Y021355D01*
X000350Y021434D02*
X002691Y021434D01*
X002769Y021512D02*
X000350Y021512D01*
X000350Y021591D02*
X002848Y021591D01*
X002946Y021669D02*
X000350Y021669D01*
X000350Y021748D02*
X003135Y021748D01*
X003685Y021748D02*
X005720Y021748D01*
X005720Y021826D02*
X000350Y021826D01*
X000350Y021905D02*
X005720Y021905D01*
X005720Y021983D02*
X000350Y021983D01*
X000350Y022062D02*
X005720Y022062D01*
X005720Y022140D02*
X000350Y022140D01*
X000350Y022219D02*
X005720Y022219D01*
X005720Y022297D02*
X000350Y022297D01*
X000350Y022376D02*
X005752Y022376D01*
X005785Y022454D02*
X000350Y022454D01*
X003874Y021669D02*
X005720Y021669D01*
X005720Y021591D02*
X003972Y021591D01*
X004051Y021512D02*
X005724Y021512D01*
X005757Y021434D02*
X004129Y021434D01*
X004177Y021355D02*
X005793Y021355D01*
X005871Y021277D02*
X004210Y021277D01*
X016865Y021198D02*
X018578Y021198D01*
X018610Y021277D02*
X016977Y021277D01*
X017043Y021355D02*
X018643Y021355D01*
X018691Y021434D02*
X017086Y021434D01*
X017110Y021512D02*
X018769Y021512D01*
X018848Y021591D02*
X017120Y021591D01*
X017120Y021669D02*
X018946Y021669D01*
X020156Y020413D02*
X022470Y020413D01*
X022470Y020335D02*
X022335Y020335D01*
X022350Y020492D02*
X022470Y020492D01*
X022470Y021512D02*
X022399Y021512D01*
X022425Y022297D02*
X022470Y022297D01*
X022470Y022376D02*
X017090Y022376D01*
X017112Y022297D02*
X021395Y022297D01*
X021296Y022219D02*
X017120Y022219D01*
X017120Y022140D02*
X021229Y022140D01*
X021197Y022062D02*
X017120Y022062D01*
X017120Y021983D02*
X021170Y021983D01*
X022470Y022454D02*
X017051Y022454D01*
X016871Y020178D02*
X018899Y020178D01*
X019071Y020099D02*
X016992Y020099D01*
D11*
X007660Y016910D03*
X006660Y016910D03*
X006660Y015910D03*
X006660Y014910D03*
X007660Y014910D03*
X007660Y015910D03*
D12*
X006610Y010910D03*
X004710Y010910D03*
D13*
X001210Y010910D02*
X000610Y010910D01*
X000610Y009910D02*
X001210Y009910D01*
X001210Y008910D02*
X000610Y008910D01*
X000610Y007910D02*
X001210Y007910D01*
X001210Y006910D02*
X000610Y006910D01*
X000610Y005910D02*
X001210Y005910D01*
X001210Y004910D02*
X000610Y004910D01*
X000610Y003910D02*
X001210Y003910D01*
X005910Y001210D02*
X005910Y000610D01*
X006910Y000610D02*
X006910Y001210D01*
X007910Y001210D02*
X007910Y000610D01*
X008910Y000610D02*
X008910Y001210D01*
X009910Y001210D02*
X009910Y000610D01*
X010910Y000610D02*
X010910Y001210D01*
X011910Y001210D02*
X011910Y000610D01*
X012910Y000610D02*
X012910Y001210D01*
X013910Y001210D02*
X013910Y000610D01*
X014910Y000610D02*
X014910Y001210D01*
X015910Y001210D02*
X015910Y000610D01*
X016910Y000610D02*
X016910Y001210D01*
X021610Y003910D02*
X022210Y003910D01*
X022210Y004910D02*
X021610Y004910D01*
X021610Y005910D02*
X022210Y005910D01*
X022210Y006910D02*
X021610Y006910D01*
X021610Y007910D02*
X022210Y007910D01*
X022210Y008910D02*
X021610Y008910D01*
X021610Y009910D02*
X022210Y009910D01*
X022210Y010910D02*
X021610Y010910D01*
X021610Y011910D02*
X022210Y011910D01*
X022210Y012910D02*
X021610Y012910D01*
X021610Y013910D02*
X022210Y013910D01*
X022210Y014910D02*
X021610Y014910D01*
X021610Y016910D02*
X022210Y016910D01*
X022210Y017910D02*
X021610Y017910D01*
X021610Y018910D02*
X022210Y018910D01*
X022210Y019910D02*
X021610Y019910D01*
X021610Y020910D02*
X022210Y020910D01*
X022210Y021910D02*
X021610Y021910D01*
X016660Y022210D02*
X016660Y021610D01*
X015660Y021610D02*
X015660Y022210D01*
X014660Y022210D02*
X014660Y021610D01*
X013660Y021610D02*
X013660Y022210D01*
X011660Y022210D02*
X011660Y021610D01*
X010660Y021610D02*
X010660Y022210D01*
X007160Y022210D02*
X007160Y021610D01*
X006160Y021610D02*
X006160Y022210D01*
X001210Y018910D02*
X000610Y018910D01*
X000610Y017910D02*
X001210Y017910D01*
X001210Y014910D02*
X000610Y014910D01*
X000610Y013910D02*
X001210Y013910D01*
X001210Y012910D02*
X000610Y012910D01*
X000610Y011910D02*
X001210Y011910D01*
D14*
X004410Y009660D03*
X005660Y007785D03*
X007473Y007785D03*
X008410Y008160D03*
X008660Y008535D03*
X007710Y009585D03*
X009410Y010160D03*
X010910Y010160D03*
X012910Y011660D03*
X012410Y012348D03*
X014785Y013660D03*
X015535Y013410D03*
X015160Y012285D03*
X015910Y012285D03*
X014910Y010660D03*
X015535Y010160D03*
X016035Y009785D03*
X014535Y009785D03*
X014160Y009535D03*
X013785Y009285D03*
X012910Y008285D03*
X012285Y007535D03*
X012035Y007035D03*
X011660Y006535D03*
X011348Y006223D03*
X010910Y007035D03*
X010585Y007285D03*
X010285Y007535D03*
X009985Y006985D03*
X009535Y007035D03*
X009160Y006035D03*
X009535Y005785D03*
X009910Y006035D03*
X007660Y005410D03*
X007410Y003785D03*
X006410Y003785D03*
X005285Y003785D03*
X004660Y005785D03*
X010285Y003410D03*
X010660Y003160D03*
X011160Y003410D03*
X013035Y003910D03*
X013410Y003535D03*
X014285Y003535D03*
X014785Y004160D03*
X014410Y004535D03*
X014035Y004785D03*
X013660Y005035D03*
X016285Y007285D03*
X016785Y006535D03*
X017285Y005910D03*
X017160Y003535D03*
X019535Y004410D03*
X020035Y003785D03*
X017785Y009660D03*
X020035Y011910D03*
X019660Y012910D03*
X018035Y012285D03*
X018410Y015910D03*
X016285Y016285D03*
X015535Y016660D03*
X015910Y017160D03*
X015160Y017910D03*
X014785Y018410D03*
X014410Y018910D03*
X013785Y017035D03*
X014410Y015535D03*
X010535Y015535D03*
X010160Y015160D03*
X010410Y014660D03*
X010160Y015910D03*
X010535Y016285D03*
X010160Y017035D03*
X009160Y015160D03*
X008285Y013035D03*
X007660Y012785D03*
X008035Y011910D03*
X008535Y012035D03*
X006410Y013035D03*
X005410Y012160D03*
X001410Y017160D03*
X000910Y017160D03*
X005785Y018660D03*
X005785Y019160D03*
X008410Y019910D03*
X008910Y019910D03*
X009410Y019910D03*
X010660Y020660D03*
X011160Y020660D03*
X011660Y020660D03*
X008910Y021910D03*
X016785Y019910D03*
X017285Y019410D03*
D15*
X005910Y008660D03*
D16*
X005910Y016410D01*
X006410Y016910D01*
X006660Y016910D01*
M02*
